<svg width="72" height="72" viewBox="0 0 72 72" fill="none" xmlns="http://www.w3.org/2000/svg">
<g id="Check" clip-path="url(#clip0_1146_16062)">
<g id="Group">
<path id="Vector" d="M36 72C55.8823 72 72 55.8823 72 36C72 16.1177 55.8823 0 36 0C16.1177 0 0 16.1177 0 36C0 55.8823 16.1177 72 36 72Z" fill="#32E0FB"/>
<path id="Vector_2" d="M36.0036 16.4912C40.9896 16.4912 45.9756 18.3962 49.7916 22.2092C51.6052 24.0188 53.0441 26.1684 54.0258 28.5349C55.0076 30.9013 55.5129 33.4382 55.5129 36.0002C55.5129 38.5622 55.0076 41.0991 54.0258 43.4656C53.0441 45.832 51.6052 47.9816 49.7916 49.7912C47.982 51.6048 45.8324 53.0437 43.4659 54.0254C41.0995 55.0072 38.5626 55.5125 36.0006 55.5125C33.4386 55.5125 30.9017 55.0072 28.5353 54.0254C26.1688 53.0437 24.0192 51.6048 22.2096 49.7912C20.396 47.9816 18.9571 45.832 17.9754 43.4656C16.9936 41.0991 16.4883 38.5622 16.4883 36.0002C16.4883 33.4382 16.9936 30.9013 17.9754 28.5349C18.9571 26.1684 20.396 24.0188 22.2096 22.2092C24.0187 20.3943 26.1686 18.9547 28.5359 17.9734C30.9031 16.9922 33.441 16.4884 36.0036 16.4912ZM44.8836 29.9972C44.5996 30.0244 44.3292 30.1316 44.1036 30.3062L33.1416 38.5262L28.0626 33.4502C26.9616 32.3042 24.7926 34.4702 25.9416 35.5712L31.9416 41.5712C32.2017 41.8172 32.5389 41.9656 32.8959 41.9913C33.253 42.017 33.6079 41.9184 33.9006 41.7122L45.9006 32.7122C46.9086 31.9772 46.2876 30.0182 45.0396 30.0002C44.9886 29.9976 44.9376 29.9976 44.8866 30.0002L44.8836 29.9972Z" fill="white"/>
</g>
</g>
<defs>
<clipPath id="clip0_1146_16062">
<rect width="72" height="72" fill="white"/>
</clipPath>
</defs>
</svg>
