<svg width="12" height="12" viewBox="0 0 12 12" fill="none" xmlns="http://www.w3.org/2000/svg">
<g id="Icons/24px/Location">
<path id="Icon" fill-rule="evenodd" clip-rule="evenodd" d="M5.4 0.632957C2.89703 0.909647 0.909647 2.89703 0.632957 5.4H0V6.6H0.632957C0.909647 9.10297 2.89703 11.0904 5.4 11.367V12H6.6V11.367C9.10297 11.0904 11.0904 9.10297 11.367 6.6H12V5.4H11.367C11.0904 2.89703 9.10297 0.909647 6.6 0.632957V0H5.4V0.632957ZM2.4 5.4H1.84253C2.10564 3.56059 3.56059 2.10564 5.4 1.84253V2.4H6.6V1.84253C8.43941 2.10564 9.89436 3.56059 10.1575 5.4H9.6V6.6H10.1575C9.89436 8.43941 8.43941 9.89436 6.6 10.1575V9.6H5.4V10.1575C3.56059 9.89436 2.10564 8.43941 1.84253 6.6H2.4V5.4ZM6 7.2C6.66274 7.2 7.2 6.66274 7.2 6C7.2 5.33726 6.66274 4.8 6 4.8C5.33726 4.8 4.8 5.33726 4.8 6C4.8 6.66274 5.33726 7.2 6 7.2ZM3.6 6C3.6 7.32548 4.67452 8.4 6 8.4C7.32548 8.4 8.4 7.32548 8.4 6C8.4 4.67452 7.32548 3.6 6 3.6C4.67452 3.6 3.6 4.67452 3.6 6Z" fill="#545454"/>
</g>
</svg>
