<svg width="186" height="36" viewBox="0 0 186 36" fill="none" xmlns="http://www.w3.org/2000/svg">
<g clip-path="url(#clip0_373_30422)">
<rect width="36" height="36" rx="18" fill="#32E0FB"/>
<g opacity="0.2" filter="url(#filter0_f_373_30422)">
<path d="M28.382 25.7574C27.5829 25.4392 26.9423 24.5846 26.9732 23.5642C26.997 22.7808 27.3412 22.0985 27.8484 21.696C27.915 21.643 27.9535 21.5608 27.9435 21.4763C27.9301 21.364 27.8368 21.2783 27.7238 21.2748L27.5222 21.2686C26.2085 21.2282 25.1804 19.9203 25.2138 18.34C25.0023 18.4069 24.7716 18.4829 24.5275 18.5649L24.2696 18.652C23.9607 18.7565 23.6366 18.8661 23.337 18.9592C23.2487 19.8358 22.9184 20.6983 22.3338 21.4415C21.4695 22.5401 20.222 23.1586 18.9308 23.2565C18.831 23.8407 18.6777 24.4956 18.4816 25.1407C18.1617 26.1928 17.691 27.3434 17.0613 28.1438C16.2462 29.18 14.9572 29.8952 13.8502 30.366C18.9711 32.4069 25.0251 30.9475 28.6087 26.392C28.7774 26.1777 28.6354 25.8583 28.382 25.7574Z" fill="black"/>
<path fill-rule="evenodd" clip-rule="evenodd" d="M32.1331 13.8617C32.133 13.3054 31.6784 12.8542 31.1176 12.8541C30.5569 12.854 30.1023 13.3051 30.1024 13.8613C30.1025 14.4176 30.5573 14.869 31.1179 14.8691C31.6787 14.8692 32.1332 14.4179 32.1331 13.8617Z" fill="black"/>
<path fill-rule="evenodd" clip-rule="evenodd" d="M29.7909 18.004C29.7907 17.0563 29.0234 16.2877 28.0767 16.2875C27.1303 16.2874 26.3628 17.0557 26.363 18.0034C26.3632 18.9511 27.1309 19.7201 28.0772 19.7203C29.0239 19.7204 29.791 18.9517 29.7909 18.004Z" fill="black"/>
<path fill-rule="evenodd" clip-rule="evenodd" d="M26.2842 13.0896C26.9681 12.1534 28.0761 11.1445 28.9096 10.9487C28.2347 10.0199 27.4228 9.16726 26.4773 8.42136C24.4913 6.85453 22.1858 5.97122 19.8439 5.73782L20.0368 7.36369C20.0993 7.89008 19.7238 8.3674 19.1982 8.4297C18.6726 8.4921 18.1958 8.11596 18.1333 7.58957L17.92 5.79238C17.9159 5.75872 17.9137 5.72521 17.9133 5.69194C14.3613 5.87542 10.9042 7.5344 8.53074 10.5515C6.96664 12.5398 6.08534 14.8481 5.8531 17.1932L7.47589 17.0006C8.00153 16.9382 8.47831 17.3143 8.54078 17.8407C8.60325 18.3671 8.22779 18.8444 7.70214 18.9068L5.90749 19.1198C5.87405 19.1238 5.84081 19.126 5.80787 19.1265C5.99226 22.6833 7.65013 26.1457 10.6639 28.5234C10.9494 28.7487 11.2415 28.9598 11.5393 29.1568C11.8645 29.061 12.2561 28.9339 12.6726 28.774C13.8095 28.3373 14.9564 27.7205 15.5572 26.9568C15.9654 26.438 16.3525 25.5594 16.6495 24.5823C16.8175 24.0299 16.9447 23.4863 17.0286 23.017C16.527 22.8461 16.0454 22.5885 15.6056 22.2415C13.5263 20.6011 13.1681 17.5837 14.8057 15.5021C16.4432 13.4204 19.4563 13.0628 21.5356 14.7032C22.3159 15.3189 22.8538 16.1283 23.1348 17.0094C23.301 16.9545 23.4816 16.8937 23.6742 16.8288L23.9188 16.7463C24.257 16.6327 24.6337 16.5072 24.997 16.4007C24.997 16.4007 25.2714 14.4762 26.2842 13.0896ZM14.4585 7.98022C14.97 7.84398 15.4951 8.1489 15.6313 8.66114L16.4532 11.753C16.5894 12.2652 16.2852 12.7909 15.7736 12.9271C15.2621 13.0634 14.737 12.7585 14.6008 12.2462L13.7789 9.15439C13.6427 8.64215 13.9469 8.11645 14.4585 7.98022ZM8.79599 13.2541C8.85846 13.7805 9.33523 14.1567 9.86088 14.0943L11.6555 13.8812C12.1811 13.8189 12.5566 13.3416 12.4941 12.8152C12.4317 12.2888 11.9549 11.9127 11.4292 11.9751L9.63458 12.1881C9.10893 12.2505 8.73344 12.7278 8.79599 13.2541ZM11.2738 18.5648C11.7603 18.774 12.3239 18.5487 12.5326 18.0617L13.2452 16.3987C13.4539 15.9117 13.2287 15.3473 12.7422 15.1382C12.2558 14.929 11.6923 15.1542 11.4836 15.6413L10.7709 17.3042C10.5622 17.7913 10.7874 18.3557 11.2738 18.5648ZM8.8991 20.7842C8.77305 21.299 9.08763 21.8187 9.60174 21.9451L11.357 22.3767C11.8712 22.5031 12.3901 22.1882 12.5162 21.6735C12.6422 21.1587 12.3276 20.6389 11.8135 20.5125L10.0582 20.081C9.54412 19.9546 9.02516 20.2694 8.8991 20.7842ZM21.462 13.0148C21.7697 12.5835 21.6698 11.9841 21.239 11.6758L19.7682 10.6236C19.3374 10.3155 18.7389 10.4152 18.4312 10.8465C18.1237 11.2778 18.2235 11.8772 18.6542 12.1855L20.125 13.2377C20.5558 13.5458 21.1545 13.446 21.462 13.0148ZM23.7185 12.0496C24.247 12.0206 24.652 11.5681 24.6228 11.0388L24.4659 8.18159C24.4368 7.65234 23.9848 7.2467 23.4562 7.27567C22.9277 7.30455 22.5228 7.75705 22.5519 8.28638L22.7088 11.1436C22.7379 11.6729 23.1899 12.0785 23.7185 12.0496ZM13.4622 22.6802C13.9721 22.538 14.5007 22.8367 14.6428 23.3473L15.1282 25.0908C15.2704 25.6014 14.9723 26.1307 14.4623 26.2728C13.9525 26.415 13.4239 26.1163 13.2818 25.6057L12.7964 23.8623C12.6542 23.3516 12.9523 22.8224 13.4622 22.6802ZM8.07281 23.9346C7.76894 24.3686 7.87398 24.9671 8.30742 25.2715L9.78731 26.311C10.2207 26.6153 10.8184 26.5104 11.1223 26.0765C11.4261 25.6425 11.3211 25.044 10.8877 24.7395L9.40782 23.7001C8.97438 23.3957 8.37668 23.5007 8.07281 23.9346Z" fill="black"/>
</g>
<path d="M27.7589 25.2896C26.9599 24.9715 26.3193 24.1168 26.3501 23.0964C26.3739 22.3131 26.7182 21.6308 27.2254 21.2282C27.292 21.1752 27.3304 21.093 27.3204 21.0085C27.3071 20.8962 27.2137 20.8105 27.1008 20.807L26.8992 20.8008C25.5855 20.7605 24.5574 19.4525 24.5908 17.8723C24.3792 17.9391 24.1486 18.0152 23.9044 18.0972L23.6466 18.1842C23.3377 18.2887 23.0136 18.3983 22.714 18.4914C22.6257 19.368 22.2953 20.2305 21.7107 20.9737C20.8464 22.0724 19.5989 22.6908 18.3078 22.7887C18.2079 23.3729 18.0546 24.0278 17.8586 24.673C17.5386 25.725 17.0679 26.8756 16.4383 27.676C15.6232 28.7122 14.3342 29.4274 13.2272 29.8983C18.348 31.9391 24.4021 30.4798 27.9857 25.9243C28.1543 25.7099 28.0123 25.3905 27.7589 25.2896Z" fill="black"/>
<path fill-rule="evenodd" clip-rule="evenodd" d="M31.51 13.3936C31.5099 12.8374 31.0553 12.3862 30.4945 12.3861C29.9339 12.386 29.4792 12.837 29.4793 13.3933C29.4794 13.9496 29.9342 14.401 30.4948 14.401C31.0557 14.4011 31.5101 13.9499 31.51 13.3936Z" fill="black"/>
<path fill-rule="evenodd" clip-rule="evenodd" d="M29.1678 17.536C29.1677 16.5883 28.4003 15.8197 27.4536 15.8195C26.5073 15.8194 25.7398 16.5877 25.74 17.5354C25.7401 18.4831 26.5078 19.2521 27.4542 19.2522C28.4009 19.2524 29.168 18.4836 29.1678 17.536Z" fill="black"/>
<path fill-rule="evenodd" clip-rule="evenodd" d="M25.6612 12.6216C26.345 11.6854 27.4531 10.6765 28.2866 10.4807C27.6116 9.55186 26.7997 8.69925 25.8543 7.95334C23.8683 6.38651 21.5627 5.5032 19.2208 5.26981L19.4137 6.89568C19.4762 7.42206 19.1007 7.89939 18.5752 7.96169C18.0495 8.02409 17.5727 7.64794 17.5103 7.12155L17.297 5.32436C17.2929 5.2907 17.2907 5.25719 17.2902 5.22392C13.7383 5.4074 10.2811 7.06638 7.90769 10.0835C6.34359 12.0718 5.46229 14.3801 5.23006 16.7252L6.85284 16.5326C7.37849 16.4702 7.85526 16.8463 7.91773 17.3727C7.98021 17.8991 7.60474 18.3764 7.0791 18.4388L5.28444 18.6518C5.251 18.6558 5.21777 18.658 5.18482 18.6585C5.36922 22.2153 7.02708 25.6777 10.0408 28.0554C10.3264 28.2807 10.6185 28.4918 10.9163 28.6888C11.2415 28.593 11.633 28.4659 12.0496 28.306C13.1864 27.8693 14.3334 27.2525 14.9342 26.4888C15.3423 25.9699 15.7295 25.0914 16.0265 24.1142C16.1945 23.5619 16.3216 23.0183 16.4056 22.5489C15.904 22.3781 15.4224 22.1205 14.9825 21.7735C12.9032 20.133 12.5451 17.1157 14.1826 15.034C15.8202 12.9524 18.8333 12.5948 20.9126 14.2352C21.6929 14.8508 22.2307 15.6602 22.5118 16.5413C22.678 16.4864 22.8586 16.4256 23.0511 16.3608L23.2958 16.2783C23.634 16.1647 24.0106 16.0392 24.3739 15.9327C24.3739 15.9327 24.6484 14.0082 25.6612 12.6216ZM13.8354 7.5122C14.347 7.37597 14.872 7.68088 15.0082 8.19312L15.8302 11.285C15.9664 11.7972 15.6621 12.3229 15.1506 12.4591C14.639 12.5954 14.114 12.2904 13.9778 11.7782L13.1558 8.68637C13.0196 8.17413 13.3239 7.64843 13.8354 7.5122ZM8.17294 12.7861C8.23541 13.3125 8.71219 13.6886 9.23783 13.6262L11.0325 13.4132C11.5581 13.3509 11.9335 12.8736 11.8711 12.3472C11.8086 11.8208 11.3318 11.4447 10.8062 11.5071L9.01153 11.7201C8.48588 11.7825 8.11039 12.2598 8.17294 12.7861ZM10.6508 18.0968C11.1373 18.306 11.7008 18.0807 11.9095 17.5936L12.6221 15.9307C12.8308 15.4437 12.6056 14.8793 12.1192 14.6701C11.6327 14.461 11.0692 14.6862 10.8605 15.1733L10.1479 16.8362C9.93918 17.3233 10.1643 17.8876 10.6508 18.0968ZM8.27605 20.3162C8.15 20.8309 8.46459 21.3507 8.97869 21.4771L10.734 21.9087C11.2481 22.0351 11.7671 21.7202 11.8931 21.2054C12.0192 20.6907 11.7046 20.1709 11.1905 20.0445L9.43519 19.6129C8.92107 19.4865 8.40211 19.8014 8.27605 20.3162ZM20.8389 12.5468C21.1466 12.1155 21.0467 11.5161 20.6159 11.2078L19.1452 10.1556C18.7144 9.84751 18.1158 9.94721 17.8082 10.3785C17.5006 10.8097 17.6004 11.4092 18.0312 11.7175L19.502 12.7697C19.9327 13.0778 20.5314 12.978 20.8389 12.5468ZM23.0955 11.5815C23.6239 11.5526 24.0289 11.1 23.9998 10.5708L23.8429 7.71358C23.8137 7.18432 23.3617 6.77868 22.8332 6.80766C22.3047 6.83653 21.8998 7.28903 21.9288 7.81836L22.0857 10.6756C22.1149 11.2049 22.5668 11.6105 23.0955 11.5815ZM12.8392 22.2122C13.349 22.07 13.8776 22.3687 14.0198 22.8793L14.5052 24.6228C14.6473 25.1334 14.3493 25.6627 13.8393 25.8048C13.3294 25.947 12.8008 25.6483 12.6587 25.1377L12.1734 23.3943C12.0311 22.8836 12.3292 22.3543 12.8392 22.2122ZM7.44976 23.4666C7.14589 23.9005 7.25094 24.4991 7.68437 24.8035L9.16427 25.843C9.59763 26.1473 10.1954 26.0423 10.4993 25.6084C10.8031 25.1745 10.6981 24.5759 10.2646 24.2715L8.78477 23.2321C8.35134 22.9277 7.75363 23.0327 7.44976 23.4666Z" fill="black"/>
</g>
<path d="M44.4878 23.875H42.8378V14.56H39.8678V13.165H47.4428V14.56H44.4878V23.875ZM50.4162 15.52C50.4162 15.77 50.4062 16.02 50.3862 16.27C50.3762 16.52 50.3612 16.725 50.3412 16.885H50.4312C50.5912 16.605 50.7862 16.375 51.0162 16.195C51.2562 16.015 51.5212 15.88 51.8112 15.79C52.1112 15.7 52.4162 15.655 52.7262 15.655C53.3162 15.655 53.8162 15.76 54.2262 15.97C54.6462 16.17 54.9612 16.49 55.1712 16.93C55.3912 17.36 55.5012 17.92 55.5012 18.61V23.875H53.8662V18.835C53.8662 18.205 53.7462 17.735 53.5062 17.425C53.2662 17.105 52.8912 16.945 52.3812 16.945C51.8912 16.945 51.5012 17.055 51.2112 17.275C50.9212 17.495 50.7162 17.82 50.5962 18.25C50.4762 18.67 50.4162 19.19 50.4162 19.81V23.875H48.7962V12.475H50.4162V15.52ZM60.7918 15.64C61.4618 15.64 62.0418 15.79 62.5318 16.09C63.0218 16.38 63.3968 16.8 63.6568 17.35C63.9268 17.9 64.0618 18.55 64.0618 19.3V20.17H58.9768C58.9968 21 59.1968 21.635 59.5768 22.075C59.9568 22.515 60.4918 22.735 61.1818 22.735C61.6718 22.735 62.1068 22.69 62.4868 22.6C62.8768 22.5 63.2718 22.355 63.6718 22.165V23.485C63.2918 23.665 62.9018 23.8 62.5018 23.89C62.1118 23.98 61.6368 24.025 61.0768 24.025C60.3468 24.025 59.6968 23.87 59.1268 23.56C58.5568 23.25 58.1118 22.79 57.7918 22.18C57.4718 21.56 57.3118 20.8 57.3118 19.9C57.3118 18.99 57.4568 18.22 57.7468 17.59C58.0368 16.96 58.4418 16.48 58.9618 16.15C59.4918 15.81 60.1018 15.64 60.7918 15.64ZM60.7918 16.87C60.2818 16.87 59.8718 17.055 59.5618 17.425C59.2518 17.795 59.0718 18.32 59.0218 19H62.4568C62.4568 18.58 62.3968 18.21 62.2768 17.89C62.1568 17.57 61.9718 17.32 61.7218 17.14C61.4818 16.96 61.1718 16.87 60.7918 16.87ZM72.7334 13.165C73.5934 13.165 74.3134 13.25 74.8934 13.42C75.4734 13.59 75.9084 13.875 76.1984 14.275C76.4884 14.665 76.6334 15.185 76.6334 15.835C76.6334 16.255 76.5634 16.63 76.4234 16.96C76.2834 17.28 76.0784 17.55 75.8084 17.77C75.5384 17.98 75.2184 18.12 74.8484 18.19V18.265C75.2284 18.335 75.5784 18.465 75.8984 18.655C76.2184 18.835 76.4684 19.1 76.6484 19.45C76.8384 19.8 76.9334 20.255 76.9334 20.815C76.9334 21.465 76.7884 22.02 76.4984 22.48C76.2084 22.93 75.7934 23.275 75.2534 23.515C74.7234 23.755 74.0884 23.875 73.3484 23.875H69.7034V13.165H72.7334ZM72.9434 17.635C73.7034 17.635 74.2234 17.5 74.5034 17.23C74.7834 16.96 74.9234 16.56 74.9234 16.03C74.9234 15.49 74.7534 15.105 74.4134 14.875C74.0734 14.645 73.5334 14.53 72.7934 14.53H71.3684V17.635H72.9434ZM71.3684 18.955V22.525H73.1084C73.8884 22.525 74.4334 22.355 74.7434 22.015C75.0534 21.675 75.2084 21.225 75.2084 20.665C75.2084 20.325 75.1384 20.025 74.9984 19.765C74.8584 19.505 74.6284 19.305 74.3084 19.165C73.9984 19.025 73.5734 18.955 73.0334 18.955H71.3684ZM85.6205 19.825C85.6205 20.495 85.5355 21.09 85.3655 21.61C85.1955 22.13 84.9505 22.57 84.6305 22.93C84.3205 23.29 83.9405 23.565 83.4905 23.755C83.0405 23.935 82.5355 24.025 81.9755 24.025C81.4655 24.025 80.9905 23.935 80.5505 23.755C80.1105 23.565 79.7305 23.29 79.4105 22.93C79.0905 22.57 78.8405 22.13 78.6605 21.61C78.4905 21.09 78.4055 20.49 78.4055 19.81C78.4055 18.92 78.5505 18.165 78.8405 17.545C79.1305 16.925 79.5455 16.455 80.0855 16.135C80.6355 15.805 81.2855 15.64 82.0355 15.64C82.7355 15.64 83.3555 15.805 83.8955 16.135C84.4355 16.455 84.8555 16.925 85.1555 17.545C85.4655 18.165 85.6205 18.925 85.6205 19.825ZM80.0855 19.825C80.0855 20.425 80.1505 20.945 80.2805 21.385C80.4205 21.815 80.6305 22.145 80.9105 22.375C81.2005 22.605 81.5655 22.72 82.0055 22.72C82.4555 22.72 82.8205 22.605 83.1005 22.375C83.3905 22.145 83.6005 21.815 83.7305 21.385C83.8705 20.945 83.9405 20.425 83.9405 19.825C83.9405 19.205 83.8705 18.685 83.7305 18.265C83.5905 17.845 83.3805 17.525 83.1005 17.305C82.8205 17.075 82.4505 16.96 81.9905 16.96C81.3205 16.96 80.8355 17.21 80.5355 17.71C80.2355 18.21 80.0855 18.915 80.0855 19.825ZM92.6131 21.595C92.6131 22.125 92.4931 22.57 92.2531 22.93C92.0131 23.29 91.6631 23.565 91.2031 23.755C90.7431 23.935 90.1781 24.025 89.5081 24.025C88.9781 24.025 88.5131 23.98 88.1131 23.89C87.7231 23.81 87.3631 23.69 87.0331 23.53V22.135C87.3831 22.305 87.7831 22.46 88.2331 22.6C88.6831 22.73 89.1131 22.795 89.5231 22.795C90.0531 22.795 90.4381 22.7 90.6781 22.51C90.9181 22.32 91.0381 22.065 91.0381 21.745C91.0381 21.565 90.9881 21.405 90.8881 21.265C90.7981 21.115 90.6231 20.965 90.3631 20.815C90.1031 20.655 89.7281 20.475 89.2381 20.275C88.7581 20.065 88.3531 19.86 88.0231 19.66C87.7031 19.45 87.4531 19.205 87.2731 18.925C87.1031 18.635 87.0181 18.265 87.0181 17.815C87.0181 17.115 87.2881 16.58 87.8281 16.21C88.3681 15.83 89.0731 15.64 89.9431 15.64C90.4231 15.64 90.8681 15.69 91.2781 15.79C91.6881 15.88 92.0881 16.02 92.4781 16.21L91.9831 17.425C91.7531 17.315 91.5181 17.225 91.2781 17.155C91.0481 17.075 90.8181 17.01 90.5881 16.96C90.3581 16.91 90.1281 16.885 89.8981 16.885C89.4681 16.885 89.1431 16.96 88.9231 17.11C88.7031 17.26 88.5931 17.47 88.5931 17.74C88.5931 17.94 88.6431 18.11 88.7431 18.25C88.8531 18.39 89.0381 18.53 89.2981 18.67C89.5681 18.81 89.9381 18.975 90.4081 19.165C90.8781 19.355 91.2781 19.55 91.6081 19.75C91.9381 19.95 92.1881 20.195 92.3581 20.485C92.5281 20.775 92.6131 21.145 92.6131 21.595ZM97.2179 22.735C97.4279 22.735 97.6329 22.715 97.8329 22.675C98.0329 22.635 98.2079 22.59 98.3579 22.54V23.74C98.1879 23.82 97.9629 23.885 97.6829 23.935C97.4129 23.995 97.1279 24.025 96.8279 24.025C96.4079 24.025 96.0229 23.95 95.6729 23.8C95.3229 23.65 95.0429 23.39 94.8329 23.02C94.6229 22.65 94.5179 22.135 94.5179 21.475V17.005H93.4829V16.285L94.5929 15.685L95.1479 13.975H96.1529V15.79H98.2979V17.005H96.1529V21.445C96.1529 21.885 96.2529 22.21 96.4529 22.42C96.6529 22.63 96.9079 22.735 97.2179 22.735ZM106.656 19.825C106.656 20.495 106.571 21.09 106.401 21.61C106.231 22.13 105.986 22.57 105.666 22.93C105.356 23.29 104.976 23.565 104.526 23.755C104.076 23.935 103.571 24.025 103.011 24.025C102.501 24.025 102.026 23.935 101.586 23.755C101.146 23.565 100.766 23.29 100.446 22.93C100.126 22.57 99.8757 22.13 99.6957 21.61C99.5257 21.09 99.4407 20.49 99.4407 19.81C99.4407 18.92 99.5857 18.165 99.8757 17.545C100.166 16.925 100.581 16.455 101.121 16.135C101.671 15.805 102.321 15.64 103.071 15.64C103.771 15.64 104.391 15.805 104.931 16.135C105.471 16.455 105.891 16.925 106.191 17.545C106.501 18.165 106.656 18.925 106.656 19.825ZM101.121 19.825C101.121 20.425 101.186 20.945 101.316 21.385C101.456 21.815 101.666 22.145 101.946 22.375C102.236 22.605 102.601 22.72 103.041 22.72C103.491 22.72 103.856 22.605 104.136 22.375C104.426 22.145 104.636 21.815 104.766 21.385C104.906 20.945 104.976 20.425 104.976 19.825C104.976 19.205 104.906 18.685 104.766 18.265C104.626 17.845 104.416 17.525 104.136 17.305C103.856 17.075 103.486 16.96 103.026 16.96C102.356 16.96 101.871 17.21 101.571 17.71C101.271 18.21 101.121 18.915 101.121 19.825ZM112.463 15.64C113.343 15.64 114.018 15.875 114.488 16.345C114.968 16.815 115.208 17.57 115.208 18.61V23.875H113.588V18.835C113.588 18.205 113.463 17.735 113.213 17.425C112.973 17.105 112.598 16.945 112.088 16.945C111.338 16.945 110.823 17.19 110.543 17.68C110.263 18.17 110.123 18.875 110.123 19.795V23.875H108.503V15.79H109.778L110.003 16.87H110.093C110.263 16.59 110.468 16.36 110.708 16.18C110.948 16 111.218 15.865 111.518 15.775C111.818 15.685 112.133 15.64 112.463 15.64ZM125.856 14.905C125.426 14.905 125.041 14.99 124.701 15.16C124.371 15.33 124.091 15.575 123.861 15.895C123.631 16.205 123.456 16.585 123.336 17.035C123.226 17.485 123.171 17.99 123.171 18.55C123.171 19.31 123.261 19.96 123.441 20.5C123.631 21.03 123.926 21.435 124.326 21.715C124.726 21.995 125.236 22.135 125.856 22.135C126.296 22.135 126.731 22.085 127.161 21.985C127.601 21.885 128.076 21.745 128.586 21.565V23.47C128.116 23.66 127.651 23.8 127.191 23.89C126.731 23.98 126.216 24.025 125.646 24.025C124.546 24.025 123.636 23.8 122.916 23.35C122.206 22.89 121.681 22.25 121.341 21.43C121.001 20.6 120.831 19.635 120.831 18.535C120.831 17.725 120.941 16.985 121.161 16.315C121.381 15.635 121.701 15.05 122.121 14.56C122.551 14.07 123.076 13.69 123.696 13.42C124.326 13.15 125.046 13.015 125.856 13.015C126.386 13.015 126.916 13.085 127.446 13.225C127.986 13.355 128.501 13.535 128.991 13.765L128.256 15.61C127.856 15.42 127.451 15.255 127.041 15.115C126.641 14.975 126.246 14.905 125.856 14.905ZM135.257 15.535C135.367 15.535 135.497 15.54 135.647 15.55C135.797 15.56 135.917 15.575 136.007 15.595L135.842 17.695C135.772 17.675 135.667 17.66 135.527 17.65C135.397 17.63 135.282 17.62 135.182 17.62C134.892 17.62 134.612 17.66 134.342 17.74C134.072 17.81 133.827 17.925 133.607 18.085C133.397 18.245 133.227 18.46 133.097 18.73C132.977 18.99 132.917 19.315 132.917 19.705V23.875H130.682V15.685H132.377L132.707 17.065H132.812C132.972 16.785 133.172 16.53 133.412 16.3C133.652 16.07 133.927 15.885 134.237 15.745C134.557 15.605 134.897 15.535 135.257 15.535ZM140.56 15.52C141.66 15.52 142.5 15.76 143.08 16.24C143.67 16.71 143.965 17.435 143.965 18.415V23.875H142.405L141.97 22.765H141.91C141.68 23.055 141.44 23.295 141.19 23.485C140.95 23.675 140.67 23.81 140.35 23.89C140.04 23.98 139.655 24.025 139.195 24.025C138.715 24.025 138.28 23.935 137.89 23.755C137.51 23.565 137.21 23.28 136.99 22.9C136.77 22.51 136.66 22.02 136.66 21.43C136.66 20.56 136.965 19.92 137.575 19.51C138.185 19.09 139.1 18.86 140.32 18.82L141.745 18.775V18.415C141.745 17.985 141.63 17.67 141.4 17.47C141.18 17.27 140.87 17.17 140.47 17.17C140.07 17.17 139.68 17.23 139.3 17.35C138.92 17.46 138.54 17.6 138.16 17.77L137.425 16.255C137.865 16.025 138.35 15.845 138.88 15.715C139.42 15.585 139.98 15.52 140.56 15.52ZM140.875 20.11C140.155 20.13 139.655 20.26 139.375 20.5C139.095 20.74 138.955 21.055 138.955 21.445C138.955 21.785 139.055 22.03 139.255 22.18C139.455 22.32 139.715 22.39 140.035 22.39C140.515 22.39 140.92 22.25 141.25 21.97C141.58 21.68 141.745 21.275 141.745 20.755V20.08L140.875 20.11ZM148.203 23.875L145.083 15.685H147.423L148.998 20.35C149.058 20.53 149.108 20.72 149.148 20.92C149.198 21.12 149.233 21.315 149.253 21.505C149.283 21.695 149.303 21.87 149.313 22.03H149.373C149.383 21.86 149.403 21.68 149.433 21.49C149.463 21.3 149.498 21.11 149.538 20.92C149.588 20.72 149.643 20.53 149.703 20.35L151.278 15.685H153.618L150.498 23.875H148.203ZM157.028 15.685V23.875H154.793V15.685H157.028ZM155.918 12.475C156.248 12.475 156.533 12.555 156.773 12.715C157.013 12.865 157.133 13.15 157.133 13.57C157.133 13.98 157.013 14.265 156.773 14.425C156.533 14.585 156.248 14.665 155.918 14.665C155.578 14.665 155.288 14.585 155.048 14.425C154.818 14.265 154.703 13.98 154.703 13.57C154.703 13.15 154.818 12.865 155.048 12.715C155.288 12.555 155.578 12.475 155.918 12.475ZM164.013 15.535C164.893 15.535 165.598 15.775 166.128 16.255C166.658 16.725 166.923 17.485 166.923 18.535V23.875H164.688V19.09C164.688 18.5 164.583 18.06 164.373 17.77C164.163 17.47 163.828 17.32 163.368 17.32C162.688 17.32 162.223 17.555 161.973 18.025C161.723 18.485 161.598 19.15 161.598 20.02V23.875H159.363V15.685H161.073L161.373 16.735H161.493C161.673 16.455 161.893 16.23 162.153 16.06C162.413 15.88 162.703 15.75 163.023 15.67C163.343 15.58 163.673 15.535 164.013 15.535ZM171.877 15.535C172.377 15.535 172.827 15.635 173.227 15.835C173.627 16.035 173.967 16.335 174.247 16.735H174.307L174.487 15.685H176.377V23.89C176.377 24.67 176.222 25.325 175.912 25.855C175.612 26.385 175.157 26.785 174.547 27.055C173.937 27.335 173.182 27.475 172.282 27.475C171.702 27.475 171.162 27.44 170.662 27.37C170.172 27.3 169.692 27.175 169.222 26.995V25.21C169.562 25.35 169.902 25.465 170.242 25.555C170.592 25.655 170.947 25.725 171.307 25.765C171.677 25.815 172.047 25.84 172.417 25.84C172.997 25.84 173.427 25.685 173.707 25.375C173.997 25.065 174.142 24.6 174.142 23.98V23.815C174.142 23.645 174.147 23.47 174.157 23.29C174.177 23.11 174.192 22.95 174.202 22.81H174.142C173.862 23.24 173.527 23.55 173.137 23.74C172.747 23.93 172.307 24.025 171.817 24.025C170.847 24.025 170.087 23.655 169.537 22.915C168.997 22.165 168.727 21.125 168.727 19.795C168.727 18.895 168.852 18.13 169.102 17.5C169.352 16.86 169.712 16.375 170.182 16.045C170.662 15.705 171.227 15.535 171.877 15.535ZM172.582 17.35C172.232 17.35 171.937 17.445 171.697 17.635C171.467 17.815 171.292 18.09 171.172 18.46C171.062 18.82 171.007 19.275 171.007 19.825C171.007 20.645 171.137 21.26 171.397 21.67C171.657 22.07 172.062 22.27 172.612 22.27C172.902 22.27 173.152 22.235 173.362 22.165C173.572 22.085 173.742 21.96 173.872 21.79C174.012 21.61 174.117 21.38 174.187 21.1C174.257 20.82 174.292 20.48 174.292 20.08V19.81C174.292 19.22 174.232 18.745 174.112 18.385C173.992 18.025 173.807 17.765 173.557 17.605C173.307 17.435 172.982 17.35 172.582 17.35ZM184.429 21.445C184.429 21.995 184.299 22.465 184.039 22.855C183.779 23.235 183.389 23.525 182.869 23.725C182.349 23.925 181.704 24.025 180.934 24.025C180.364 24.025 179.874 23.985 179.464 23.905C179.054 23.835 178.644 23.715 178.234 23.545V21.7C178.674 21.9 179.149 22.065 179.659 22.195C180.169 22.325 180.619 22.39 181.009 22.39C181.449 22.39 181.759 22.325 181.939 22.195C182.129 22.065 182.224 21.895 182.224 21.685C182.224 21.545 182.184 21.42 182.104 21.31C182.034 21.2 181.874 21.075 181.624 20.935C181.374 20.795 180.984 20.615 180.454 20.395C179.944 20.175 179.524 19.96 179.194 19.75C178.864 19.53 178.619 19.27 178.459 18.97C178.299 18.66 178.219 18.275 178.219 17.815C178.219 17.055 178.514 16.485 179.104 16.105C179.694 15.725 180.479 15.535 181.459 15.535C181.969 15.535 182.454 15.585 182.914 15.685C183.374 15.785 183.849 15.95 184.339 16.18L183.664 17.785C183.394 17.665 183.134 17.56 182.884 17.47C182.634 17.38 182.389 17.31 182.149 17.26C181.919 17.21 181.679 17.185 181.429 17.185C181.099 17.185 180.849 17.23 180.679 17.32C180.519 17.41 180.439 17.545 180.439 17.725C180.439 17.855 180.479 17.975 180.559 18.085C180.649 18.185 180.814 18.295 181.054 18.415C181.304 18.535 181.669 18.695 182.149 18.895C182.619 19.085 183.024 19.285 183.364 19.495C183.704 19.695 183.964 19.95 184.144 20.26C184.334 20.56 184.429 20.955 184.429 21.445Z" fill="black"/>
<defs>
<filter id="filter0_f_373_30422" x="5.44268" y="5.32696" width="27.0551" height="26.3068" filterUnits="userSpaceOnUse" color-interpolation-filters="sRGB">
<feFlood flood-opacity="0" result="BackgroundImageFix"/>
<feBlend mode="normal" in="SourceGraphic" in2="BackgroundImageFix" result="shape"/>
<feGaussianBlur stdDeviation="0.182467" result="effect1_foregroundBlur_373_30422"/>
</filter>
<clipPath id="clip0_373_30422">
<rect width="36" height="36" rx="18" fill="white"/>
</clipPath>
</defs>
</svg>
