<svg width="201" height="80" viewBox="0 0 201 80" fill="none" xmlns="http://www.w3.org/2000/svg">
<g id="Logo Full">
<rect width="200.945" height="80" rx="6" fill="#32E0FB"/>
<g id="Cravings">
<path d="M71.1441 42.3105C71.4044 42.3105 71.7121 42.3223 72.0672 42.3459C72.4222 42.3695 72.7063 42.4049 72.9193 42.4521L72.5288 47.4064C72.3631 47.3592 72.1145 47.3238 71.7832 47.3003C71.4754 47.2531 71.2032 47.2295 70.9665 47.2295C70.2801 47.2295 69.6173 47.3238 68.9782 47.5126C68.3391 47.6777 67.7592 47.949 67.2385 48.3265C66.7414 48.704 66.339 49.2112 66.0313 49.8482C65.7473 50.4616 65.6052 51.2283 65.6052 52.1484V61.9864H60.3149V42.6644H64.327L65.1082 45.9201H65.3567C65.7354 45.2595 66.2088 44.6579 66.7769 44.1153C67.345 43.5727 67.9959 43.1362 68.7297 42.8059C69.4871 42.4757 70.2919 42.3105 71.1441 42.3105Z" fill="black"/>
<path d="M83.6977 42.2751C86.3014 42.2751 88.2897 42.8413 89.6626 43.9738C91.0591 45.0826 91.7574 46.793 91.7574 49.105V61.9864H88.0648L87.0352 59.3676H86.8932C86.3487 60.0518 85.7807 60.618 85.1889 61.0663C84.6208 61.5145 83.958 61.833 83.2006 62.0218C82.4668 62.2341 81.5555 62.3403 80.4667 62.3403C79.3305 62.3403 78.3009 62.1279 77.3777 61.7033C76.4783 61.255 75.7682 60.5826 75.2474 59.6861C74.7267 58.766 74.4663 57.61 74.4663 56.2181C74.4663 54.1656 75.1882 52.6557 76.6321 51.6884C78.076 50.6975 80.2418 50.1549 83.1296 50.0605L86.5026 49.9544V49.105C86.5026 48.0906 86.2304 47.3474 85.686 46.8756C85.1652 46.4037 84.4315 46.1678 83.4846 46.1678C82.5378 46.1678 81.6147 46.3094 80.7152 46.5925C79.8158 46.852 78.9163 47.1823 78.0168 47.5834L76.2771 44.0091C77.3186 43.4665 78.4666 43.0419 79.7211 42.7352C80.9993 42.4285 82.3248 42.2751 83.6977 42.2751ZM84.4433 53.1039C82.739 53.1511 81.5555 53.4578 80.8928 54.024C80.23 54.5902 79.8986 55.3334 79.8986 56.2535C79.8986 57.0556 80.1353 57.6336 80.6087 57.9875C81.0821 58.3178 81.6975 58.4829 82.455 58.4829C83.5912 58.4829 84.5498 58.1526 85.3309 57.4921C86.112 56.8079 86.5026 55.8524 86.5026 54.6256V53.0331L84.4433 53.1039Z" fill="black"/>
<path d="M101.788 61.9864L94.4031 42.6644H99.9419L103.67 53.6701C103.812 54.0948 103.93 54.543 104.025 55.0149C104.143 55.4867 104.226 55.9468 104.274 56.395C104.345 56.8433 104.392 57.2561 104.416 57.6336H104.558C104.581 57.2325 104.629 56.8079 104.7 56.3596C104.771 55.9114 104.853 55.4631 104.948 55.0149C105.067 54.543 105.197 54.0948 105.339 53.6701L109.067 42.6644H114.606L107.22 61.9864H101.788Z" fill="black"/>
<path d="M122.677 42.6644V61.9864H117.387V42.6644H122.677ZM120.05 35.0913C120.831 35.0913 121.506 35.28 122.074 35.6575C122.642 36.0114 122.926 36.6838 122.926 37.6747C122.926 38.6419 122.642 39.3143 122.074 39.6918C121.506 40.0693 120.831 40.258 120.05 40.258C119.245 40.258 118.559 40.0693 117.991 39.6918C117.446 39.3143 117.174 38.6419 117.174 37.6747C117.174 36.6838 117.446 36.0114 117.991 35.6575C118.559 35.28 119.245 35.0913 120.05 35.0913Z" fill="black"/>
<path d="M139.212 42.3105C141.295 42.3105 142.963 42.8767 144.218 44.0091C145.472 45.118 146.1 46.911 146.1 49.3882V61.9864H140.809V50.6975C140.809 49.3056 140.561 48.2675 140.064 47.5834C139.567 46.8756 138.774 46.5217 137.685 46.5217C136.075 46.5217 134.975 47.0761 134.383 48.185C133.791 49.2702 133.495 50.8391 133.495 52.8916V61.9864H128.205V42.6644H132.253L132.963 45.1416H133.247C133.673 44.481 134.194 43.9502 134.809 43.5491C135.424 43.1244 136.111 42.8177 136.868 42.629C137.626 42.4167 138.407 42.3105 139.212 42.3105Z" fill="black"/>
<path d="M157.824 42.3105C159.008 42.3105 160.073 42.5464 161.02 43.0183C161.967 43.4901 162.771 44.1979 163.434 45.1416H163.576L164.002 42.6644H168.476V62.0218C168.476 63.8619 168.109 65.4072 167.375 66.6576C166.665 67.908 165.588 68.8517 164.144 69.4887C162.7 70.1493 160.913 70.4795 158.783 70.4795C157.41 70.4795 156.132 70.397 154.948 70.2318C153.789 70.0667 152.652 69.7718 151.54 69.3471V65.1359C152.345 65.4662 153.15 65.7375 153.954 65.9499C154.783 66.1858 155.623 66.3509 156.475 66.4453C157.351 66.5632 158.227 66.6222 159.103 66.6222C160.475 66.6222 161.493 66.2566 162.156 65.5252C162.842 64.7938 163.186 63.6968 163.186 62.2341V61.8448C163.186 61.4437 163.198 61.0309 163.221 60.6062C163.269 60.1816 163.304 59.8041 163.328 59.4738H163.186C162.523 60.4883 161.73 61.2196 160.807 61.6679C159.884 62.1161 158.842 62.3403 157.682 62.3403C155.386 62.3403 153.587 61.4673 152.286 59.7215C151.007 57.9521 150.368 55.4985 150.368 52.3608C150.368 50.2375 150.664 48.4327 151.256 46.9464C151.848 45.4365 152.7 44.2923 153.812 43.5137C154.948 42.7116 156.286 42.3105 157.824 42.3105ZM159.493 46.5925C158.665 46.5925 157.966 46.8166 157.398 47.2649C156.854 47.6895 156.44 48.3383 156.156 49.2112C155.895 50.0605 155.765 51.134 155.765 52.4315C155.765 54.3661 156.073 55.817 156.688 56.7843C157.304 57.728 158.262 58.1998 159.564 58.1998C160.251 58.1998 160.842 58.1173 161.339 57.9521C161.837 57.7634 162.239 57.4685 162.547 57.0674C162.878 56.6427 163.127 56.1001 163.292 55.4395C163.458 54.779 163.541 53.9768 163.541 53.0331V52.3962C163.541 51.0042 163.399 49.8836 163.115 49.0343C162.831 48.185 162.393 47.5716 161.801 47.1941C161.209 46.793 160.44 46.5925 159.493 46.5925Z" fill="black"/>
<path d="M187.536 56.2535C187.536 57.551 187.228 58.6599 186.613 59.58C185.997 60.4765 185.074 61.1606 183.843 61.6325C182.612 62.1043 181.086 62.3403 179.263 62.3403C177.914 62.3403 176.754 62.2459 175.783 62.0571C174.813 61.892 173.842 61.6089 172.872 61.2078V56.8551C173.913 57.3269 175.038 57.7162 176.245 58.0229C177.452 58.3296 178.517 58.4829 179.44 58.4829C180.482 58.4829 181.216 58.3296 181.642 58.0229C182.092 57.7162 182.316 57.3151 182.316 56.8197C182.316 56.4894 182.222 56.1945 182.032 55.935C181.867 55.6755 181.488 55.3806 180.896 55.0503C180.304 54.72 179.381 54.2953 178.127 53.7763C176.92 53.2573 175.925 52.75 175.144 52.2546C174.363 51.7356 173.783 51.1222 173.405 50.4144C173.026 49.6831 172.836 48.7748 172.836 47.6895C172.836 45.8965 173.535 44.5518 174.931 43.6553C176.328 42.7588 178.186 42.3105 180.506 42.3105C181.713 42.3105 182.861 42.4285 183.95 42.6644C185.038 42.9003 186.163 43.2896 187.323 43.8322L185.725 47.6187C185.086 47.3356 184.47 47.0879 183.879 46.8756C183.287 46.6633 182.707 46.4981 182.139 46.3802C181.594 46.2622 181.026 46.2032 180.435 46.2032C179.654 46.2032 179.062 46.3094 178.659 46.5217C178.281 46.734 178.091 47.0525 178.091 47.4772C178.091 47.7839 178.186 48.067 178.375 48.3265C178.588 48.5624 178.979 48.8219 179.547 49.105C180.139 49.3882 181.003 49.7656 182.139 50.2375C183.251 50.6857 184.21 51.1576 185.015 51.653C185.82 52.1248 186.435 52.7264 186.861 53.4578C187.311 54.1656 187.536 55.0975 187.536 56.2535Z" fill="black"/>
</g>
<g id="The Boston">
<path d="M70.7171 30.6823H67.4402V16.0211H62.9253V13.4082H75.2077V16.0211H70.7171V30.6823Z" fill="black"/>
<path d="M80.5973 16.6743C80.5973 17.1904 80.5731 17.6985 80.5245 18.1985C80.4922 18.6824 80.4598 19.0453 80.4274 19.2872H80.6216C80.8805 18.8356 81.188 18.4727 81.544 18.1985C81.9162 17.9082 82.3289 17.6904 82.782 17.5453C83.2513 17.4001 83.7367 17.3275 84.2384 17.3275C85.1608 17.3275 85.9537 17.4969 86.6172 17.8356C87.2807 18.1743 87.7985 18.6985 88.1707 19.4082C88.5429 20.1017 88.729 21.013 88.729 22.142V30.6823H85.5006V22.7469C85.5006 21.7469 85.3307 21.0049 84.9908 20.5211C84.651 20.0372 84.117 19.7953 83.3888 19.7953C82.693 19.7953 82.1347 19.9727 81.7139 20.3275C81.2932 20.6662 81.0019 21.1743 80.8401 21.8517C80.6783 22.513 80.5973 23.3275 80.5973 24.2952V30.6823H77.369V12.2953H80.5973V16.6743Z" fill="black"/>
<path d="M97.3309 17.3275C98.4637 17.3275 99.4346 17.5695 100.244 18.0533C101.069 18.5211 101.708 19.1985 102.161 20.0856C102.614 20.9566 102.841 22.0211 102.841 23.2791V24.8275H94.7822C94.8145 26.021 95.1058 26.9485 95.656 27.6098C96.2224 28.2549 97.0153 28.5775 98.0348 28.5775C98.8439 28.5775 99.5641 28.4968 100.195 28.3356C100.826 28.1581 101.482 27.9081 102.161 27.5856V30.0291C101.546 30.3356 100.907 30.5614 100.244 30.7065C99.5802 30.8517 98.763 30.9243 97.7921 30.9243C96.5622 30.9243 95.4699 30.6823 94.5152 30.1985C93.5766 29.6985 92.8403 28.9485 92.3063 27.9485C91.7723 26.9485 91.5053 25.7065 91.5053 24.2227C91.5053 22.7227 91.748 21.4646 92.2335 20.4485C92.7189 19.4162 93.3986 18.642 94.2724 18.1259C95.1625 17.5937 96.1819 17.3275 97.3309 17.3275ZM97.3794 19.5775C96.6512 19.5775 96.0606 19.8437 95.6075 20.3759C95.1705 20.892 94.9116 21.6662 94.8307 22.6985H99.7825C99.7825 22.0856 99.6935 21.5453 99.5155 21.0775C99.3375 20.6098 99.0705 20.2469 98.7145 19.9888C98.3746 19.7146 97.9296 19.5775 97.3794 19.5775Z" fill="black"/>
<path d="M116.916 13.4082C118.372 13.4082 119.578 13.5533 120.533 13.8437C121.488 14.1179 122.191 14.5695 122.645 15.1985C123.114 15.8275 123.348 16.6743 123.348 17.7388C123.348 18.4001 123.235 18.9969 123.009 19.5291C122.782 20.0614 122.458 20.4969 122.038 20.8356C121.633 21.1743 121.164 21.4001 120.63 21.513V21.634C121.18 21.7469 121.698 21.9565 122.183 22.263C122.669 22.5533 123.057 22.9807 123.348 23.5453C123.64 24.0936 123.785 24.8194 123.785 25.7227C123.785 26.771 123.543 27.6662 123.057 28.4081C122.588 29.1501 121.908 29.7146 121.018 30.1017C120.128 30.4888 119.068 30.6823 117.838 30.6823H111.819V13.4082H116.916ZM117.207 20.4485C118.259 20.4485 118.987 20.2549 119.392 19.8678C119.796 19.4807 119.999 18.9082 119.999 18.1501C119.999 17.3759 119.756 16.8195 119.271 16.4808C118.801 16.142 118.049 15.9727 117.013 15.9727H115.071V20.4485H117.207ZM115.071 22.9404V28.0936H117.45C118.55 28.0936 119.311 27.8517 119.732 27.3678C120.169 26.8839 120.387 26.2388 120.387 25.4323C120.387 24.9162 120.29 24.4727 120.096 24.1017C119.918 23.7307 119.61 23.4485 119.173 23.2549C118.737 23.0453 118.13 22.9404 117.353 22.9404H115.071Z" fill="black"/>
<path d="M138.01 24.1017C138.01 25.1985 137.872 26.1662 137.597 27.0049C137.322 27.8436 136.917 28.5614 136.383 29.1581C135.866 29.7388 135.234 30.1823 134.49 30.4888C133.746 30.7791 132.912 30.9243 131.99 30.9243C131.132 30.9243 130.331 30.7791 129.587 30.4888C128.859 30.1823 128.227 29.7388 127.693 29.1581C127.176 28.5614 126.771 27.8436 126.48 27.0049C126.188 26.1662 126.043 25.1985 126.043 24.1017C126.043 22.6501 126.277 21.4243 126.747 20.4243C127.232 19.4082 127.928 18.642 128.834 18.1259C129.74 17.5937 130.817 17.3275 132.063 17.3275C133.228 17.3275 134.255 17.5937 135.145 18.1259C136.035 18.642 136.731 19.4082 137.233 20.4243C137.751 21.4243 138.01 22.6501 138.01 24.1017ZM129.32 24.1017C129.32 25.0211 129.417 25.8114 129.611 26.4727C129.805 27.1178 130.097 27.6098 130.485 27.9485C130.889 28.2872 131.407 28.4565 132.038 28.4565C132.67 28.4565 133.179 28.2872 133.568 27.9485C133.972 27.6098 134.263 27.1178 134.441 26.4727C134.636 25.8114 134.733 25.0211 134.733 24.1017C134.733 23.1662 134.636 22.384 134.441 21.7549C134.247 21.1098 133.948 20.6259 133.543 20.3033C133.155 19.9646 132.645 19.7953 132.014 19.7953C131.059 19.7953 130.372 20.1662 129.951 20.9082C129.53 21.6501 129.32 22.7146 129.32 24.1017Z" fill="black"/>
<path d="M149.492 26.8839C149.492 27.7549 149.298 28.4968 148.909 29.1097C148.521 29.7065 147.946 30.1581 147.186 30.4646C146.425 30.771 145.47 30.9243 144.322 30.9243C143.448 30.9243 142.687 30.8597 142.04 30.7307C141.393 30.6017 140.77 30.4001 140.171 30.1259V27.5372C140.818 27.8436 141.514 28.1017 142.258 28.3114C143.019 28.521 143.707 28.6259 144.322 28.6259C145.05 28.6259 145.576 28.4968 145.899 28.2388C146.223 27.9807 146.385 27.6339 146.385 27.1985C146.385 26.9404 146.312 26.7065 146.166 26.4969C146.037 26.2872 145.762 26.0694 145.341 25.8436C144.936 25.6017 144.346 25.3033 143.569 24.9485C142.808 24.6098 142.177 24.2711 141.676 23.9323C141.174 23.5936 140.794 23.1904 140.535 22.7227C140.276 22.2388 140.146 21.634 140.146 20.9082C140.146 19.7307 140.592 18.8437 141.482 18.2469C142.388 17.634 143.569 17.3275 145.025 17.3275C145.818 17.3275 146.555 17.4082 147.234 17.5695C147.93 17.7146 148.626 17.9566 149.322 18.2953L148.375 20.5453C147.987 20.3678 147.59 20.2146 147.186 20.0856C146.797 19.9404 146.417 19.8275 146.045 19.7469C145.689 19.6662 145.333 19.6259 144.977 19.6259C144.411 19.6259 143.982 19.7307 143.69 19.9404C143.399 20.134 143.254 20.4162 143.254 20.7872C143.254 21.0453 143.326 21.2791 143.472 21.4888C143.618 21.6824 143.893 21.884 144.297 22.0936C144.702 22.3033 145.276 22.5694 146.021 22.892C146.765 23.1823 147.396 23.4969 147.914 23.8356C148.432 24.1582 148.82 24.5614 149.079 25.0452C149.354 25.5291 149.492 26.142 149.492 26.8839Z" fill="black"/>
<path d="M157.327 28.4807C157.683 28.4807 158.022 28.4485 158.346 28.3839C158.686 28.3033 159.002 28.2146 159.293 28.1178V30.392C158.953 30.5372 158.54 30.6581 158.055 30.7549C157.569 30.8678 157.027 30.9243 156.429 30.9243C155.684 30.9243 155.021 30.8033 154.438 30.5614C153.856 30.3033 153.394 29.8678 153.054 29.2549C152.731 28.642 152.569 27.7872 152.569 26.6904V19.8678H150.918V18.5372L152.763 17.4727L153.734 14.6904H155.773V17.5695H159.171V19.8678H155.773V26.6662C155.773 27.2791 155.911 27.7388 156.186 28.0452C156.477 28.3356 156.857 28.4807 157.327 28.4807Z" fill="black"/>
<path d="M172.998 24.1017C172.998 25.1985 172.86 26.1662 172.585 27.0049C172.31 27.8436 171.905 28.5614 171.371 29.1581C170.853 29.7388 170.222 30.1823 169.478 30.4888C168.734 30.7791 167.9 30.9243 166.978 30.9243C166.12 30.9243 165.319 30.7791 164.575 30.4888C163.847 30.1823 163.215 29.7388 162.681 29.1581C162.164 28.5614 161.759 27.8436 161.468 27.0049C161.176 26.1662 161.031 25.1985 161.031 24.1017C161.031 22.6501 161.265 21.4243 161.735 20.4243C162.22 19.4082 162.916 18.642 163.822 18.1259C164.728 17.5937 165.805 17.3275 167.051 17.3275C168.216 17.3275 169.243 17.5937 170.133 18.1259C171.023 18.642 171.719 19.4082 172.221 20.4243C172.739 21.4243 172.998 22.6501 172.998 24.1017ZM164.308 24.1017C164.308 25.0211 164.405 25.8114 164.599 26.4727C164.793 27.1178 165.084 27.6098 165.473 27.9485C165.877 28.2872 166.395 28.4565 167.026 28.4565C167.657 28.4565 168.167 28.2872 168.556 27.9485C168.96 27.6098 169.251 27.1178 169.429 26.4727C169.624 25.8114 169.721 25.0211 169.721 24.1017C169.721 23.1662 169.624 22.384 169.429 21.7549C169.235 21.1098 168.936 20.6259 168.531 20.3033C168.143 19.9646 167.633 19.7953 167.002 19.7953C166.047 19.7953 165.36 20.1662 164.939 20.9082C164.518 21.6501 164.308 22.7146 164.308 24.1017Z" fill="black"/>
<path d="M182.732 17.3275C184.108 17.3275 185.192 17.7066 185.985 18.4646C186.778 19.2227 187.174 20.4485 187.174 22.142V30.6823H183.946V22.7469C183.946 21.763 183.776 21.0291 183.436 20.5453C183.096 20.0453 182.562 19.7953 181.834 19.7953C180.75 19.7953 180.013 20.1824 179.625 20.9565C179.237 21.7146 179.042 22.8194 179.042 24.2711V30.6823H175.814V17.5695H178.29L178.751 19.2872H178.873C179.164 18.8356 179.504 18.4646 179.892 18.1743C180.28 17.884 180.717 17.6743 181.203 17.5453C181.688 17.4001 182.198 17.3275 182.732 17.3275Z" fill="black"/>
</g>
<g id="donut">
<g id="Group" opacity="0.2" filter="url(#filter0_f_53_2698)">
<path id="Vector" d="M55.4099 56.4969C53.9409 55.9153 52.7637 54.3516 52.8215 52.4836C52.866 51.0497 53.4997 49.8004 54.4328 49.063C54.5554 48.9659 54.6262 48.8154 54.6078 48.6608C54.5834 48.4552 54.4119 48.2984 54.2041 48.2922L53.8335 48.281C51.4178 48.2085 49.5285 45.8153 49.5915 42.9226C49.2024 43.0452 48.7782 43.1846 48.3291 43.335L47.8549 43.4946C47.2868 43.6863 46.6907 43.8871 46.1397 44.0579C45.9764 45.6625 45.3681 47.2417 44.2923 48.6027C42.7018 50.6147 40.4072 51.7481 38.0328 51.9285C37.8486 52.998 37.5661 54.1969 37.2049 55.3781C36.6155 57.3042 35.7487 59.4108 34.5901 60.8766C33.0901 62.7742 30.7191 64.0847 28.683 64.9477C38.0976 68.6782 49.2318 66.0008 55.8262 57.6584C56.1366 57.2658 55.8758 56.6813 55.4099 56.4969Z" fill="black"/>
<path id="Vector_2" fill-rule="evenodd" clip-rule="evenodd" d="M62.3106 34.725C62.311 33.7069 61.4755 32.8817 60.4442 32.882C59.4133 32.8824 58.5768 33.7084 58.5764 34.7265C58.576 35.7446 59.4119 36.5702 60.4428 36.5698C61.4741 36.5694 62.3102 35.7431 62.3106 34.725Z" fill="black"/>
<path id="Vector_3" fill-rule="evenodd" clip-rule="evenodd" d="M58.001 42.3073C58.0017 40.5728 56.5913 39.1668 54.8505 39.1675C53.1103 39.1682 51.6982 40.5753 51.6975 42.3097C51.6968 44.0442 53.1078 45.4509 54.848 45.4502C56.5889 45.4495 58.0003 44.0418 58.001 42.3073Z" fill="black"/>
<path id="Vector_4" fill-rule="evenodd" clip-rule="evenodd" d="M51.5522 33.3018C52.8107 31.5872 54.8494 29.7393 56.3824 29.3801C55.1421 27.6805 53.6499 26.1206 51.912 24.7561C48.2615 21.8899 44.0226 20.2753 39.7162 19.8505L40.0693 22.8265C40.1837 23.79 39.4927 24.6641 38.5261 24.7787C37.5595 24.8935 36.6831 24.2054 36.5687 23.2419L36.1783 19.9523C36.1708 19.8907 36.1668 19.8293 36.166 19.7684C29.6339 20.1079 23.2748 23.1482 18.9071 28.6736C16.0288 32.3148 14.4058 36.5412 13.9764 40.8342L16.9608 40.48C17.9275 40.3652 18.8038 41.0533 18.9182 42.0168C19.0326 42.9803 18.3416 43.8544 17.3749 43.9692L14.0744 44.3609C14.0129 44.3682 13.9518 44.3723 13.8912 44.3732C14.2267 50.884 17.2719 57.2204 22.8117 61.5698C23.3365 61.9819 23.8735 62.3681 24.4209 62.7285C25.019 62.5527 25.7392 62.3196 26.5053 62.0265C28.5964 61.226 30.7063 60.0957 31.8118 58.6972C32.5629 57.747 33.2758 56.1384 33.8229 54.3493C34.1324 53.3381 34.3667 52.3428 34.5216 51.4836C33.5994 51.1713 32.714 50.7003 31.9055 50.0655C28.0834 47.0647 27.4279 41.5416 30.4413 37.7294C33.4548 33.9172 38.9961 33.2595 42.8182 36.2604C44.2525 37.3865 45.2408 38.8676 45.7567 40.4802C46.0623 40.3795 46.3945 40.2681 46.7487 40.1491L47.1987 39.998C47.8207 39.7896 48.5135 39.5594 49.1817 39.3641C49.1817 39.3641 49.6883 35.841 51.5522 33.3018ZM29.8105 23.9607C30.7514 23.7108 31.7165 24.2684 31.9665 25.206L33.4749 30.8649C33.7249 31.8024 33.1648 32.7651 32.224 33.015C31.2831 33.2649 30.3179 32.7072 30.068 31.7697L28.5596 26.1108C28.3096 25.1732 28.8697 24.2106 29.8105 23.9607ZM19.3922 33.6206C19.5065 34.5841 20.3829 35.2722 21.3496 35.1574L24.6501 34.7656C25.6166 34.6511 26.3076 33.7769 26.1933 32.8134C26.0789 31.8499 25.2025 31.1618 24.2358 31.2766L20.9354 31.6683C19.9687 31.7831 19.2777 32.6572 19.3922 33.6206ZM23.9434 43.3396C24.8378 43.7219 25.8743 43.309 26.2586 42.4172L27.5707 39.3724C27.9551 38.4806 27.5415 37.4478 26.6472 37.0654C25.7528 36.683 24.7163 37.0958 24.332 37.9876L23.0199 41.0325C22.6356 41.9242 23.0491 42.9572 23.9434 43.3396ZM19.5742 47.4046C19.3418 48.347 19.9198 49.2982 20.8651 49.5291L24.0926 50.3173C25.0379 50.5481 25.9925 49.9713 26.2248 49.0288C26.4572 48.0864 25.8792 47.1352 24.9339 46.9043L21.7064 46.1161C20.7611 45.8853 19.8065 46.4621 19.5742 47.4046ZM42.6844 33.1696C43.2507 32.3798 43.0676 31.2827 42.2757 30.7188L39.5722 28.7943C38.7802 28.2307 37.6795 28.4138 37.1133 29.2036C36.5472 29.9933 36.7302 31.0906 37.5219 31.6544L40.2256 33.5791C41.0175 34.1426 42.1185 33.9594 42.6844 33.1696ZM46.8351 31.4005C47.8069 31.347 48.5521 30.5181 48.499 29.5493L48.2135 24.3192C48.1604 23.3504 47.3296 22.6083 46.3575 22.6619C45.3856 22.7153 44.6406 23.544 44.6935 24.513L44.9791 29.7431C45.0322 30.7119 45.8629 31.454 46.8351 31.4005ZM27.9635 50.8708C28.9013 50.6099 29.8731 51.1562 30.1339 52.0907L31.0248 55.2818C31.2857 56.2163 30.737 57.1855 29.7991 57.4462C28.8613 57.707 27.8895 57.1608 27.6287 56.2262L26.738 53.0353C26.477 52.1006 27.0256 51.1315 27.9635 50.8708ZM18.0515 53.1725C17.4922 53.9671 17.6848 55.0627 18.4815 55.6195L21.2019 57.5207C21.9986 58.0775 23.0978 57.8847 23.6571 57.0901C24.2163 56.2954 24.0238 55.1999 23.227 54.643L20.5067 52.7419C19.71 52.185 18.6107 52.3778 18.0515 53.1725Z" fill="black"/>
</g>
<g id="Group_2">
<path id="Vector_5" d="M54.2634 55.6399C52.7944 55.0584 51.6173 53.4946 51.675 51.6267C51.7195 50.1928 52.3532 48.9435 53.2864 48.2061C53.4089 48.109 53.4797 47.9585 53.4614 47.8039C53.437 47.5983 53.2654 47.4415 53.0577 47.4353L52.687 47.4241C50.2713 47.3515 48.382 44.9584 48.445 42.0657C48.0559 42.1883 47.6317 42.3277 47.1826 42.4781L46.7084 42.6376C46.1403 42.8293 45.5443 43.0302 44.9932 43.201C44.8299 44.8056 44.2216 46.3848 43.1458 47.7458C41.5553 49.7578 39.2607 50.8911 36.8863 51.0716C36.7022 52.1411 36.4196 53.34 36.0584 54.5212C35.469 56.4472 34.6022 58.5539 33.4436 60.0196C31.9436 61.9172 29.5726 63.2278 27.5365 64.0908C36.9511 67.8213 48.0853 65.1439 54.6798 56.8014C54.9901 56.4088 54.7293 55.8243 54.2634 55.6399Z" fill="black"/>
<path id="Vector_6" fill-rule="evenodd" clip-rule="evenodd" d="M61.1641 33.8681C61.1645 32.85 60.329 32.0247 59.2977 32.0251C58.2668 32.0255 57.4303 32.8514 57.4299 33.8695C57.4295 34.8876 58.2654 35.7133 59.2963 35.7129C60.3276 35.7125 61.1638 34.8862 61.1641 33.8681Z" fill="black"/>
<path id="Vector_7" fill-rule="evenodd" clip-rule="evenodd" d="M56.8545 41.4504C56.8552 39.7159 55.4448 38.3099 53.704 38.3106C51.9638 38.3112 50.5517 39.7183 50.551 41.4528C50.5504 43.1873 51.9614 44.5939 53.7015 44.5933C55.4424 44.5926 56.8538 43.1848 56.8545 41.4504Z" fill="black"/>
<path id="Vector_8" fill-rule="evenodd" clip-rule="evenodd" d="M50.4057 32.4448C51.6642 30.7303 53.7029 28.8824 55.2359 28.5231C53.9956 26.8236 52.5034 25.2636 50.7655 23.8992C47.115 21.033 42.8761 19.4184 38.5697 18.9935L38.9229 21.9696C39.0372 22.9331 38.3462 23.8072 37.3797 23.9218C36.413 24.0365 35.5366 23.3485 35.4222 22.385L35.0318 19.0953C35.0244 19.0337 35.0203 18.9724 35.0195 18.9115C28.4875 19.2509 22.1283 22.2913 17.7606 27.8166C14.8823 31.4579 13.2593 35.6842 12.8299 39.9773L15.8143 39.6231C16.781 39.5083 17.6574 40.1964 17.7717 41.1599C17.8861 42.1234 17.1951 42.9975 16.2284 43.1122L12.9279 43.504C12.8665 43.5113 12.8053 43.5153 12.7447 43.5163C13.0802 50.0271 16.1254 56.3635 21.6652 60.7129C22.19 61.125 22.727 61.5111 23.2745 61.8715C23.8725 61.6957 24.5927 61.4627 25.3588 61.1696C27.4499 60.3691 29.5598 59.2388 30.6653 57.8402C31.4164 56.89 32.1293 55.2814 32.6764 53.4924C32.9859 52.4812 33.2203 51.4859 33.3752 50.6266C32.4529 50.3144 31.5675 49.8434 30.759 49.2086C26.9369 46.2078 26.2814 40.6847 29.2948 36.8725C32.3083 33.0603 37.8496 32.4026 41.6717 35.4034C43.106 36.5296 44.0943 38.0107 44.6102 39.6233C44.9158 39.5226 45.248 39.4111 45.6022 39.2922L46.0522 39.141C46.6742 38.9327 47.367 38.7025 48.0352 38.5072C48.0352 38.5072 48.5419 34.9841 50.4057 32.4448ZM28.664 23.1038C29.6049 22.8539 30.5701 23.4115 30.82 24.3491L32.3284 30.008C32.5784 30.9455 32.0183 31.9081 31.0775 32.158C30.1366 32.4079 29.1715 31.8503 28.9215 30.9127L27.4131 25.2538C27.1631 24.3163 27.7232 23.3537 28.664 23.1038ZM18.2457 32.7636C18.36 33.7271 19.2364 34.4152 20.2031 34.3005L23.5036 33.9087C24.4701 33.7941 25.1611 32.92 25.0468 31.9565C24.9324 30.993 24.0561 30.3049 23.0894 30.4197L19.7889 30.8114C18.8222 30.9262 18.1312 31.8003 18.2457 32.7636ZM22.7969 42.4826C23.6913 42.865 24.7279 42.4521 25.1122 41.5603L26.4243 38.5155C26.8086 37.6237 26.395 36.5908 25.5007 36.2084C24.6063 35.826 23.5698 36.2389 23.1855 37.1307L21.8734 40.1755C21.4891 41.0673 21.9026 42.1002 22.7969 42.4826ZM18.4277 46.5477C18.1953 47.4901 18.7733 48.4413 19.7186 48.6721L22.9461 49.4603C23.8914 49.6912 24.846 49.1143 25.0784 48.1719C25.3107 47.2294 24.7327 46.2783 23.7874 46.0474L20.56 45.2592C19.6147 45.0283 18.66 45.6052 18.4277 46.5477ZM41.538 32.3127C42.1042 31.5229 41.9211 30.4258 41.1293 29.8619L38.4257 27.9373C37.6338 27.3737 36.533 27.5568 35.9668 28.3467C35.4007 29.1364 35.5837 30.2337 36.3755 30.7975L39.0792 32.7221C39.871 33.2857 40.972 33.1024 41.538 32.3127ZM45.6886 30.5435C46.6604 30.4901 47.4056 29.6612 47.3526 28.6924L47.067 23.4623C47.0139 22.4935 46.1831 21.7514 45.2111 21.805C44.2391 21.8584 43.4941 22.6871 43.547 23.656L43.8326 28.8862C43.8857 29.855 44.7165 30.597 45.6886 30.5435ZM26.8171 50.0139C27.7548 49.753 28.7266 50.2993 28.9874 51.2338L29.8784 54.4249C30.1392 55.3594 29.5905 56.3285 28.6526 56.5892C27.7149 56.8501 26.7431 56.3038 26.4822 55.3693L25.5915 52.1784C25.3305 51.2437 25.8791 50.2746 26.8171 50.0139ZM16.905 52.3155C16.3457 53.1102 16.5383 54.2058 17.3351 54.7626L20.0555 56.6638C20.8521 57.2205 21.9514 57.0278 22.5107 56.2332C23.0698 55.4385 22.8773 54.3429 22.0805 53.7861L19.3602 51.8849C18.5635 51.3281 17.4642 51.5209 16.905 52.3155Z" fill="black"/>
</g>
</g>
</g>
<defs>
<filter id="filter0_f_53_2698" x="7.82025" y="13.6976" width="60.5612" height="58.9686" filterUnits="userSpaceOnUse" color-interpolation-filters="sRGB">
<feFlood flood-opacity="0" result="BackgroundImageFix"/>
<feBlend mode="normal" in="SourceGraphic" in2="BackgroundImageFix" result="shape"/>
<feGaussianBlur stdDeviation="3.03543" result="effect1_foregroundBlur_53_2698"/>
</filter>
</defs>
</svg>
