<svg width="201" height="80" viewBox="0 0 201 80" fill="none" xmlns="http://www.w3.org/2000/svg">
<g clip-path="url(#clip0_373_30540)">
<rect y="3.55566" width="56.8889" height="56.8889" rx="28.4444" fill="#32E0FB"/>
<g opacity="0.2" filter="url(#filter0_f_373_30540)">
<path d="M44.8509 44.2587C43.5882 43.7559 42.5759 42.4054 42.6246 40.7928C42.6622 39.555 43.2062 38.4768 44.0077 37.8406C44.113 37.7569 44.1738 37.627 44.1579 37.4935C44.1369 37.316 43.9893 37.1806 43.8108 37.1751L43.4923 37.1653C41.4163 37.1015 39.7917 35.0346 39.8444 32.5374C39.5101 32.6431 39.1456 32.7632 38.7598 32.8928L38.3523 33.0303C37.8642 33.1956 37.3521 33.3687 36.8786 33.5159C36.7391 34.901 36.2171 36.264 35.2932 37.4384C33.9274 39.1746 31.956 40.152 29.9157 40.3066C29.758 41.2298 29.5157 42.2647 29.2059 43.2842C28.7003 44.9467 27.9564 46.7649 26.9615 48.0297C25.6734 49.6672 23.6364 50.7975 21.8871 51.5415C29.9794 54.7665 39.5462 52.4604 45.2092 45.2616C45.4757 44.9228 45.2513 44.4181 44.8509 44.2587Z" fill="black"/>
<path fill-rule="evenodd" clip-rule="evenodd" d="M50.7781 25.4606C50.7779 24.5815 50.0596 23.8686 49.1733 23.8684C48.2874 23.8683 47.5689 24.581 47.5691 25.46C47.5692 26.3391 48.2879 27.0524 49.1738 27.0525C50.0601 27.0527 50.7782 26.3396 50.7781 25.4606Z" fill="black"/>
<path fill-rule="evenodd" clip-rule="evenodd" d="M47.0756 32.0066C47.0754 30.509 45.8627 29.2944 44.3667 29.2942C42.8713 29.2939 41.6585 30.5081 41.6587 32.0057C41.659 33.5033 42.8722 34.7185 44.3676 34.7187C45.8636 34.719 47.0759 33.5041 47.0756 32.0066Z" fill="black"/>
<path fill-rule="evenodd" clip-rule="evenodd" d="M41.5358 24.2408C42.6164 22.7613 44.3674 21.167 45.6846 20.8576C44.618 19.3898 43.335 18.0425 41.8409 16.8638C38.7026 14.3878 35.0592 12.9919 31.3584 12.6231L31.6633 15.1924C31.762 16.0242 31.1687 16.7785 30.3381 16.877C29.5075 16.9756 28.7541 16.3812 28.6553 15.5493L28.3182 12.7093C28.3118 12.6561 28.3083 12.6032 28.3076 12.5506C22.6946 12.8405 17.2315 15.4621 13.4809 20.2299C11.0092 23.3719 9.61655 27.0196 9.24957 30.7255L11.814 30.4211C12.6446 30.3225 13.398 30.9169 13.4968 31.7487C13.5955 32.5805 13.0022 33.3348 12.1715 33.4334L9.3355 33.77C9.28267 33.7762 9.23015 33.7797 9.17808 33.7805C9.46947 39.4012 12.0893 44.8726 16.8518 48.63C17.303 48.9859 17.7646 49.3196 18.2352 49.6309C18.7491 49.4795 19.3678 49.2786 20.0261 49.026C21.8226 48.3359 23.6351 47.3612 24.5845 46.1544C25.2295 45.3344 25.8413 43.9461 26.3106 42.402C26.576 41.5292 26.7769 40.6701 26.9097 39.9284C26.117 39.6584 25.356 39.2514 24.6609 38.703C21.375 36.1107 20.8091 31.3425 23.3968 28.053C25.9846 24.7635 30.746 24.1984 34.0318 26.7907C35.2649 27.7635 36.1148 29.0426 36.5589 30.4349C36.8216 30.3482 37.107 30.2521 37.4113 30.1496L37.7979 30.0193C38.3323 29.8397 38.9275 29.6413 39.5016 29.473C39.5016 29.473 39.9353 26.4319 41.5358 24.2408ZM22.8482 16.1667C23.6566 15.9514 24.4862 16.4332 24.7015 17.2427L26.0004 22.1285C26.2156 22.938 25.7348 23.7687 24.9264 23.984C24.1181 24.1993 23.2884 23.7174 23.0731 22.908L21.7742 18.0221C21.559 17.2127 22.0398 16.3819 22.8482 16.1667ZM13.9001 24.5007C13.9988 25.3326 14.7522 25.927 15.5828 25.8283L18.4188 25.4917C19.2494 25.3933 19.8427 24.639 19.744 23.8072C19.6453 22.9753 18.8919 22.3809 18.0612 22.4796L15.2252 22.8162C14.3946 22.9148 13.8012 23.6691 13.9001 24.5007ZM17.8157 32.893C18.5844 33.2235 19.4749 32.8675 19.8048 32.0978L20.9308 29.47C21.2607 28.7003 20.9048 27.8085 20.1361 27.478C19.3674 27.1474 18.4769 27.5033 18.1471 28.273L17.0209 30.9009C16.6911 31.6705 17.0469 32.5624 17.8157 32.893ZM14.063 36.4001C13.8638 37.2135 14.3609 38.0349 15.1733 38.2347L17.9472 38.9166C18.7596 39.1164 19.5797 38.6188 19.7789 37.8054C19.9781 36.9919 19.4809 36.1705 18.6685 35.9708L15.8947 35.2888C15.0823 35.0891 14.2622 35.5866 14.063 36.4001ZM33.9154 24.1225C34.4017 23.441 34.2438 22.4938 33.5631 22.0066L31.2389 20.3439C30.5581 19.857 29.6123 20.0146 29.1261 20.6961C28.6401 21.3776 28.7978 22.3249 29.4785 22.812L31.8027 24.4748C32.4834 24.9616 33.4295 24.804 33.9154 24.1225ZM37.4813 22.5972C38.3164 22.5515 38.9564 21.8363 38.9103 21L38.6625 16.4849C38.6164 15.6485 37.9021 15.0075 37.0668 15.0533C36.2317 15.0989 35.5918 15.814 35.6377 16.6505L35.8857 21.1656C35.9317 22.002 36.646 22.6429 37.4813 22.5972ZM21.2738 39.3963C22.0795 39.1716 22.9149 39.6436 23.1395 40.4505L23.9066 43.2056C24.1312 44.0125 23.6602 44.8489 22.8543 45.0735C22.0486 45.2982 21.2132 44.8262 20.9887 44.0193L20.2217 41.2643C19.997 40.4573 20.468 39.6209 21.2738 39.3963ZM12.7572 41.3786C12.2771 42.0643 12.4431 43.0102 13.128 43.4912L15.4666 45.1338C16.1514 45.6147 17.096 45.4488 17.5762 44.7632C18.0563 44.0774 17.8904 43.1316 17.2054 42.6505L14.8669 41.008C14.182 40.5269 13.2374 40.6928 12.7572 41.3786Z" fill="black"/>
</g>
<path d="M43.8656 43.5192C42.6029 43.0164 41.5905 41.6659 41.6393 40.0533C41.6769 38.8155 42.2209 37.7373 43.0224 37.1011C43.1276 37.0174 43.1884 36.8875 43.1726 36.754C43.1515 36.5765 43.004 36.4411 42.8255 36.4356L42.5069 36.4258C40.431 36.362 38.8063 34.2951 38.8591 31.7979C38.5247 31.9036 38.1602 32.0237 37.7744 32.1533L37.367 32.2908C36.8788 32.4561 36.3667 32.6292 35.8933 32.7764C35.7537 34.1615 35.2317 35.5245 34.3079 36.6989C32.9421 38.4351 30.9707 39.4125 28.9304 39.5671C28.7726 40.4903 28.5304 41.5252 28.2205 42.5447C27.7149 44.2072 26.9711 46.0254 25.9761 47.2902C24.688 48.9277 22.6511 50.058 20.9018 50.802C28.994 54.027 38.5609 51.7209 44.2239 44.5221C44.4904 44.1833 44.266 43.6786 43.8656 43.5192Z" fill="black"/>
<path fill-rule="evenodd" clip-rule="evenodd" d="M49.7927 24.7211C49.7926 23.842 49.0742 23.1291 48.188 23.1289C47.3021 23.1288 46.5836 23.8415 46.5837 24.7205C46.5839 25.5996 47.3026 26.3129 48.1885 26.313C49.0747 26.3132 49.7929 25.6001 49.7927 24.7211Z" fill="black"/>
<path fill-rule="evenodd" clip-rule="evenodd" d="M46.0913 31.2671C46.091 29.7695 44.8784 28.5549 43.3824 28.5547C41.8869 28.5544 40.6741 29.7686 40.6744 31.2662C40.6746 32.7638 41.8878 33.979 43.3833 33.9792C44.8793 33.9795 46.0915 32.7646 46.0913 31.2671Z" fill="black"/>
<path fill-rule="evenodd" clip-rule="evenodd" d="M40.5504 23.5013C41.6311 22.0218 43.3821 20.4275 44.6992 20.1181C43.6326 18.6503 42.3496 17.303 40.8556 16.1243C37.7172 13.6483 34.0739 12.2524 30.3731 11.8836L30.6779 14.4529C30.7767 15.2847 30.1833 16.039 29.3528 16.1375C28.5221 16.2361 27.7687 15.6417 27.67 14.8098L27.3329 11.9698C27.3265 11.9166 27.323 11.8637 27.3223 11.8111C21.7093 12.101 16.2462 14.7226 12.4955 19.4904C10.0239 22.6324 8.6312 26.2801 8.26421 29.986L10.8286 29.6816C11.6593 29.583 12.4127 30.1774 12.5114 31.0092C12.6101 31.841 12.0168 32.5952 11.1862 32.6939L8.35015 33.0305C8.29732 33.0367 8.24479 33.0402 8.19273 33.041C8.48412 38.6617 11.104 44.1331 15.8664 47.8905C16.3177 48.2464 16.7793 48.5801 17.2499 48.8914C17.7637 48.74 18.3825 48.5391 19.0407 48.2865C20.8372 47.5964 22.6497 46.6217 23.5991 45.4149C24.2441 44.5949 24.8559 43.2066 25.3252 41.6625C25.5907 40.7897 25.7916 39.9306 25.9243 39.1889C25.1316 38.9189 24.3706 38.5119 23.6755 37.9635C20.3897 35.3712 19.8237 30.603 22.4115 27.3135C24.9992 24.024 29.7606 23.4589 33.0465 26.0512C34.2795 27.024 35.1295 28.3031 35.5736 29.6954C35.8362 29.6087 36.1216 29.5126 36.4259 29.4101L36.8125 29.2798C37.3469 29.1002 37.9422 28.9018 38.5162 28.7335C38.5162 28.7335 38.95 25.6924 40.5504 23.5013ZM21.8628 15.4272C22.6712 15.2119 23.5009 15.6937 23.7161 16.5032L25.015 21.389C25.2303 22.1985 24.7495 23.0292 23.9411 23.2445C23.1327 23.4598 22.303 22.9779 22.0878 22.1685L20.7889 17.2826C20.5736 16.4732 21.0545 15.6424 21.8628 15.4272ZM12.9147 23.7612C13.0134 24.5931 13.7668 25.1875 14.5975 25.0888L17.4335 24.7522C18.264 24.6538 18.8574 23.8995 18.7587 23.0677C18.6599 22.2358 17.9065 21.6414 17.0759 21.74L14.2399 22.0767C13.4092 22.1753 12.8159 22.9296 12.9147 23.7612ZM16.8303 32.1535C17.599 32.484 18.4896 32.128 18.8194 31.3583L19.9455 28.7305C20.2753 27.9608 19.9195 27.069 19.1507 26.7385C18.382 26.4079 17.4915 26.7638 17.1617 27.5335L16.0356 30.1614C15.7058 30.931 16.0616 31.8229 16.8303 32.1535ZM13.0776 35.6606C12.8784 36.474 13.3756 37.2954 14.188 37.4952L16.9618 38.1771C17.7742 38.3769 18.5943 37.8793 18.7935 37.0659C18.9927 36.2524 18.4956 35.431 17.6832 35.2313L14.9094 34.5493C14.0969 34.3496 13.2768 34.8471 13.0776 35.6606ZM32.9301 23.383C33.4163 22.7015 33.2585 21.7543 32.5777 21.2671L30.2536 19.6044C29.5728 19.1175 28.6269 19.2751 28.1408 19.9566C27.6547 20.6381 27.8124 21.5854 28.4931 22.0725L30.8174 23.7353C31.4981 24.2221 32.4441 24.0645 32.9301 23.383ZM36.496 21.8577C37.3311 21.812 37.9711 21.0968 37.925 20.2605L37.6771 15.7454C37.631 14.909 36.9167 14.268 36.0815 14.3138C35.2463 14.3594 34.6065 15.0745 34.6524 15.911L34.9003 20.4261C34.9464 21.2625 35.6606 21.9034 36.496 21.8577ZM20.2885 38.6568C21.0942 38.4321 21.9295 38.9041 22.1541 39.711L22.9212 42.4661C23.1458 43.273 22.6748 44.1094 21.8689 44.334C21.0632 44.5587 20.2279 44.0867 20.0033 43.2798L19.2363 40.5248C19.0116 39.7178 19.4826 38.8814 20.2885 38.6568ZM11.7719 40.6391C11.2917 41.3248 11.4577 42.2707 12.1426 42.7517L14.4812 44.3943C15.1661 44.8752 16.1106 44.7093 16.5909 44.0237C17.0709 43.3379 16.905 42.3921 16.22 41.911L13.8815 40.2685C13.1966 39.7874 12.2521 39.9533 11.7719 40.6391Z" fill="black"/>
</g>
<path d="M69.2388 25H66.6314V10.28H61.938V8.07555H73.9084V10.28H69.2388V25ZM78.6071 11.797C78.6071 12.1921 78.5913 12.5872 78.5597 12.9822C78.5439 13.3773 78.5202 13.7012 78.4886 13.9541H78.6308C78.8836 13.5116 79.1918 13.1481 79.5553 12.8637C79.9345 12.5793 80.3533 12.3659 80.8116 12.2237C81.2856 12.0815 81.7676 12.0104 82.2575 12.0104C83.1898 12.0104 83.9799 12.1763 84.6278 12.5081C85.2916 12.8242 85.7893 13.3299 86.1212 14.0252C86.4688 14.7047 86.6427 15.5896 86.6427 16.68V25H84.059V17.0356C84.059 16.04 83.8693 15.2973 83.4901 14.8074C83.1108 14.3017 82.5182 14.0489 81.7123 14.0489C80.938 14.0489 80.3217 14.2227 79.8634 14.5704C79.4051 14.918 79.0812 15.4316 78.8916 16.1111C78.7019 16.7748 78.6071 17.5965 78.6071 18.5763V25H76.0471V6.98518H78.6071V11.797ZM95.003 11.9867C96.0618 11.9867 96.9783 12.2237 97.7527 12.6978C98.527 13.156 99.1196 13.8198 99.5304 14.6889C99.9571 15.558 100.17 16.5852 100.17 17.7704V19.1452H92.1349C92.1665 20.4568 92.4825 21.4602 93.083 22.1556C93.6835 22.8509 94.529 23.1985 95.6193 23.1985C96.3937 23.1985 97.0811 23.1274 97.6816 22.9852C98.2978 22.8272 98.922 22.598 99.5541 22.2978V24.3837C98.9537 24.6681 98.3374 24.8815 97.7053 25.0237C97.089 25.1659 96.3383 25.237 95.4534 25.237C94.2998 25.237 93.2727 24.9921 92.3719 24.5022C91.4712 24.0123 90.768 23.2854 90.2623 22.3215C89.7566 21.3417 89.5038 20.1407 89.5038 18.7185C89.5038 17.2805 89.7329 16.0637 90.1912 15.0681C90.6495 14.0726 91.2895 13.3141 92.1112 12.7926C92.9487 12.2553 93.9127 11.9867 95.003 11.9867ZM95.003 13.9304C94.1971 13.9304 93.5492 14.2227 93.0593 14.8074C92.5695 15.3921 92.285 16.2217 92.206 17.2963H97.6341C97.6341 16.6326 97.5393 16.0479 97.3497 15.5422C97.1601 15.0365 96.8677 14.6415 96.4727 14.357C96.0934 14.0726 95.6035 13.9304 95.003 13.9304ZM113.874 8.07555C115.233 8.07555 116.371 8.20987 117.287 8.47852C118.204 8.74716 118.891 9.19753 119.349 9.82963C119.808 10.4459 120.037 11.2677 120.037 12.2948C120.037 12.9585 119.926 13.5511 119.705 14.0726C119.484 14.5783 119.16 15.0049 118.733 15.3526C118.306 15.6844 117.801 15.9057 117.216 16.0163V16.1348C117.816 16.2454 118.37 16.4509 118.875 16.7511C119.381 17.0356 119.776 17.4543 120.06 18.0074C120.361 18.5605 120.511 19.2795 120.511 20.1644C120.511 21.1916 120.282 22.0686 119.823 22.7956C119.365 23.5067 118.709 24.0519 117.856 24.4311C117.018 24.8104 116.015 25 114.846 25H109.086V8.07555H113.874ZM114.206 15.1393C115.407 15.1393 116.228 14.9259 116.671 14.4993C117.113 14.0726 117.335 13.4405 117.335 12.603C117.335 11.7496 117.066 11.1412 116.529 10.7778C115.991 10.4143 115.138 10.2326 113.969 10.2326H111.717V15.1393H114.206ZM111.717 17.2252V22.8667H114.466C115.699 22.8667 116.56 22.598 117.05 22.0607C117.54 21.5235 117.785 20.8123 117.785 19.9274C117.785 19.3901 117.674 18.916 117.453 18.5052C117.232 18.0943 116.868 17.7783 116.363 17.557C115.873 17.3358 115.201 17.2252 114.348 17.2252H111.717ZM134.239 18.6C134.239 19.6588 134.104 20.599 133.836 21.4207C133.567 22.2425 133.18 22.9378 132.674 23.5067C132.184 24.0756 131.584 24.5101 130.873 24.8104C130.162 25.0948 129.364 25.237 128.479 25.237C127.673 25.237 126.922 25.0948 126.227 24.8104C125.531 24.5101 124.931 24.0756 124.425 23.5067C123.92 22.9378 123.525 22.2425 123.24 21.4207C122.971 20.599 122.837 19.6509 122.837 18.5763C122.837 17.1699 123.066 15.9768 123.525 14.997C123.983 14.0173 124.639 13.2746 125.492 12.7689C126.361 12.2474 127.388 11.9867 128.573 11.9867C129.68 11.9867 130.659 12.2474 131.513 12.7689C132.366 13.2746 133.03 14.0173 133.504 14.997C133.994 15.9768 134.239 17.1778 134.239 18.6ZM125.492 18.6C125.492 19.5481 125.595 20.3699 125.8 21.0652C126.021 21.7447 126.353 22.2662 126.796 22.6296C127.254 22.9931 127.831 23.1748 128.526 23.1748C129.237 23.1748 129.814 22.9931 130.256 22.6296C130.715 22.2662 131.046 21.7447 131.252 21.0652C131.473 20.3699 131.584 19.5481 131.584 18.6C131.584 17.6202 131.473 16.7985 131.252 16.1348C131.031 15.4711 130.699 14.9654 130.256 14.6178C129.814 14.2543 129.229 14.0726 128.502 14.0726C127.444 14.0726 126.677 14.4677 126.203 15.2578C125.729 16.0479 125.492 17.162 125.492 18.6ZM145.289 21.397C145.289 22.2346 145.099 22.9378 144.72 23.5067C144.34 24.0756 143.787 24.5101 143.06 24.8104C142.334 25.0948 141.441 25.237 140.382 25.237C139.544 25.237 138.81 25.1659 138.177 25.0237C137.561 24.8973 136.992 24.7077 136.471 24.4548V22.2504C137.024 22.519 137.656 22.764 138.367 22.9852C139.078 23.1906 139.758 23.2933 140.406 23.2933C141.243 23.2933 141.852 23.1432 142.231 22.843C142.61 22.5427 142.8 22.1398 142.8 21.6341C142.8 21.3496 142.721 21.0968 142.563 20.8756C142.42 20.6385 142.144 20.4015 141.733 20.1644C141.322 19.9116 140.73 19.6272 139.955 19.3111C139.197 18.9793 138.557 18.6553 138.035 18.3393C137.53 18.0074 137.135 17.6202 136.85 17.1778C136.581 16.7195 136.447 16.1348 136.447 15.4237C136.447 14.3175 136.874 13.4721 137.727 12.8874C138.58 12.2869 139.695 11.9867 141.069 11.9867C141.828 11.9867 142.531 12.0657 143.179 12.2237C143.827 12.3659 144.459 12.5872 145.075 12.8874L144.293 14.8074C143.93 14.6336 143.558 14.4914 143.179 14.3807C142.816 14.2543 142.452 14.1516 142.089 14.0726C141.725 13.9936 141.362 13.9541 140.998 13.9541C140.319 13.9541 139.805 14.0726 139.457 14.3096C139.11 14.5467 138.936 14.8785 138.936 15.3052C138.936 15.6212 139.015 15.8899 139.173 16.1111C139.347 16.3323 139.639 16.5536 140.05 16.7748C140.477 16.996 141.061 17.2568 141.804 17.557C142.547 17.8573 143.179 18.1654 143.7 18.4815C144.222 18.7975 144.617 19.1847 144.886 19.643C145.154 20.1012 145.289 20.6859 145.289 21.397ZM152.565 23.1985C152.897 23.1985 153.221 23.1669 153.537 23.1037C153.853 23.0405 154.13 22.9694 154.367 22.8904V24.7867C154.098 24.9131 153.743 25.0158 153.3 25.0948C152.873 25.1896 152.423 25.237 151.949 25.237C151.285 25.237 150.677 25.1185 150.124 24.8815C149.571 24.6444 149.128 24.2336 148.796 23.6489C148.465 23.0642 148.299 22.2504 148.299 21.2074V14.1437H146.663V13.0059L148.417 12.0578L149.294 9.35555H150.882V12.2237H154.272V14.1437H150.882V21.16C150.882 21.8553 151.04 22.3689 151.356 22.7007C151.672 23.0326 152.075 23.1985 152.565 23.1985ZM167.479 18.6C167.479 19.6588 167.345 20.599 167.076 21.4207C166.808 22.2425 166.421 22.9378 165.915 23.5067C165.425 24.0756 164.825 24.5101 164.113 24.8104C163.402 25.0948 162.604 25.237 161.719 25.237C160.913 25.237 160.163 25.0948 159.467 24.8104C158.772 24.5101 158.172 24.0756 157.666 23.5067C157.16 22.9378 156.765 22.2425 156.481 21.4207C156.212 20.599 156.078 19.6509 156.078 18.5763C156.078 17.1699 156.307 15.9768 156.765 14.997C157.224 14.0173 157.879 13.2746 158.733 12.7689C159.602 12.2474 160.629 11.9867 161.814 11.9867C162.92 11.9867 163.9 12.2474 164.753 12.7689C165.607 13.2746 166.27 14.0173 166.745 14.997C167.234 15.9768 167.479 17.1778 167.479 18.6ZM158.733 18.6C158.733 19.5481 158.835 20.3699 159.041 21.0652C159.262 21.7447 159.594 22.2662 160.036 22.6296C160.495 22.9931 161.071 23.1748 161.767 23.1748C162.478 23.1748 163.055 22.9931 163.497 22.6296C163.955 22.2662 164.287 21.7447 164.493 21.0652C164.714 20.3699 164.825 19.5481 164.825 18.6C164.825 17.6202 164.714 16.7985 164.493 16.1348C164.271 15.4711 163.94 14.9654 163.497 14.6178C163.055 14.2543 162.47 14.0726 161.743 14.0726C160.684 14.0726 159.918 14.4677 159.444 15.2578C158.97 16.0479 158.733 17.162 158.733 18.6ZM176.657 11.9867C178.047 11.9867 179.114 12.358 179.857 13.1007C180.615 13.8435 180.995 15.0365 180.995 16.68V25H178.435V17.0356C178.435 16.04 178.237 15.2973 177.842 14.8074C177.463 14.3017 176.87 14.0489 176.064 14.0489C174.879 14.0489 174.065 14.436 173.623 15.2104C173.18 15.9847 172.959 17.0988 172.959 18.5526V25H170.399V12.2237H172.414L172.769 13.9304H172.912C173.18 13.4879 173.504 13.1244 173.883 12.84C174.263 12.5556 174.689 12.3422 175.163 12.2C175.637 12.0578 176.135 11.9867 176.657 11.9867ZM70.9454 42.8252C70.2659 42.8252 69.6575 42.9595 69.1203 43.2281C68.5988 43.4968 68.1563 43.8839 67.7928 44.3896C67.4294 44.8795 67.1528 45.48 66.9632 46.1911C66.7894 46.9022 66.7025 47.7002 66.7025 48.5852C66.7025 49.7862 66.8447 50.8133 67.1291 51.6667C67.4294 52.5042 67.8956 53.1442 68.5277 53.5867C69.1598 54.0291 69.9657 54.2504 70.9454 54.2504C71.6407 54.2504 72.3282 54.1714 73.0077 54.0133C73.703 53.8553 74.4536 53.6341 75.2595 53.3496V56.36C74.5168 56.6602 73.782 56.8815 73.0551 57.0237C72.3282 57.1659 71.5143 57.237 70.6136 57.237C68.8753 57.237 67.4373 56.8815 66.2995 56.1704C65.1775 55.4435 64.3479 54.4321 63.8106 53.1363C63.2733 51.8247 63.0047 50.2998 63.0047 48.5615C63.0047 47.2815 63.1785 46.1121 63.5262 45.0533C63.8738 43.9788 64.3795 43.0543 65.0432 42.28C65.7227 41.5057 66.5524 40.9052 67.5321 40.4785C68.5277 40.0519 69.6654 39.8385 70.9454 39.8385C71.783 39.8385 72.6205 39.9491 73.458 40.1704C74.3114 40.3758 75.1252 40.6602 75.8995 41.0237L74.738 43.9393C74.1059 43.639 73.4659 43.3783 72.818 43.157C72.1859 42.9358 71.5617 42.8252 70.9454 42.8252ZM85.801 43.8207C85.9748 43.8207 86.1803 43.8286 86.4173 43.8444C86.6543 43.8602 86.844 43.8839 86.9862 43.9156L86.7254 47.2341C86.6148 47.2025 86.4489 47.1788 86.2277 47.163C86.0222 47.1314 85.8405 47.1156 85.6825 47.1156C85.2242 47.1156 84.7817 47.1788 84.3551 47.3052C83.9284 47.4158 83.5412 47.5975 83.1936 47.8504C82.8617 48.1032 82.5931 48.443 82.3877 48.8696C82.198 49.2805 82.1032 49.7941 82.1032 50.4104V57H78.5714V44.0578H81.2499L81.7714 46.2385H81.9373C82.1901 45.796 82.5062 45.3931 82.8854 45.0296C83.2647 44.6662 83.6993 44.3738 84.1891 44.1526C84.6948 43.9314 85.2321 43.8207 85.801 43.8207ZM94.1819 43.797C95.9202 43.797 97.2476 44.1763 98.1641 44.9348C99.0965 45.6775 99.5627 46.8232 99.5627 48.3719V57H97.0975L96.4101 55.2459H96.3153C95.9518 55.7042 95.5725 56.0835 95.1775 56.3837C94.7982 56.684 94.3557 56.8973 93.8501 57.0237C93.3602 57.1659 92.7518 57.237 92.0249 57.237C91.2664 57.237 90.579 57.0948 89.9627 56.8104C89.3622 56.5101 88.8881 56.0598 88.5404 55.4593C88.1928 54.843 88.019 54.0686 88.019 53.1363C88.019 51.7615 88.5009 50.7501 89.4649 50.1022C90.4288 49.4385 91.8748 49.0751 93.8027 49.0119L96.0545 48.9407V48.3719C96.0545 47.6923 95.8728 47.1946 95.5093 46.8785C95.1617 46.5625 94.6718 46.4044 94.0397 46.4044C93.4076 46.4044 92.7913 46.4993 92.1908 46.6889C91.5903 46.8627 90.9898 47.0839 90.3893 47.3526L89.2278 44.9585C89.9232 44.5951 90.6896 44.3106 91.5271 44.1052C92.3804 43.8998 93.2654 43.797 94.1819 43.797ZM94.6797 51.0504C93.5419 51.082 92.7518 51.2874 92.3093 51.6667C91.8669 52.0459 91.6456 52.5437 91.6456 53.16C91.6456 53.6973 91.8037 54.0844 92.1197 54.3215C92.4357 54.5427 92.8466 54.6533 93.3523 54.6533C94.1108 54.6533 94.7508 54.4321 95.2723 53.9896C95.7938 53.5314 96.0545 52.8914 96.0545 52.0696V51.003L94.6797 51.0504ZM106.259 57L101.329 44.0578H105.027L107.516 51.4296C107.61 51.7141 107.689 52.0143 107.753 52.3304C107.832 52.6464 107.887 52.9546 107.919 53.2548C107.966 53.5551 107.998 53.8316 108.013 54.0844H108.108C108.124 53.8158 108.156 53.5314 108.203 53.2311C108.25 52.9309 108.306 52.6306 108.369 52.3304C108.448 52.0143 108.535 51.7141 108.63 51.4296L111.119 44.0578H114.816L109.886 57H106.259ZM120.205 44.0578V57H116.673V44.0578H120.205ZM118.451 38.9852C118.972 38.9852 119.423 39.1116 119.802 39.3644C120.181 39.6015 120.371 40.0519 120.371 40.7156C120.371 41.3635 120.181 41.8138 119.802 42.0667C119.423 42.3195 118.972 42.4459 118.451 42.4459C117.914 42.4459 117.455 42.3195 117.076 42.0667C116.713 41.8138 116.531 41.3635 116.531 40.7156C116.531 40.0519 116.713 39.6015 117.076 39.3644C117.455 39.1116 117.914 38.9852 118.451 38.9852ZM131.244 43.8207C132.634 43.8207 133.748 44.2 134.586 44.9585C135.423 45.7012 135.842 46.9022 135.842 48.5615V57H132.31V49.4385C132.31 48.5062 132.144 47.8109 131.812 47.3526C131.481 46.8785 130.951 46.6415 130.224 46.6415C129.15 46.6415 128.415 47.0128 128.02 47.7556C127.625 48.4825 127.427 49.5333 127.427 50.9081V57H123.895V44.0578H126.598L127.072 45.717H127.261C127.546 45.2746 127.893 44.919 128.304 44.6504C128.715 44.3659 129.173 44.1605 129.679 44.0341C130.185 43.8918 130.706 43.8207 131.244 43.8207ZM143.67 43.8207C144.46 43.8207 145.171 43.9788 145.803 44.2948C146.435 44.6109 146.972 45.0849 147.415 45.717H147.51L147.794 44.0578H150.781V57.0237C150.781 58.2563 150.536 59.2914 150.046 60.1289C149.572 60.9664 148.853 61.5985 147.889 62.0252C146.925 62.4677 145.732 62.6889 144.31 62.6889C143.393 62.6889 142.54 62.6336 141.75 62.523C140.975 62.4123 140.217 62.2148 139.474 61.9304V59.1096C140.011 59.3309 140.549 59.5126 141.086 59.6548C141.639 59.8128 142.2 59.9235 142.769 59.9867C143.354 60.0657 143.938 60.1052 144.523 60.1052C145.44 60.1052 146.119 59.8602 146.562 59.3704C147.02 58.8805 147.249 58.1457 147.249 57.1659V56.9052C147.249 56.6365 147.257 56.36 147.273 56.0756C147.304 55.7911 147.328 55.5383 147.344 55.317H147.249C146.806 55.9965 146.277 56.4864 145.661 56.7867C145.045 57.0869 144.349 57.237 143.575 57.237C142.042 57.237 140.841 56.6523 139.972 55.483C139.119 54.2978 138.692 52.6543 138.692 50.5526C138.692 49.1304 138.889 47.9215 139.285 46.9259C139.68 45.9146 140.248 45.1481 140.991 44.6267C141.75 44.0894 142.643 43.8207 143.67 43.8207ZM144.784 46.6889C144.231 46.6889 143.765 46.839 143.385 47.1393C143.022 47.4237 142.745 47.8583 142.556 48.443C142.382 49.0119 142.295 49.7309 142.295 50.6C142.295 51.8958 142.5 52.8677 142.911 53.5156C143.322 54.1477 143.962 54.4637 144.831 54.4637C145.289 54.4637 145.685 54.4084 146.016 54.2978C146.348 54.1714 146.617 53.9738 146.822 53.7052C147.044 53.4207 147.209 53.0573 147.32 52.6148C147.431 52.1723 147.486 51.6351 147.486 51.003V50.5763C147.486 49.6439 147.391 48.8933 147.202 48.3244C147.012 47.7556 146.72 47.3447 146.325 47.0919C145.929 46.8232 145.416 46.6889 144.784 46.6889ZM163.505 53.16C163.505 54.0291 163.3 54.7719 162.889 55.3881C162.478 55.9886 161.862 56.4469 161.04 56.763C160.218 57.079 159.199 57.237 157.982 57.237C157.082 57.237 156.307 57.1738 155.659 57.0474C155.011 56.9368 154.364 56.7472 153.716 56.4785V53.563C154.411 53.879 155.162 54.1398 155.967 54.3452C156.773 54.5506 157.485 54.6533 158.101 54.6533C158.796 54.6533 159.286 54.5506 159.57 54.3452C159.871 54.1398 160.021 53.8711 160.021 53.5393C160.021 53.318 159.958 53.1205 159.831 52.9467C159.721 52.7728 159.468 52.5753 159.073 52.3541C158.678 52.1328 158.061 51.8484 157.224 51.5007C156.418 51.1531 155.754 50.8133 155.233 50.4815C154.711 50.1338 154.324 49.723 154.071 49.2489C153.818 48.759 153.692 48.1506 153.692 47.4237C153.692 46.2227 154.158 45.322 155.09 44.7215C156.023 44.121 157.263 43.8207 158.812 43.8207C159.618 43.8207 160.384 43.8998 161.111 44.0578C161.838 44.2158 162.589 44.4765 163.363 44.84L162.296 47.3763C161.87 47.1867 161.459 47.0207 161.064 46.8785C160.669 46.7363 160.282 46.6257 159.902 46.5467C159.539 46.4677 159.16 46.4281 158.765 46.4281C158.243 46.4281 157.848 46.4993 157.579 46.6415C157.326 46.7837 157.2 46.997 157.2 47.2815C157.2 47.4869 157.263 47.6765 157.39 47.8504C157.532 48.0084 157.793 48.1822 158.172 48.3719C158.567 48.5615 159.144 48.8143 159.902 49.1304C160.645 49.4306 161.285 49.7467 161.822 50.0785C162.36 50.3946 162.77 50.7975 163.055 51.2874C163.355 51.7615 163.505 52.3857 163.505 53.16Z" fill="black"/>
<defs>
<filter id="filter0_f_373_30540" x="8.60105" y="11.9739" width="42.754" height="41.5709" filterUnits="userSpaceOnUse" color-interpolation-filters="sRGB">
<feFlood flood-opacity="0" result="BackgroundImageFix"/>
<feBlend mode="normal" in="SourceGraphic" in2="BackgroundImageFix" result="shape"/>
<feGaussianBlur stdDeviation="0.288342" result="effect1_foregroundBlur_373_30540"/>
</filter>
<clipPath id="clip0_373_30540">
<rect y="3.55566" width="56.8889" height="56.8889" rx="28.4444" fill="white"/>
</clipPath>
</defs>
</svg>
