<svg width="64" height="64" viewBox="0 0 64 64" fill="none" xmlns="http://www.w3.org/2000/svg">
<path d="M32 64.0003C49.6731 64.0003 64 49.6734 64 32.0003C64 14.3271 49.6731 0.000244141 32 0.000244141C14.3269 0.000244141 0 14.3271 0 32.0003C0 49.6734 14.3269 64.0003 32 64.0003Z" fill="#32E0FB" fill-opacity="0.1"/>
<path d="M15.9473 30.8332C15.9473 22.387 22.7943 15.54 31.2404 15.54H32.8362C41.5762 15.54 48.6613 22.6252 48.6613 31.3651V32.429C48.6613 41.169 41.5762 48.2542 32.8362 48.2542H32.3043C23.2706 48.2542 15.9473 40.9309 15.9473 31.8971V30.8332Z" fill="#32E0FB"/>
<ellipse cx="4.72093" cy="4.72094" rx="4.72093" ry="4.72094" transform="matrix(1 0 0 -1 21.9316 30.8328)" fill="#FAFAFA"/>
<rect width="5.01977" height="5.01977" rx="2.50988" transform="matrix(1 0 0 -1 24.1406 28.6226)" fill="#2C2F36"/>
<ellipse cx="4.72093" cy="4.72094" rx="4.72093" ry="4.72094" transform="matrix(1 0 0 -1 33.3672 30.8325)" fill="#FAFAFA"/>
<rect width="5.01977" height="5.01977" rx="2.50988" transform="matrix(1 0 0 -1 35.5762 28.6226)" fill="#2C2F36"/>
<path fill-rule="evenodd" clip-rule="evenodd" d="M36.1045 36.551C33.9746 36.551 32.248 38.2776 32.248 40.4075V43.4607C32.248 44.5256 33.1114 45.3889 34.1763 45.3889H34.7387C35.4931 45.3889 36.1046 44.7774 36.1046 44.0231C36.1046 43.2687 36.7161 42.6572 37.4704 42.6572H38.0328C39.0977 42.6572 39.961 41.7939 39.961 40.729V39.6041C39.961 37.9179 38.5941 36.551 36.9079 36.551H36.1046H36.1045Z" fill="url(#paint0_linear_782_100566)"/>
<mask id="mask0_782_100566" style="mask-type:alpha" maskUnits="userSpaceOnUse" x="22" y="31" width="20" height="11">
<path d="M25.5483 31.8961C24.8026 31.8961 24.4298 31.8961 24.012 32.0849C23.4448 32.3412 22.8406 33.174 22.7731 33.7928C22.7233 34.2486 22.7975 34.4759 22.946 34.9304C23.419 36.3786 24.2285 37.7101 25.3259 38.8076C27.1589 40.6406 29.6451 41.6704 32.2374 41.6704C34.8297 41.6704 37.3158 40.6406 39.1489 38.8076C40.2926 37.6639 41.1236 36.2659 41.5869 34.7465C41.7252 34.2928 41.7944 34.0659 41.7418 33.644C41.6696 33.0649 41.1086 32.3074 40.5758 32.0695C40.1875 31.8961 39.8315 31.8961 39.1193 31.8961L32.2374 31.8961L25.5483 31.8961Z" fill="url(#paint1_linear_782_100566)"/>
</mask>
<g mask="url(#mask0_782_100566)">
<path d="M25.5483 31.8961C24.8026 31.8961 24.4298 31.8961 24.012 32.0849C23.4448 32.3412 22.8406 33.174 22.7731 33.7928C22.7233 34.2486 22.7975 34.4759 22.946 34.9304C23.419 36.3786 24.2285 37.7101 25.3259 38.8076C27.1589 40.6406 29.6451 41.6704 32.2374 41.6704C34.8297 41.6704 37.3158 40.6406 39.1489 38.8076C40.2926 37.6639 41.1236 36.2659 41.5869 34.7465C41.7252 34.2928 41.7944 34.0659 41.7418 33.644C41.6696 33.0649 41.1086 32.3074 40.5758 32.0695C40.1875 31.8961 39.8315 31.8961 39.1193 31.8961L32.2374 31.8961L25.5483 31.8961Z" fill="#037E91"/>
<path d="M22.7898 32.4525C22.4199 31.6044 23.0159 30.6333 23.9412 30.6333H40.3853C40.5858 30.6333 40.0844 30.6333 40.2199 30.6568C40.8494 30.7662 41.6645 32.1611 41.4506 32.7632C41.4046 32.8928 42.088 31.6803 41.8146 32.1653C41.4677 32.7809 41.4154 33.8249 40.7087 33.8249H23.3754C22.8627 33.8249 22.9947 32.9224 22.7898 32.4525Z" fill="white"/>
<ellipse cx="32.172" cy="39.8089" rx="3.85654" ry="3.05864" fill="#FF1569"/>
</g>
<defs>
<linearGradient id="paint0_linear_782_100566" x1="36.1045" y1="36.551" x2="36.1189" y2="45.3824" gradientUnits="userSpaceOnUse">
<stop stop-color="#3F46EE"/>
<stop offset="1" stop-color="#43BBFF"/>
</linearGradient>
<linearGradient id="paint1_linear_782_100566" x1="32.2374" y1="41.6704" x2="30.2426" y2="30.2338" gradientUnits="userSpaceOnUse">
<stop stop-color="#FB39A2"/>
<stop offset="1" stop-color="#C520FF"/>
</linearGradient>
</defs>
</svg>
