<svg width="12" height="12" viewBox="0 0 12 12" fill="none" xmlns="http://www.w3.org/2000/svg">
<g id="Icons/16px/tabler-icon-calendar-event">
<path id="Vector (Stroke)" fill-rule="evenodd" clip-rule="evenodd" d="M4 0C4.33137 0 4.6 0.268629 4.6 0.6V1.2H8.2V0.6C8.2 0.268629 8.46863 0 8.8 0C9.13137 0 9.4 0.268629 9.4 0.6V1.2H10C10.4774 1.2 10.9352 1.38964 11.2728 1.72721C11.6104 2.06477 11.8 2.52261 11.8 3V10.2C11.8 10.6774 11.6104 11.1352 11.2728 11.4728C10.9352 11.8104 10.4774 12 10 12H2.8C2.32261 12 1.86477 11.8104 1.52721 11.4728C1.18964 11.1352 1 10.6774 1 10.2V3C1 2.52261 1.18964 2.06477 1.52721 1.72721C1.86477 1.38964 2.32261 1.2 2.8 1.2H3.4V0.6C3.4 0.268629 3.66863 0 4 0ZM3.4 2.4H2.8C2.64087 2.4 2.48826 2.46321 2.37574 2.57574C2.26321 2.68826 2.2 2.84087 2.2 3V4.8H10.6V3C10.6 2.84087 10.5368 2.68826 10.4243 2.57574C10.3117 2.46321 10.1591 2.4 10 2.4H9.4V3C9.4 3.33137 9.13137 3.6 8.8 3.6C8.46863 3.6 8.2 3.33137 8.2 3V2.4H4.6V3C4.6 3.33137 4.33137 3.6 4 3.6C3.66863 3.6 3.4 3.33137 3.4 3V2.4ZM10.6 6H2.2V10.2C2.2 10.3591 2.26321 10.5117 2.37574 10.6243C2.48826 10.7368 2.64087 10.8 2.8 10.8H10C10.1591 10.8 10.3117 10.7368 10.4243 10.6243C10.5368 10.5117 10.6 10.3591 10.6 10.2V6ZM3.4 7.8C3.4 7.46863 3.66863 7.2 4 7.2H5.2C5.53137 7.2 5.8 7.46863 5.8 7.8V9C5.8 9.33137 5.53137 9.6 5.2 9.6H4C3.66863 9.6 3.4 9.33137 3.4 9V7.8Z" fill="#545454"/>
</g>
</svg>
