<svg width="48" height="48" viewBox="0 0 48 48" fill="none" xmlns="http://www.w3.org/2000/svg">
<circle cx="24" cy="24" r="24" fill="#FACD5D"/>
<mask id="mask0_53_3690" style="mask-type:luminance" maskUnits="userSpaceOnUse" x="0" y="0" width="48" height="48">
<circle cx="24" cy="24" r="24" fill="white"/>
</mask>
<g mask="url(#mask0_53_3690)">
<path d="M16.7333 34.7999L11.7333 51.1333L10.2666 54.9333C10.2666 54.9333 12.3999 57.6666 17.4666 58.7333C20.9333 59.4666 23.2666 59.5333 24.7999 59.3999C26.0666 59.2666 27.5999 58.9999 26.7999 56.6666C25.6666 53.1999 26.0666 50.9999 26.0666 50.9999L27.8666 41.1999L16.7333 34.7999V34.7999Z" fill="#EA9D7D"/>
<path d="M16 43.5999C17.6666 46.1333 20.6 48.2666 22.2667 49.0666C24.6 50.1999 26.2667 50.4666 26.2667 50.4666L27.8 42.3333L16.8666 34.7999L16.2666 35.9333L15.8 37.7999C15.6 37.7999 14.4666 41.2666 16 43.5999V43.5999Z" fill="url(#paint0_linear_53_3690)"/>
<path d="M10.6666 54.9999H10.6C10.475 54.9362 10.3974 54.8068 10.4 54.6666L13.5333 45.0666C14.1333 43.0666 15.9333 36.3332 15.9333 36.3332C15.997 36.2083 16.1264 36.1307 16.2666 36.1332C16.3916 36.197 16.4692 36.3264 16.4666 36.4666L14.0666 45.1999C13.5333 46.9999 10.9333 54.7332 10.9333 54.7332C10.9333 54.9332 10.8 54.9999 10.6666 54.9999V54.9999Z" fill="#CF7653"/>
<path d="M18.6001 38.6667L18.7335 39L19.0001 38.6667H18.6001Z" fill="#A84D3B"/>
<path fill-rule="evenodd" clip-rule="evenodd" d="M18.4668 38.7999L18.6001 38.2L19.1335 38.7333L18.4668 38.7999ZM22.2001 41.5333V40.7999L22.9335 41.1999L22.2001 41.5333ZM20.4001 39.6666L20.2668 40.3333L21.0668 40.1333L20.4001 39.6666ZM19.2668 39.6L19.4001 38.9333L20.0668 39.4L19.2668 39.6Z" fill="#A84D3B"/>
<path fill-rule="evenodd" clip-rule="evenodd" d="M17.8667 38.2666L18.2 37.6L18.6667 38.2666H17.8667ZM22.8667 41.9333L23.1334 42.3333L22.6 42.4666L22.8667 41.9333ZM22.2667 41.6L21.8667 41.1333L21.6667 41.6666L22.2667 41.6ZM24.5334 42.5333L25 43.0666L24.3334 43.1333L24.5334 42.5333ZM26.9334 43.7333L26.5334 43.2666L26.3334 43.8L26.9334 43.7333ZM23 41.2L23.4667 41.4L23 41.7333V41.2ZM24.4 43.4666L24.0667 43.0666L23.8 43.6L24.4 43.4666ZM21.3334 40.5333L21.8 40.7333L21.3334 41.0666V40.5333Z" fill="#A84D3B"/>
<path fill-rule="evenodd" clip-rule="evenodd" d="M17.5333 36.4667L17.2666 36.7333L17.5999 36.8667L17.5333 36.4667ZM19.4666 39.7333L19.7333 39.5333L19.8666 39.9333L19.4666 39.7333ZM25.2666 42.1333L24.6666 41.8667V42.7333L25.2666 42.1333ZM26.5999 42.4L26.0666 42.2667L26.1999 42.9333L26.5999 42.4ZM26.9333 43.4L27.3999 43.4667L27.1333 43.9333L26.9333 43.4ZM25.5999 43.2667L25.3333 42.8667L24.9999 43.3333L25.5999 43.2667ZM27.2666 44.3333L27.1999 44.8L26.7333 44.5333L27.2666 44.3333ZM26.9999 45.7333L27.1333 45.2667L26.5999 45.4L26.9999 45.7333ZM25.5999 45.9333L25.8666 45.7333L25.9999 46.1333L25.5999 45.9333ZM26.1333 43.1333L25.8666 43.3333L26.1999 43.5333L26.1333 43.1333ZM27.2666 42.6L27.5999 42.6667L27.3333 43L27.2666 42.6ZM26.3999 46.4667L26.1333 46.7333L26.4666 46.8667L26.3999 46.4667ZM24.0666 42.6L24.2666 42.8L23.9333 42.9333L24.0666 42.6ZM22.3333 42.2667L22.4666 41.9333L22.1333 42L22.3333 42.2667ZM23.3999 42.6L23.3333 42.8667L23.0666 42.6H23.3999ZM24.7333 44.1333L24.8666 44.4667L25.1333 44.2L24.7333 44.1333ZM26.3999 43L26.6666 42.8667L26.7333 43.2L26.3999 43Z" fill="#A84D3B"/>
<path fill-rule="evenodd" clip-rule="evenodd" d="M16.6 38.8L16.4 38.6666L16.3333 38.9333L16.6 38.8ZM19.2667 39L18.8667 39.2666L19.3333 39.5333L19.2667 39ZM18.2 39.8V39.4666L18.6 39.6666L18.2 39.8ZM23.4 41.8666L23.7333 41.6666L23.4 41.4666V41.8666ZM18.5333 41.9333L18.6667 41.8L18.8 42L18.5333 41.9333ZM26.4 42.7333L26.8 42.4666L26.8667 43L26.4 42.7333ZM25.6667 42.9333L25.9333 42.8L26 43.1333L25.6667 42.9333ZM26.2 47.5333L25.9333 47.6666L26.2667 47.8666L26.2 47.5333ZM25.6 47L25.5333 46.7333L25.8667 46.8L25.6 47ZM25.4667 45.1333L25.5333 45.4L25.8 45.2L25.4667 45.1333ZM26.5333 45.6L26.7333 45.8L26.4 45.9333L26.5333 45.6ZM17.4667 42.6666L17.6 42.8L17.7333 42.5333L17.4667 42.6666ZM20.0667 44.2L19.8667 44.1333V44.3333L20.0667 44.2ZM19.2667 43.2666L19.4 43.0666L19.5333 43.2666H19.2667ZM23.9333 45.2V45.5333L24.3333 45.4L23.9333 45.2ZM23.3333 42.4666V42.1333L23.7333 42.3333L23.3333 42.4666ZM26.2 44.3333L25.9333 44.4L26.1333 44.6666L26.2 44.3333ZM25.0667 46.8L25.2 47.0666H24.8667L25.0667 46.8ZM25.4667 43.6L25.6 43.9333L25.8667 43.6H25.4667ZM26.6667 44.3333L26.4667 44H26.9333L26.6667 44.3333ZM27.2 42.8L27 43L27.3333 43.1333L27.2 42.8ZM26.5333 44.7333L26.8 44.8666L26.5333 45.0666V44.7333ZM17.7333 39.3333L17.9333 39.4666L17.6667 39.6L17.7333 39.3333ZM16.2667 40.6666L16.2 40.8666L16 40.6666H16.2667Z" fill="#A84D3B"/>
<path fill-rule="evenodd" clip-rule="evenodd" d="M16.9333 36.8667L16.7333 36.7334L16.6667 37.0667L16.9333 36.8667ZM17.6 37.3334L17.8 36.9334L18.1333 37.4001L17.6 37.3334ZM18 38.7334L18.1333 39.2001L18.5333 38.8001L18 38.7334ZM18.8 39.4001L18.9333 39.6667L19.1334 39.4001H18.8ZM19.8667 40.2001L19.6667 40.3334L19.9333 40.4667L19.8667 40.2001ZM20.1333 40.0667L20.3333 39.9334L20.4 40.2001L20.1333 40.0667ZM20.8667 40.2001L20.6667 40.3334L20.9333 40.4667L20.8667 40.2001ZM19.7333 41.8001L19.9333 41.9334L19.6667 42.0667L19.7333 41.8001ZM15.9333 39.6667L16.0667 39.9334L16.2667 39.6667H15.9333ZM17.2667 38.3334L17.4 38.1334L17.4667 38.4001L17.2667 38.3334ZM17.3333 40.6667L17.1333 40.5334V40.8001L17.3333 40.6667ZM17.7333 38.1334L17.6 37.8667H17.9333L17.7333 38.1334ZM18.2 38.2667L18.3333 38.5334L18.5333 38.2667H18.2ZM16.5333 37.7334L16.6667 37.5334L16.7333 37.8667L16.5333 37.7334ZM20.4667 40.8667V40.5334L20.7333 40.7334L20.4667 40.8667ZM21.6667 41.1334L21.4667 41.2001L21.6 41.4001L21.6667 41.1334ZM20.9333 40.6667L21.1333 40.6001L21.0667 40.8667L20.9333 40.6667ZM25.6 42.6001L25.4 42.6667L25.5333 42.8667L25.6 42.6001ZM24.4 42.2001L24.6667 42.1334L24.6 42.4001L24.4 42.2001ZM21.5333 42.6667L21.4 42.4001L21.2 42.6667H21.5333ZM25.1333 45.7334L25.2667 45.9334H24.9333L25.1333 45.7334ZM21.1333 41.9334L21 41.7334L20.8667 41.9334H21.1333ZM23.2 41.7334L22.8667 41.8667V41.6001L23.2 41.7334ZM24 41.8001V42.1334L24.2667 42.0001L24 41.8001ZM24.9333 42.4667L25.1333 42.4001L25.0667 42.7334L24.9333 42.4667ZM24.2667 43.8001L24.1333 43.6001L24 43.8001H24.2667ZM21.6667 43.8667L21.3333 44.0001V43.7334L21.6667 43.8667ZM22.6667 43.0001L22.4 43.0667L22.6 43.2667L22.6667 43.0001ZM24.8 43.3334L24.9333 43.5334H24.6667L24.8 43.3334Z" fill="#A84D3B"/>
<path d="M32.9333 18.8C32.9333 18.8 34.8666 21.9333 35.2 23.4C35.5333 24.6667 35.6 25.9333 35.6 26.6667C35.6 29.4667 35.4 33.4 35.0666 35.6C34.4 39.4 32.6 41.6667 30.4666 42.3333C28.3333 43 24.4666 41.6 21.8666 40.2667C19.6666 39.1333 18.4 37.9333 18.0666 36.5333C17.7333 35.0667 17.0667 33.2 17.0667 33.2L17.2 28.8667L22.3333 17.9333L32.9333 18.8V18.8Z" fill="#EA9D7D"/>
<path d="M19.7333 30.8666C19.7333 30.8666 23.5999 26.5333 26.0666 25.5999C30.7999 23.6666 35.3999 23.8666 35.3999 23.8666L34.6666 21.5333L21.1999 19.7333L18.2666 28.1333L19.7333 30.8666V30.8666Z" fill="url(#paint1_linear_53_3690)"/>
<ellipse cx="15.6666" cy="32.4666" rx="3.53333" ry="3.8" fill="#EA9D7D"/>
<path fill-rule="evenodd" clip-rule="evenodd" d="M11.8 32.4666C11.8 34.6666 13.5334 36.5332 15.6667 36.5332C17.8 36.5332 19.5334 34.6666 19.5334 32.4666C19.5334 30.2666 17.8 28.3999 15.6667 28.3999C13.5334 28.3999 11.8 30.1999 11.8 32.4666ZM12.4 32.4666C12.4 30.5332 13.8667 28.9332 15.6667 28.9332C17.4667 28.9332 18.9334 30.4666 18.9334 32.4666C18.9334 34.3999 17.4667 35.9999 15.6667 35.9999C13.8667 35.9999 12.4 34.3999 12.4 32.4666Z" fill="#B76349"/>
<ellipse cx="15.7999" cy="32.4666" rx="1.6" ry="1.66667" fill="url(#paint2_linear_53_3690)"/>
<path d="M19.5333 30.0667L18.4 31.0667L17.9333 34.8L18.1333 35.8667C18.1333 35.8667 19.7333 35 19.8667 33.2667C20 31.5333 19.5333 30.0667 19.5333 30.0667V30.0667Z" fill="#EA9D7D"/>
<path d="M28.2665 42.5999C27.5332 42.5999 26.9332 42.4666 25.5998 42.1333C23.4665 41.5999 20.4665 39.9333 18.9332 38.4666C17.4665 37 17.5998 35.6 17.5998 35.5333C17.5998 35.4 17.5998 35.2 17.7332 35.2C17.8665 35.2 17.9332 35.3333 17.9998 35.4666C18.0665 35.7333 18.0665 36.8666 19.2665 38.0666C20.6665 39.4666 23.6665 41.0666 25.6665 41.5999C27.7332 42.0666 28.1332 42.1999 29.6665 42.0666C31.1332 41.9333 31.9998 41.3333 31.9998 41.3333C32.1998 41.1999 32.3998 41.1333 32.2665 41.3333C32.1332 41.4666 31.0665 42.3333 29.7332 42.5333C29.1332 42.5999 28.7332 42.5999 28.2665 42.5999Z" fill="#B76349"/>
<path fill-rule="evenodd" clip-rule="evenodd" d="M29.5333 30.0665L28.6666 29.5332L29.6666 28.9999L29.5333 30.0665ZM22.5333 31.9332L22.6666 32.2665H22.1999L22.5333 31.9332ZM28.9999 32.1332L28.5333 32.5332L28.4 31.9332L28.9999 32.1332ZM30.4 32.9332L31.0666 33.3332L31.1333 32.5332L30.4 32.9332Z" fill="#F4B9A6"/>
<path fill-rule="evenodd" clip-rule="evenodd" d="M29.3999 25.2666L29.1999 25.7333L29.7999 25.6666L29.3999 25.2666ZM29.5333 28.4666L28.6666 28.9999V27.7999L29.5333 28.4666ZM31.5333 34.3999L30.6666 34.9333V33.7999L31.5333 34.3999ZM31.5333 33.8666L31.8666 32.9333H30.7333L31.5333 33.8666ZM27.7999 32.0666L28.3333 31.9333L28.1333 32.5333L27.7999 32.0666ZM28.7333 31.1999L28.1333 31.3333L28.5333 31.7999L28.7333 31.1999ZM29.2666 34.1333L28.7999 34.5999L28.5999 34.0666L29.2666 34.1333ZM28.8666 35.0666L29.3333 35.3333L29.4666 34.7999L28.8666 35.0666ZM31.0666 36.8666L31.5999 36.6666L31.4666 37.3333L31.0666 36.8666ZM29.4666 28.5333L29.9333 28.5999L29.6666 28.9999L29.4666 28.5333ZM30.3999 26.9333L29.9333 26.8666L30.0666 27.3333L30.3999 26.9333ZM26.4666 28.4666L26.5333 27.8666L27.0666 28.1999L26.4666 28.4666ZM27.7999 26.9333L27.3333 27.2666L27.8666 27.5999L27.7999 26.9333ZM25.2666 27.7333H25.5999L25.4666 28.0666L25.2666 27.7333ZM30.6666 36.7333L30.1999 36.8666L30.5333 37.1999L30.6666 36.7333ZM29.6666 36.5333L30.1333 36.3999L29.9999 36.9333L29.6666 36.5333ZM26.1333 33.4666L25.6666 33.5333L25.9333 33.9999L26.1333 33.4666ZM26.7999 34.4666L27.2666 34.3333L27.0666 34.8666L26.7999 34.4666ZM25.7333 31.9999L25.6666 32.3999L26.1999 32.2666L25.7333 31.9999ZM27.9333 31.0666L28.1333 31.4666H27.5999L27.9333 31.0666ZM32.9999 35.3333L33.2666 35.0666L32.7999 34.9999L32.9999 35.3333ZM31.3999 34.0666L31.1333 33.9999L31.3999 33.7333V34.0666ZM34.1333 31.1999L34.3999 31.0666L34.1333 30.9333V31.1999ZM33.0666 32.4666L32.7333 32.3999L32.9333 32.1333L33.0666 32.4666Z" fill="#F4B9A6"/>
<path fill-rule="evenodd" clip-rule="evenodd" d="M28.8666 26.7333L29.4666 26.6L28.9999 26.1333L28.8666 26.7333ZM24.3333 29.2L24.5333 28.8666L24.7333 29.2H24.3333ZM34.3333 31.1333L34.2666 31.4L33.9999 31.2L34.3333 31.1333ZM30.6666 33.2666L29.4666 33.6L29.6666 32.2666L30.6666 33.2666ZM28.5333 29.0666L28.0666 29L28.1333 29.4666L28.5333 29.0666ZM24.5333 32.0666L25.0666 31.8666V32.2666L24.5333 32.0666ZM27.7333 27.7333L27.7999 28.3333L28.3333 27.9333L27.7333 27.7333ZM27.5999 29L27.0666 29.2666L26.9999 28.7333L27.5999 29ZM27.5999 28.3333L27.6666 28.9333L28.1999 28.6L27.5999 28.3333ZM33.0666 27.9333L32.5999 27.7333L33.0666 27.4V27.9333ZM28.5999 30.6L28.3333 30.2666L27.9999 30.7333L28.5999 30.6ZM30.3999 36.2666L30.8666 36.1333L30.7333 36.6666L30.3999 36.2666ZM28.7999 33.2666L28.6666 33.6H29.1332L28.7999 33.2666ZM29.0666 35.2666L29.2666 35.6L28.8666 35.6666L29.0666 35.2666ZM29.9333 35.9333L30.1999 35.6666L29.7999 35.5333L29.9333 35.9333ZM30.4666 34.8L30.1333 35.0666L29.9999 34.6L30.4666 34.8Z" fill="#F4B9A6"/>
<path fill-rule="evenodd" clip-rule="evenodd" d="M30.0665 25.8666L29.7332 26.1332L30.1999 26.2666L30.0665 25.8666ZM32.1332 26.7999L31.6665 26.9332L31.7998 26.3999L32.1332 26.7999ZM28.5998 28.0666L29.0665 27.9999L28.7332 27.5999L28.5998 28.0666ZM30.3332 29.8666L30.8665 29.3999L31.1332 30.1332L30.3332 29.8666ZM28.7332 30.3332L28.5332 29.9999H28.9998L28.7332 30.3332ZM24.1332 30.9332L23.8665 30.5999L23.6665 31.0666L24.1332 30.9332ZM30.1332 32.2666L29.7998 32.5332L29.6665 32.0666L30.1332 32.2666ZM30.4665 34.2666L30.0665 34.5999L29.9332 34.0666L30.4665 34.2666ZM28.8665 32.7332L29.1998 32.9332L29.3332 32.5999L28.8665 32.7332ZM32.4665 35.9332L32.8665 35.8666L32.7332 36.2666L32.4665 35.9332ZM30.7332 32.1332L30.5998 32.4666L31.0665 32.3999L30.7332 32.1332ZM31.5332 35.8666L31.7998 36.1999L31.3332 36.2666L31.5332 35.8666ZM29.4665 37.5332L29.5332 37.9999L29.9332 37.6666L29.4665 37.5332ZM27.9332 35.5332L28.2665 35.3999V35.7999L27.9332 35.5332ZM28.9332 36.0666L28.8665 36.4666L28.5998 36.3332L28.9332 36.0666ZM27.3998 35.6666L27.6665 35.7999L27.7332 35.3332L27.3998 35.6666ZM25.1332 36.5332L25.2665 36.1332L25.5998 36.4666L25.1332 36.5332ZM26.7332 37.5999H26.3332L26.4665 37.9999L26.7332 37.5999ZM24.9998 38.0666L25.3332 38.1332L25.0665 38.4666L24.9998 38.0666ZM29.1332 31.8666L29.9332 31.6666L29.2665 30.9999L29.1332 31.8666ZM28.5998 30.7332L28.9998 31.3332L29.5332 30.5999L28.5998 30.7332ZM25.9332 30.3332L25.5332 30.5332L25.9332 30.7332V30.3332ZM29.8665 30.6666L30.1332 30.3999L30.2665 30.7999L29.8665 30.6666ZM32.0665 28.9999L31.5998 29.1332L31.6665 28.5999L32.0665 28.9999ZM28.8665 28.9999L28.4665 28.6666L28.3332 29.1332L28.8665 28.9999ZM25.9998 27.0666L26.3998 26.8666V27.2666L25.9998 27.0666ZM27.4665 33.4666L26.9332 33.1332L26.8665 33.6666L27.4665 33.4666ZM25.7332 32.9999L26.1999 32.9332L25.9999 33.3999L25.7332 32.9999ZM27.1998 34.9332L27.1332 35.4666L27.6665 35.2666L27.1998 34.9332ZM27.8665 33.5332V32.9999L28.4665 33.1999L27.8665 33.5332ZM27.3999 33.9999L27.4665 34.5332L27.9998 34.1999L27.3999 33.9999ZM26.7998 32.1332V32.5332L26.3998 32.3332L26.7998 32.1332Z" fill="#F4B9A6"/>
<path fill-rule="evenodd" clip-rule="evenodd" d="M27.2667 26.7999V27.1999L26.8667 26.9999L27.2667 26.7999ZM31.2 28.0666L31 27.7999L31.4667 27.7333L31.2 28.0666ZM33.2 29.1999L32.7334 29.3333L32.8 28.7999L33.2 29.1999ZM34.4667 33.1333L34.8667 32.9333L34.5334 32.6666L34.4667 33.1333ZM30.0667 27.9999V28.4666L30.6 28.3333L30.0667 27.9999ZM29.4667 27.5999L29.5334 27.1333L30 27.3999L29.4667 27.5999ZM29.8667 31.5999L30.6667 32.1333L30.9334 31.1333L29.8667 31.5999ZM32.6667 31.3333L31.8 31.5999L32.0667 30.5333L32.6667 31.3333ZM29.6667 32.0666L29.9334 32.1333L29.8667 31.7999L29.6667 32.0666ZM29.1334 30.5333L29.2667 30.1999L29.6 30.5333H29.1334ZM30.0667 29.1999L29.6 29.2666L29.8667 29.6666L30.0667 29.1999ZM31.0667 29.4666L31.5334 29.3999L31.3334 29.8666L31.0667 29.4666Z" fill="#F4B9A6"/>
<path fill-rule="evenodd" clip-rule="evenodd" d="M31.1998 26.2666L31.4665 25.7333H30.7999L31.1998 26.2666ZM29.7332 30.0666L30.7332 29.5333L29.6665 28.8666L29.7332 30.0666ZM30.6665 33.3999L30.4665 33.8666L30.0665 33.3999H30.6665ZM29.5998 31.3333L30.4665 30.8666L29.5332 30.2666L29.5998 31.3333ZM30.4665 27.6666L30.1332 27.3999L30.5998 27.2666L30.4665 27.6666ZM31.1998 28.1333L30.7332 28.8666L31.7332 28.9333L31.1998 28.1333ZM31.6665 27.4666L31.8665 27.1999L32.1332 27.5333L31.6665 27.4666ZM32.3332 30.0666L32.5998 30.3333L32.7332 29.9333L32.3332 30.0666ZM30.8665 27.0666L31.0665 26.7999L31.3332 27.1333L30.8665 27.0666ZM25.1332 30.7333L24.6665 30.8666L25.0665 31.2666L25.1332 30.7333ZM25.5998 29.1333L25.7998 28.7333L26.1332 29.1333H25.5998ZM26.7998 28.7333L26.7332 28.3333L26.3998 28.6666L26.7998 28.7333ZM26.1999 30.4666L26.2665 30.8666L25.7998 30.7999L26.1999 30.4666Z" fill="#F4B9A6"/>
<path fill-rule="evenodd" clip-rule="evenodd" d="M21.5332 21.1332V20.3999L22.1999 20.7332L21.5332 21.1332ZM34.3332 22.1999L34.5332 22.3999L34.5999 22.0666L34.3332 22.1999ZM33.3332 22.7332L33.1332 22.5332L33.4665 22.3999L33.3332 22.7332ZM28.0665 23.0666L28.1332 22.7332L28.3332 23.0666H28.0665ZM28.0665 23.3332L28.2665 23.5999L27.9999 23.6666L28.0665 23.3332ZM30.8665 23.1332L30.6665 22.9332L30.5332 23.1999L30.8665 23.1332ZM34.1999 22.5332L33.9332 22.5999L33.9999 22.2666L34.1999 22.5332ZM28.9332 23.1332L28.7332 22.9332L28.5999 23.1999L28.9332 23.1332ZM31.7999 22.7332L32.0665 22.9332L31.7332 23.0666L31.7999 22.7332ZM27.7332 23.2666L27.5332 22.9999L27.3999 23.3332L27.7332 23.2666ZM25.6665 22.1999L25.5332 22.5332L25.9332 22.4666L25.6665 22.1999ZM22.9332 21.5332V21.1999L23.2665 21.3999L22.9332 21.5332ZM22.7999 22.4666L22.7332 22.7999L23.1332 22.6666L22.7999 22.4666ZM23.1999 23.5999L23.1332 23.1999L23.5332 23.3332L23.1999 23.5999ZM26.3332 22.6666L26.0665 22.4666L25.9332 22.7332L26.3332 22.6666ZM26.5999 22.8666L26.5332 22.3999L27.0665 22.5332L26.5999 22.8666Z" fill="#A84D3B"/>
<path fill-rule="evenodd" clip-rule="evenodd" d="M23.1998 21.3333L23.2665 21.7999L23.7998 21.5333L23.1998 21.3333ZM23.8665 21.9999L23.9998 22.5333L24.4665 22.1333L23.8665 21.9999ZM27.7998 22.9999L27.5998 22.6666H28.0665L27.7998 22.9999ZM30.5331 22.7333L30.2665 23.0666L30.0665 22.7999L30.5331 22.7333ZM31.2665 23.0666L31.0665 22.7333L31.5331 22.6666L31.2665 23.0666ZM28.9998 22.7333L29.1331 23.1999L29.5998 22.8666L28.9998 22.7333ZM24.9998 22.6666L24.8665 22.3999L25.2665 22.4666L24.9998 22.6666ZM23.6665 23.5999L23.5998 23.9333L23.9331 23.7999L23.6665 23.5999ZM23.5998 24.0666L23.2665 24.1333L23.3331 23.8666L23.5998 24.0666ZM25.6665 22.5999L25.7998 22.7333L25.8665 22.5999H25.6665ZM27.2665 22.9333L27.1331 22.7999L27.3998 22.7333L27.2665 22.9333ZM29.6665 22.9999L29.7331 23.1333L29.8665 22.9999H29.6665ZM22.7998 24.1333L22.9998 24.0666L22.9331 24.2666L22.7998 24.1333ZM22.8665 23.7999L23.1331 23.7333L23.0665 23.9999L22.8665 23.7999Z" fill="#A84D3B"/>
<path fill-rule="evenodd" clip-rule="evenodd" d="M22.5999 21.7332V21.5332L22.8666 21.6665L22.5999 21.7332ZM23.5333 21.9332L23.2666 21.7999L23.5333 21.5999V21.9332ZM22.8666 23.4665L22.9333 23.7999L22.5333 23.7332L22.8666 23.4665ZM25.1999 22.3332L25.4666 22.3999L25.3999 22.0665L25.1999 22.3332ZM23.1999 22.3332L23.4666 22.3999L23.3999 22.0665L23.1999 22.3332ZM23.1333 24.9332V24.7332L23.3333 24.8665L23.1333 24.9332ZM22.5333 22.1999L22.2666 22.2665L22.4666 22.4665L22.5333 22.1999ZM22.5999 24.5332V24.0665L23.0666 24.2665L22.5999 24.5332Z" fill="#A84D3B"/>
<path fill-rule="evenodd" clip-rule="evenodd" d="M22.3998 20.7999L22.4665 21.3333L22.9331 21.1999L22.3998 20.7999ZM22.9331 21.9999L22.7331 22.1999L22.6665 21.9333L22.9331 21.9999ZM22.9998 24.5999L22.7331 24.7999L22.6665 24.4666L22.9998 24.5999ZM22.3331 22.9333L22.5998 22.7333L22.1998 22.5333L22.3331 22.9333ZM24.0665 22.8666L23.8665 22.7333L24.1331 22.5999L24.0665 22.8666ZM22.7331 25.5333L22.9998 25.3999L22.7331 25.1999V25.5333ZM21.9998 26.9999V26.6666L22.2665 26.8666L21.9998 26.9999ZM21.9998 22.1333L21.7998 21.9333L22.1331 21.7999L21.9998 22.1333ZM24.4665 21.7999L24.5998 22.3999L25.1331 22.0666L24.4665 21.7999ZM22.1998 21.7333L21.9998 21.5333L22.3331 21.4666L22.1998 21.7333ZM26.1331 23.0666L26.4665 23.1999L26.3998 22.8666L26.1331 23.0666ZM32.7331 22.9999L32.4665 22.8666L32.7331 22.6666V22.9999ZM22.5331 23.5333L22.9998 23.3333L22.5331 22.9333V23.5333ZM21.8665 21.2666L22.1331 20.7999L22.3998 21.3333L21.8665 21.2666Z" fill="#A84D3B"/>
<path fill-rule="evenodd" clip-rule="evenodd" d="M21.5999 21.3999L21.8665 21.2666V21.5999L21.5999 21.3999ZM23.1999 22.7999L23.4665 22.8666L23.2665 23.0666L23.1999 22.7999ZM24.2665 21.7999L24.1999 22.0666L24.4665 21.9999L24.2665 21.7999ZM22.0665 21.8666L22.5332 22.0666L22.0665 22.3999V21.8666Z" fill="#A84D3B"/>
<path fill-rule="evenodd" clip-rule="evenodd" d="M22.5998 21.3333L22.7331 21.5999L22.8665 21.3333H22.5998ZM21.8665 21.5333L21.7998 21.7333L22.0665 21.6666L21.8665 21.5333ZM23.7331 21.5333L24.0665 21.7999L23.6665 21.9999L23.7331 21.5333Z" fill="#A84D3B"/>
<path fill-rule="evenodd" clip-rule="evenodd" d="M15.8667 30.9332L16.2 30.8666L16.0667 31.1999L15.8667 30.9332ZM17.3334 32.5332V32.7999L17.0667 32.5999L17.3334 32.5332Z" fill="#964C38"/>
<path fill-rule="evenodd" clip-rule="evenodd" d="M15.1333 30.9999L15.5333 30.8666L15.4666 31.3332L15.1333 30.9999ZM15.8 31.3332L16.1333 30.9332L16.3333 31.4666L15.8 31.3332ZM17.2666 31.7999L17.0666 31.9999L17.3333 32.0666L17.2666 31.7999ZM16.4666 31.7332L16.6666 31.5332L16.7333 31.7999L16.4666 31.7332Z" fill="#964C38"/>
<path fill-rule="evenodd" clip-rule="evenodd" d="M15.3999 31.5999L15.5999 31.3999L15.6666 31.6666L15.3999 31.5999ZM16.9332 32.1999L17.0666 31.9999L17.1999 32.2666L16.9332 32.1999Z" fill="#964C38"/>
<path fill-rule="evenodd" clip-rule="evenodd" d="M15 31.5333L15.2667 31.2666L15.4667 31.7333L15 31.5333ZM16.5333 32.5333L16.3333 32.4666L16.6 32.3333L16.5333 32.5333ZM17.1333 31.5999L17.0667 31.7333H17.2667L17.1333 31.5999ZM17.2 32.3999L17.2667 32.2666L17.4 32.3999H17.2Z" fill="#964C38"/>
<path fill-rule="evenodd" clip-rule="evenodd" d="M16.4665 30.9332L16.2665 31.1332L16.1999 30.8666L16.4665 30.9332ZM14.5999 31.3999L14.8665 31.1332L14.9999 31.5332L14.5999 31.3999ZM15.3332 32.3332L15.2665 32.1999H15.3999L15.3332 32.3332ZM15.7332 32.5999L15.5999 32.6666L15.7999 32.7332L15.7332 32.5999ZM15.5332 31.1332L15.3332 31.2666L15.5999 31.3332L15.5332 31.1332ZM14.9999 31.1999L15.1999 31.2666L14.9999 31.4666V31.1999Z" fill="#964C38"/>
<path fill-rule="evenodd" clip-rule="evenodd" d="M16.4667 31.4665L16.5333 30.9999L16.9333 31.3332L16.4667 31.4665ZM15.2 31.2665V31.0665L15 31.1332L15.2 31.2665ZM16.8 31.5999L16.9333 31.7999L17.0667 31.5332L16.8 31.5999Z" fill="#964C38"/>
<path fill-rule="evenodd" clip-rule="evenodd" d="M15.9332 30.8666L15.7332 30.7999V30.9999L15.9332 30.8666ZM16.5332 31.4666L16.3332 31.2666L16.5999 31.1999L16.5332 31.4666ZM14.5999 32.1333L14.7332 31.9333L14.7999 32.1333H14.5999ZM15.6665 32.1999L15.5332 32.0666L15.7999 31.9999L15.6665 32.1999ZM16.0665 32.8666L15.9332 33.0666L16.1999 33.1333L16.0665 32.8666ZM14.5332 31.6666L14.6665 31.4666L14.7999 31.6666H14.5332Z" fill="#964C38"/>
<path fill-rule="evenodd" clip-rule="evenodd" d="M14.7332 31.8H14.5332L14.5999 31.6L14.7332 31.8ZM15.0665 32.8L15.2665 32.8666L15.1332 33.0666L15.0665 32.8Z" fill="#964C38"/>
<path fill-rule="evenodd" clip-rule="evenodd" d="M15.5999 31.0667L15.6666 31.2667L15.8666 31.1333L15.5999 31.0667ZM15.9999 31.5333L15.7999 31.6L15.9999 31.8V31.5333ZM14.5999 31.8667L14.5333 31.6667L14.4666 31.8667H14.5999ZM14.4666 32.5333L14.3999 32.3333L14.3333 32.6L14.4666 32.5333ZM14.9333 31.8667V31.6667L15.1333 31.7333L14.9333 31.8667ZM14.5333 32.2667L14.3999 32L14.2666 32.2667H14.5333ZM14.6666 32.5333V32.3333L14.8666 32.4L14.6666 32.5333ZM16.9999 32.7333L16.9333 32.5333L17.1999 32.6L16.9999 32.7333ZM16.1333 31.6L16.2666 31.8L16.0666 31.8667L16.1333 31.6Z" fill="#964C38"/>
<path fill-rule="evenodd" clip-rule="evenodd" d="M34.4667 25.9332C34.5333 25.9999 34.6667 25.9999 34.7333 25.9999C34.8667 25.9999 35 25.9332 35.1333 25.7999C35.2604 25.5754 35.2037 25.2916 35 25.1332C34.1762 24.5448 33.1447 24.7874 32.8681 24.8524C32.8313 24.8611 32.8078 24.8666 32.8 24.8666C32.5333 24.9332 32.4 25.1999 32.4667 25.4666C32.5333 25.7332 32.8 25.8666 33.0667 25.7999C33.0763 25.7999 33.1014 25.7943 33.1388 25.786C33.3595 25.7366 34.0106 25.5912 34.4667 25.9332ZM24.6 27.3332C24.6667 27.3999 24.8 27.3999 24.8667 27.3999C24.9643 27.3999 25.0619 27.3642 25.1857 27.3189C25.231 27.3023 25.2798 27.2844 25.3333 27.2666C25.3333 27.1999 26.1333 26.0666 27.9333 26.1999C28.2 26.1999 28.4667 25.9999 28.4667 25.7332C28.4667 25.4666 28.2667 25.1999 28 25.1999C25.7668 25.0138 24.688 26.3862 24.4952 26.6316C24.4808 26.6499 24.4713 26.6619 24.4667 26.6666C24.3396 26.8911 24.3963 27.1749 24.6 27.3332Z" fill="#AF361A"/>
<circle cx="27.2666" cy="30" r="0.933334" fill="#4F2B23"/>
<circle cx="34.1999" cy="29.5333" r="0.933334" fill="#4F2B23"/>
<path d="M31.1334 35.6667C30.9334 35.6667 30.7334 35.5333 30.6667 35.2667C30.6001 35 30.8001 34.7333 31.0667 34.7333C31.0667 34.7333 31.8001 34.6 31.8667 34C31.9334 33.4 31.3334 31.7333 31.0001 30.8667C30.8667 30.6 31.0001 30.3333 31.2667 30.2667C31.5334 30.1333 31.8001 30.2667 31.8667 30.5333C32.0001 30.8 32.8667 33.0667 32.8001 34.1333C32.7334 35.1333 31.8001 35.6667 31.2667 35.7333C31.2001 35.6667 31.1334 35.6667 31.1334 35.6667V35.6667Z" fill="#B4603F"/>
<path d="M28.8666 38.4666V38.4666C26.3332 38.3332 25.2666 36.5332 24.9999 35.5332C24.9332 35.2666 25.0666 34.9999 25.3332 34.9332C25.5999 34.8666 25.8666 34.9999 25.9332 35.2666C25.9332 35.3332 26.4666 37.3332 28.8666 37.4666C29.1332 37.4666 29.3332 37.7332 29.3332 37.9333C29.3332 38.2666 29.1332 38.4666 28.8666 38.4666V38.4666Z" fill="#CF7653"/>
<path fill-rule="evenodd" clip-rule="evenodd" d="M24.5332 31.0666C24.5332 33.4666 25.9999 35.4666 27.8665 35.4666C29.6665 35.4666 31.1999 33.4666 31.1999 31.0666C31.1999 28.6666 29.6665 26.6666 27.8665 26.6666C26.0665 26.6666 24.5332 28.6666 24.5332 31.0666ZM25.1999 31.0666C25.1999 29 26.3999 27.3333 27.8665 27.3333C29.3332 27.3333 30.5332 29 30.5332 31.0666C30.5332 33.1333 29.3332 34.8 27.8665 34.8C26.3999 34.8 25.1999 33.1333 25.1999 31.0666Z" fill="white"/>
<path fill-rule="evenodd" clip-rule="evenodd" d="M30.3998 29.8L30.9998 30.1333C30.9998 30.1333 31.1998 29.7333 31.4665 29.8C31.8665 29.8 32.1998 30.0666 32.1998 30.0666L32.5998 29.5333C32.5998 29.4666 32.1332 29.1333 31.4665 29.1333C30.7998 29.1333 30.3998 29.8 30.3998 29.8ZM19.8245 29.298L19.7112 29.9553L24.7112 30.822L24.8245 30.1646L19.8245 29.298Z" fill="white"/>
<path d="M17.8667 14.3333C17.8667 14.3333 14.5334 13 11.8667 17.6666C8.93337 22.8666 12.7334 29.7333 12.7334 29.7333C12.7334 29.7333 13.8667 28.0666 16.0667 28.4C17.8667 28.6666 18.4 29.6666 18.9334 30.2666C19.4667 30.8 21.6 30.3333 22.3334 27.8666C22.8667 25.9333 22.8667 24.0666 22.2 22.7333C21.5334 21.4 20.9334 19.8666 21.8667 20.5333C22.8 21.2 24.4 22.0666 26.8667 22.4666C29.3334 22.8666 34.0667 23.2666 36.4667 21.2C38.8667 19.2 39 17.4666 38.9334 16.0666C38.8667 14.6666 38.1334 13.8666 38.1334 13.8666C38.1334 13.8666 36.8 14.6 36.1334 14.6666C35.4667 14.7333 34.9334 14.8 35 13.9333C35.1334 11.9333 34 11.2666 34 11.2666C34 11.2666 33.5334 11.8666 33 12.2C31.8667 12.8666 31.2 12.9333 30.0667 12.5333C28.6 12.0666 27.0667 10.7333 24.0667 10.6666C21.9334 10.7333 19.5334 11.8666 17.8667 14.3333V14.3333Z" fill="#C94112"/>
<path fill-rule="evenodd" clip-rule="evenodd" d="M25.7334 11.7332L25.4667 10.9332L26.4001 11.1332L25.7334 11.7332ZM32.5334 13.3332L31.8667 12.7999L32.2667 12.6666L32.7334 12.4666L32.5334 13.3332ZM34.0001 11.3999L33.6001 11.9332L34.2667 11.9999L34.0001 11.3999ZM30.6667 14.2666L31.4001 13.7332V14.7999L30.6667 14.2666ZM29.0667 12.7332L28.8667 13.0666L29.3334 13.1332L29.0667 12.7332ZM23.1334 11.6666L23.4001 11.1999L23.7334 11.7999L23.1334 11.6666ZM24.0001 11.7332L23.8001 12.2666L24.3334 12.3332L24.0001 11.7332ZM23.3334 12.6666L22.7334 11.9999L23.8667 11.7999L23.3334 12.6666Z" fill="#FF593E"/>
<path fill-rule="evenodd" clip-rule="evenodd" d="M22.7333 12L22.0667 11.4666L22.9333 11.1333L22.7333 12ZM24.2666 12.1333L25 12.0666L24.6 12.8666L24.2666 12.1333ZM32.4 14.6666L32.1333 14.8666L32.4 15.0666V14.6666ZM29.7333 13.4666L30 13.2666L30.0667 13.6666L29.7333 13.4666ZM30.6 14L30.8666 13.6666L30.4 13.5333L30.6 14ZM33.6667 14.6L33.9333 14.4L34 14.7333L33.6667 14.6ZM33.0667 13.6L32.7333 13.2666L32.5333 13.8L33.0667 13.6ZM34.1333 12.1333L34.4666 12.4666L33.9333 12.7333L34.1333 12.1333Z" fill="#FF593E"/>
<path fill-rule="evenodd" clip-rule="evenodd" d="M25.0668 11.2666L24.6001 10.8666L24.4001 11.5332L25.0668 11.2666ZM28.3334 12.1332L27.9334 11.7332L27.7334 12.3332L28.3334 12.1332ZM30.3334 12.7332L30.0668 13.1999L29.7334 12.6666L30.3334 12.7332ZM30.6668 13.4666L30.3334 13.1332L30.1334 13.6666L30.6668 13.4666ZM31.8668 13.7999L32.2001 14.1332L31.6668 14.3999L31.8668 13.7999ZM30.2668 13.9999L30.6668 14.3332L30.0668 14.5999L30.2668 13.9999ZM28.8001 12.2666L29.2001 12.5999L28.6668 12.7999L28.8001 12.2666ZM24.3334 11.1999L23.8668 11.6666L23.6667 10.9332L24.3334 11.1999ZM26.8668 11.4666L26.5334 11.1332L26.3334 11.7332L26.8668 11.4666ZM25.3334 11.9332L24.8668 11.3999L25.7334 11.1999L25.3334 11.9332Z" fill="#FF593E"/>
<path fill-rule="evenodd" clip-rule="evenodd" d="M22.6001 10.8666L23.0668 11.3999L23.4668 10.7999L22.6001 10.8666ZM24.8001 12.1999L24.4001 11.5999L25.2001 11.3999L24.8001 12.1999ZM25.0668 12.6666L24.9334 11.9999L25.7334 12.1999L25.0668 12.6666ZM33.3334 12.7999L33.2668 12.1999L32.7334 12.5333L33.3334 12.7999ZM30.6001 13.5333L30.3334 12.8666L31.1334 12.9999L30.6001 13.5333ZM29.1334 12.3333L29.3334 13.0666L29.8668 12.5999L29.1334 12.3333ZM28.4001 12.5999L28.2668 11.8666L29.0001 12.1999L28.4001 12.5999ZM24.9334 10.7999L25.4001 10.9333L25.0001 11.2666L24.9334 10.7999Z" fill="#FF593E"/>
<path fill-rule="evenodd" clip-rule="evenodd" d="M23.4666 10.7999L23.9333 10.9333L23.5333 11.3333L23.4666 10.7999ZM22.2666 11.0666H22.7333L22.5333 11.5333L22.2666 11.0666ZM31.7999 16.2666L31.5999 16.4666L31.8666 16.5999L31.7999 16.2666ZM32.9999 15.3333L33.1999 15.4666L32.9333 15.5999L32.9999 15.3333ZM32.7333 14.3333L32.8666 14.6666L33.0666 14.3999L32.7333 14.3333ZM29.6666 13.3333L29.5333 12.9999H29.8666L29.6666 13.3333ZM32.1333 15.3333L31.9333 15.5333L32.1999 15.5999L32.1333 15.3333ZM24.7999 15.5999L24.9999 15.3999L25.0666 15.6666L24.7999 15.5999ZM32.0666 12.9999L31.5999 13.3999L32.1999 13.7333L32.0666 12.9999ZM31.1999 15.7999L31.4666 15.9333L31.1999 16.0666V15.7999ZM31.6666 15.2666L31.8666 15.3333L31.7999 15.0666L31.6666 15.2666ZM30.2666 15.2666L29.8666 15.1999L30.1333 14.7999L30.2666 15.2666Z" fill="#FF593E"/>
<path fill-rule="evenodd" clip-rule="evenodd" d="M24.4 11.3332L24.6666 10.9332L24.0666 10.8666L24.4 11.3332ZM27.6 11.6666L27.3333 12.0666L27 11.4666L27.6 11.6666ZM31.8 12.8666L31.6 13.3999L31.1333 12.9332L31.8 12.8666ZM29.6 15.7999V15.5332L29.8667 15.7332L29.6 15.7999ZM31.0667 13.7999L31.3333 13.3999L30.8 13.2666L31.0667 13.7999ZM32.4 16.5999V16.3332L32.6667 16.5332L32.4 16.5999ZM30.8666 16.3332L30.5333 16.3999L30.7333 16.5999L30.8666 16.3332ZM25.7333 16.8666L26.0667 16.7999L25.9333 17.1332L25.7333 16.8666ZM29.8 16.9332L29.9333 17.1999L30.0666 16.9332H29.8ZM33.6 14.0666L33.4 13.7332L33.8 13.6666L33.6 14.0666ZM28.8666 16.5332L29.0666 16.1999H28.6666L28.8666 16.5332ZM26.2667 11.4666L26.8666 11.3999L26.6 12.0666L26.2667 11.4666ZM30.0666 14.1332L30.3333 13.5999H29.6666L30.0666 14.1332ZM25.5333 14.7332L26.0667 14.3999V15.0666L25.5333 14.7332ZM28 15.2666L27.5333 15.5332L28 15.7999V15.2666ZM26.3333 15.8666L26.2 15.6666L26.4666 15.5999L26.3333 15.8666Z" fill="#FF593E"/>
<path fill-rule="evenodd" clip-rule="evenodd" d="M27.7333 11.8666L26.9333 12.2666L27.6 12.8666L27.8667 12.4666L27.7333 11.8666ZM24.6 12.7332L24.4667 13.3999L25.2 13.1332L24.6 12.7332ZM24.9333 14.1999L25.0667 13.9999L25.2 14.1999H24.9333ZM27.0667 15.8666L27.2667 15.9332L27.0667 16.0666V15.8666ZM26.5333 14.8666L26.3333 15.1999L26.8 15.2666L26.5333 14.8666ZM28 17.2666L28.2 17.3332L28.0667 17.5332L28 17.2666ZM24.1333 15.9332L24 15.3999L24.6 15.5332L24.1333 15.9332ZM26.5333 12.9999L27.0667 12.7332L27.2 13.0666L27 13.4666L26.5333 12.9999Z" fill="#FF593E"/>
<path fill-rule="evenodd" clip-rule="evenodd" d="M26.4 11.8L26 11.6666L25.5333 11.8L25.9333 12.4666L26.4 11.8ZM26.2666 12.2666L27.3333 12.4L26.6666 13.1333L26.2666 12.2666ZM27.1333 13.6L26.6667 13.3333L26.2666 13.4L26.4 14.3333L27.1333 13.6ZM23.6667 15.4L23.0667 15.7333L23.7333 16.0666L23.6667 15.4ZM28.9333 13.1333L29.8 13.3333L29.0667 14.0666L28.9333 13.1333Z" fill="#FF593E"/>
<path d="M30.1333 13.9333L29.2666 13.7333L29.3999 14.6666L30.1333 13.9333Z" fill="#FF593E"/>
<path fill-rule="evenodd" clip-rule="evenodd" d="M23.9999 12.3999L24.4666 13.0666L23.4666 13.1999L23.9999 12.3999ZM24.9999 13.1332L25.3999 12.7999L25.8666 13.4666L24.8666 13.5332L24.9999 13.1332ZM29.3333 14.2666L29.6666 14.7999L28.9333 14.8666L29.3333 14.2666ZM25.1333 13.9999L24.5333 13.6666L24.3999 14.4666L25.1333 13.9999ZM28.5333 15.0666L28.7999 14.4666L27.9999 14.3999L28.5333 15.0666ZM27.7333 14.8666L27.1332 15.1332L27.2666 14.3332L27.7333 14.8666ZM32.7999 13.1999L33.2666 13.0666L32.8666 12.6666L32.7999 13.1999ZM23.9333 15.1332L23.3333 15.3332L23.4666 14.5999L23.9333 15.1332Z" fill="#FF593E"/>
<path fill-rule="evenodd" clip-rule="evenodd" d="M33.6667 12.4666L33.3334 12.1332L33.8667 11.9332L33.6667 12.4666ZM21.2001 14.9999L20.7334 15.1999L20.8667 14.5999L21.2001 14.9999ZM26.9334 14.7332L26.8001 14.1332L26.2001 14.5332L26.9334 14.7332ZM26.0001 12.5332L26.8667 12.7999L26.1334 13.4666L26.0001 12.5332ZM28.8667 12.9332L28.0001 12.7332L28.1334 13.6666L28.8667 12.9332ZM27.8667 13.7332L28.6667 13.9332L27.9334 14.6666L27.8667 13.7332ZM27.6667 13.7999L27.2001 14.0666L27.6001 14.4666L27.6667 13.7999ZM25.5334 15.4666L25.7334 15.6666L25.4667 15.7332L25.5334 15.4666Z" fill="#FF593E"/>
<path fill-rule="evenodd" clip-rule="evenodd" d="M28 12.7999L28.0667 12.4666L28.3334 12.6666L28 12.7999ZM26.8667 14.1332L27 14.4666L27.2667 14.1332H26.8667ZM25.3334 14.8666L25 14.4666L24.8 15.0666L25.3334 14.8666ZM29 14.1999L28.8 13.6666L28.3334 14.1332L29 14.1999ZM25.9334 13.5332L26.4667 13.7332L25.9334 14.1999V13.5332Z" fill="#FF593E"/>
<path fill-rule="evenodd" clip-rule="evenodd" d="M27.7333 12.7999L27.5333 12.9999H27.8L27.7333 12.7999ZM27.4 13.1333L28 12.9999V13.8666L27.3333 13.3999L27.4 13.1333ZM24.2667 12.9999L24.7333 13.1999L24.2667 13.5999V12.9999ZM25.4 13.5333L25.9333 13.7999L25.4 14.1999V13.5333ZM28.6667 13.5333L28.6 13.3333L28.3333 13.5333H28.6667ZM29.4 16.3999V16.0666L29.7333 16.2666L29.4 16.3999ZM28.0667 16.5333L28.2 16.7999L28.3333 16.5333H28.0667ZM29 15.6666L28.6667 15.7999V15.5333L29 15.6666ZM27.8667 14.2666L27.9333 13.9333L27.5333 13.9999L27.8667 14.2666ZM28.1333 14.4666L28.2667 14.2666L28.4667 14.4666H28.1333ZM27.1333 15.3333L27 15.5999H27.2667L27.1333 15.3333ZM28.8667 12.9333L29 13.0666L28.7333 13.1999L28.8667 12.9333ZM31.2 15.1333L31.2667 14.7999L30.9333 14.8666L31.2 15.1333ZM30.6667 15.5999L30.6 15.8666L30.3333 15.5999H30.6667ZM24.2667 16.7999L24.3333 16.4666L24 16.5333L24.2667 16.7999ZM30.4667 14.7999L30.4 14.3999L30.8667 14.5333L30.4667 14.7999Z" fill="#FF593E"/>
<path fill-rule="evenodd" clip-rule="evenodd" d="M25.5333 13.1332L25.1333 12.6666L25.8 12.4666L25.5333 13.1332ZM28.3333 13.7332L28.2667 13.3999L28.6667 13.5332L28.3333 13.7332ZM30.6667 15.1999L30.5333 14.9999L30.4 15.2666L30.6667 15.1999ZM23.5333 16.9999L23.7333 17.1999L23.4 17.2666L23.5333 16.9999ZM28.2666 15.0666L28 15.1332L28.2666 15.3332V15.0666ZM27.8667 14.7999L27.6 14.7332L27.8 14.5332L27.8667 14.7999ZM13.2666 15.7999L14.2 16.1332L14.1333 14.9999L13.2666 15.7999ZM22.7333 15.9999L23.0666 15.9332L22.9333 16.2666L22.7333 15.9999ZM20.8667 13.8666L20.1333 13.9999L20.6667 14.6666L20.8667 13.8666ZM18.7333 15.4666L18.9333 15.7332H18.5333L18.7333 15.4666ZM21.4666 16.1999L21.2666 15.7999L20.9333 16.1332L21.4666 16.1999ZM15.9333 16.1332V15.4666L16.6666 15.8666L15.9333 16.1332ZM22 12.7332V13.3999L22.6666 13.1332L22 12.7332ZM23.1333 13.0666L23.2 12.6666L23.6 12.8666L23.1333 13.0666ZM23.0667 13.4666V13.8666L23.4666 13.7332L23.0667 13.4666ZM11.3333 19.0666L11.7333 18.0666L12.2666 18.9999L11.3333 19.0666ZM11.2667 19.1332L11.0667 19.9999L11.8667 19.5999L11.2667 19.1332ZM13.1333 20.7999V20.3999L13.5333 20.6666L13.1333 20.7999ZM12.2 20.3332V20.6666L12.6 20.5332L12.2 20.3332ZM18 14.3999L18.2666 13.8666L18.6666 14.3999H18ZM17.1333 15.9332L17 15.6666L16.7333 15.9332H17.1333ZM16.6667 15.9999L16.9333 16.5332L16.2666 16.4666L16.6667 15.9999ZM21.5333 14.2666L21.2666 14.8666H22L21.5333 14.2666ZM20 16.1999V15.8666L20.3333 16.0666L20 16.1999Z" fill="#FF593E"/>
<path fill-rule="evenodd" clip-rule="evenodd" d="M21.6667 13.1333L21 12.8666L21.6 12.3333L21.6667 13.1333ZM23.4667 14.0666L23.5334 13.1999L24.4667 13.7333L23.4667 14.0666ZM14.8667 18.9999V18.7333L15.2 18.9333L14.8667 18.9999ZM14.2667 20.3999L14.6 20.4666L14.3334 20.7333L14.2667 20.3999ZM12.8667 19.1332L12.8 19.8666L13.4667 19.5999L12.8667 19.1332ZM11.8667 19.8666V19.1332L12.5334 19.5999L11.8667 19.8666ZM12.6 21.2666L12.5334 21.5999L12.9334 21.4666L12.6 21.2666ZM22.0667 14.1333L22.8 14.3999L22.7334 13.4666L22.0667 14.1333ZM23.1334 12.9333L22.6 12.9999L22.9334 13.5333L23.1334 12.9333ZM14.2 20.1333H13.9334L14.1334 19.8666L14.2 20.1333ZM14.2 18.5999V18.7999L14.4 18.6666L14.2 18.5999ZM16.8667 19.2666L17.0667 19.1333V19.3999L16.8667 19.2666ZM14.0667 21.5999L13.8667 21.7333L14.0667 21.8666V21.5999ZM12.8667 22.4666L13 22.3333L13.0667 22.5999L12.8667 22.4666ZM15.6667 18.9333L15.7334 19.1333L15.9334 18.9333H15.6667ZM14.6 19.6666L14.4667 19.3333H14.8667L14.6 19.6666ZM17.4 18.7999L17.2667 18.8666L17.4667 18.9999L17.4 18.7999ZM22.5334 14.4666L22.8 14.7333L22.4 14.8666L22.5334 14.4666ZM33.8 13.2666L34.1334 13.5333L34.2 13.1333L33.8 13.2666ZM36.2667 15.4666L35.8667 14.8666H36.2L36.6667 14.7999L36.2667 15.4666ZM38.1334 13.9999L37.6 14.3999L38.2 14.6666L38.1334 13.9999ZM35.4 16.8666L35.7334 16.7999L35.6667 17.1333L35.4 16.8666ZM37.3334 16.8666L37 16.9999L37.2667 17.2666L37.3334 16.8666ZM36.4667 15.4666L36.7334 15.9333L36.1334 15.9999L36.4667 15.4666ZM38.3334 15.1999L38.0667 14.7999L37.7334 15.2666L38.3334 15.1999ZM35.4667 15.7999L35.7334 16.1999L35.1334 16.2666L35.4667 15.7999ZM35.0667 15.0666L34.8 14.5999L34.5334 15.1333L35.0667 15.0666ZM37.2667 14.4666V15.0666L36.6667 14.7333L37.2667 14.4666ZM36.2667 17.7333L36.1334 17.5333L36 17.7999L36.2667 17.7333ZM36.2 16.8666V16.5332L36.5334 16.6666L36.2 16.8666ZM35.3334 17.3333L35.0667 17.4666L35.3334 17.6666V17.3333ZM35.0667 14.9332L35.7334 14.8666L35.4 15.5333L35.0667 14.9332Z" fill="#FF593E"/>
<path fill-rule="evenodd" clip-rule="evenodd" d="M20.6001 12.3333L20.2667 12.8L19.8667 12.2L20.6001 12.3333ZM19.7334 13.1333L19.8667 12.7999L20.0667 13.1333H19.7334ZM20.2667 12.9333L20.1334 13.1999L20.4667 13.2666L20.2667 12.9333ZM17.4667 14.2666L17.5334 14.8666L18.2001 14.5333L17.4667 14.2666ZM37.2667 14.5333L37.5334 14.9333L37.8667 14.5333H37.2667ZM37.0001 15.3999L36.5334 15.4666L36.7334 14.9333L37.0001 15.3999ZM35.0001 15.8L34.8001 15.6666L35.0001 15.4666V15.8ZM35.0667 17.2666L34.8667 17.1333L35.0667 16.9999V17.2666ZM36.9334 16.1333L37.0667 16.5333L37.3334 16.1333H36.9334ZM37.7334 16.1333L37.4667 15.7999L37.9334 15.7333L37.7334 16.1333ZM13.6001 17.9333L13.4001 17.6H13.8001L13.6001 17.9333ZM12.7334 17.1333L13.0001 17.6666L13.4001 17.0666L12.7334 17.1333ZM13.4001 16.6666L12.9334 16.2L13.6001 15.9333L13.4001 16.6666ZM23.4001 14.1999L22.7334 14.0666L22.9334 14.7999L23.4001 14.1999ZM22.4001 14.9333L22.9334 15.0666L22.5334 15.5999L22.4001 14.9333ZM29.6667 15.1333L29.0667 15L29.2667 15.6666L29.6667 15.1333Z" fill="#FF593E"/>
<path fill-rule="evenodd" clip-rule="evenodd" d="M20.4667 12.3332L20.4 11.9332L20.8667 12.1332L20.4667 12.3332ZM19.7334 12.3332L19.9334 12.9332L19.2 12.7999L19.7334 12.3332ZM19.9334 13.0666L20.3334 13.5332L19.6667 13.7332L19.9334 13.0666ZM19.4 13.5999L19.7334 13.0666L19.0667 12.9332L19.4 13.5999ZM21.9334 12.7999L21.6 12.7332L21.8667 12.3999L21.9334 12.7999ZM21 12.7999L20.4667 12.5999L20.5334 13.1999L21 12.7999ZM22.8 11.9999L22 12.3332L22.6667 12.9999L22.8 11.9999ZM12.6 20.9999V20.7332L12.9334 20.9332L12.6 20.9999ZM13.1334 17.5332L13.2667 17.7999L13.4 17.5332H13.1334ZM11.5334 21.6666L11.8 21.5999L11.7334 21.8666L11.5334 21.6666ZM12.2 21.2666L12.1334 20.9999L11.9334 21.2666H12.2ZM12.8 18.9332L12.2 18.5332L12.9334 18.1332L12.8 18.9332ZM14.6 17.3332L14.8667 17.3999V17.0666L14.6 17.3332ZM12.4667 16.8666L12.8 16.3332L13.2 16.9999L12.4667 16.8666ZM13.6667 18.8666L13.6 19.3332L14.1334 19.1332L13.6667 18.8666ZM13.7334 16.3332L14.2667 16.3999L13.8667 16.9332L13.7334 16.3332ZM15.1334 17.7999L14.5334 17.8666L14.8667 18.3999L15.1334 17.7999ZM13.7334 17.0666L14.3334 16.9999L14.1334 17.5999L13.7334 17.0666ZM15.7334 15.5332L15.2 15.5999L15.5334 16.1332L15.7334 15.5332ZM12.7334 17.9999L11.8 17.8666L12.4 16.9332L12.7334 17.9999ZM11.0667 20.1332L10.8667 20.9332L11.8667 20.7332L11.0667 20.1332ZM13.4667 19.6666L13.8667 19.5332L13.8 20.0666L13.4667 19.6666ZM12.2 19.9999L12.6667 20.1332L12.6 19.5999L12.2 19.9999ZM13.2667 21.3999L13 21.5332V21.2666L13.2667 21.3999ZM12.2 21.8666L12 21.9332L12.1334 22.1332L12.2 21.8666ZM17.6667 15.9332L18 15.6666L18.0667 16.1332L17.6667 15.9332ZM17.4667 14.9332L17.1334 15.1332L17.5334 15.3999L17.4667 14.9332ZM15.6 15.1332L16.1334 14.7332L16.2667 15.4666L15.6 15.1332Z" fill="#FF593E"/>
<path fill-rule="evenodd" clip-rule="evenodd" d="M19.0667 14.4667L18.8 14.2L19.2667 14.0667L19.0667 14.4667ZM20.1333 14.8L20 14.6L20.2666 14.5333L20.1333 14.8ZM18.1333 14.8L18.4 14.6V15L18.1333 14.8ZM16.7333 16L17 15.8L17.0666 16.2L16.7333 16ZM17.7333 15.6667L17.9333 15.8667L18.0666 15.6L17.7333 15.6667ZM13.3333 18.6L13.1333 18.1333L13.7333 18.2L13.3333 18.6ZM15.2 17L15.3333 17.2L15.4666 16.9333L15.2 17ZM19.0667 14.7333L19.2 14.8667L19.3333 14.6667L19.0667 14.7333ZM15.3333 16.2667L15.4667 16.4667L15.6 16.2L15.3333 16.2667ZM17.1333 15.6667L17.4 15.4667L17.4666 15.8667L17.1333 15.6667ZM16.8666 15.4667L17.0667 15.0667H16.5333L16.8666 15.4667ZM16.6 14.2L16.4 14.8L15.8667 14.2H16.6ZM18 15.3333L17.8 15.2L17.7333 15.4667L18 15.3333ZM17.0667 16.2667L17.2666 16.1333L17.3333 16.4L17.0667 16.2667ZM16.2666 15.9333L16.0667 15.7333L16 16.0667L16.2666 15.9333ZM12.2 22.3333L12 22.5333L11.9333 22.2L12.2 22.3333ZM11.1333 23.7333L11.2667 23.6L11.0667 23.4667L11.1333 23.7333ZM11.5333 22.6L11.3333 22.8L11.2666 22.5333L11.5333 22.6ZM11.1333 24.2L11.3333 24.4L11.4 24.0667L11.1333 24.2ZM11.8 23.3333L11.4667 23.4667V23.1333L11.8 23.3333Z" fill="#FF593E"/>
<path fill-rule="evenodd" clip-rule="evenodd" d="M15 16.7999L14.6 16.4666L15.2 16.2L15 16.7999ZM11.2667 21.6L10.9334 21.2666L11.4667 21.1333L11.2667 21.6ZM12.4667 23.0666L12.2 23.2V22.8666L12.4667 23.0666ZM11.2 21.6666L10.8667 22.2L11.6667 22.2666L11.2 21.6666ZM10.8667 23.0666V22.4666L11.3334 22.8L10.8667 23.0666ZM11.1334 23.8L11 24L11.2667 24.0666L11.1334 23.8Z" fill="#FF593E"/>
<path fill-rule="evenodd" clip-rule="evenodd" d="M21.9999 11.8666L21.3999 11.3333L22.1999 11.0667L21.9999 11.8666ZM21.1999 13.6L21.5332 13.7333V13.3333L21.1999 13.6ZM21.5999 13.6666L22.1332 13.8L21.7332 14.2666L21.5999 13.6666ZM14.3999 15.3333L14.6666 14.7333L15.0666 15.4L14.3999 15.3333ZM14.9999 16.2L15.1332 16L15.3332 16.2666L14.9999 16.2ZM14.6666 15.6666L14.4666 16.0666L14.9999 16.1333L14.6666 15.6666ZM16.5332 16.6L16.9999 16.7333L16.6666 17.1333L16.5332 16.6ZM14.7999 16.7333L14.3999 16.6666L14.4666 17.1333L14.7999 16.7333ZM20.5999 13.2666L20.5332 13.8666L21.1332 13.6666L20.5999 13.2666ZM21.1332 12.2666L20.5999 11.8L21.3999 11.5333L21.1332 12.2666ZM18.4666 13.7333L19.1332 13.8666L18.9332 13.1333L18.4666 13.7333ZM20.9999 14L21.3332 14.0666L21.0666 14.3333L20.9999 14Z" fill="#FF593E"/>
<path fill-rule="evenodd" clip-rule="evenodd" d="M21.7334 12.2L21.2667 11.8L21.9334 11.6L21.7334 12.2ZM16.7334 14.2L17 14.7333L17.4 14.2H16.7334ZM20.4667 15.6L20.6667 15.6666L20.5334 15.9333L20.4667 15.6ZM15.8 16.6666L16 16.7333L15.8667 17L15.8 16.6666ZM14.8667 14.6L15.4667 15.1333L15.7334 14.2666L14.8667 14.6ZM17.4667 17.8L17.2667 17.5333L17.6 17.4L17.4667 17.8ZM21.7334 15.4L22 15.6L22.1334 15.3333L21.7334 15.4ZM19.4667 14.6666L19.2667 14.2666L19.8 14.3333L19.4667 14.6666ZM19.9334 13.7333L19.6667 14.0666L20.1334 14.1333L19.9334 13.7333ZM19.4 13.9333L19.2 13.5333H19.7334L19.4 13.9333ZM18.6 13.9333L18.8 14.3333L19.1334 14L18.6 13.9333ZM18.5334 15L18.8 15.0666L18.6 15.2666L18.5334 15ZM19.8667 15.4L19.6 15.3333L19.6667 15.6666L19.8667 15.4ZM17.8 18L17.6 17.8L17.9334 17.6666L17.8 18ZM17.5334 16.8666L17.4667 17.0666L17.7334 17.1333L17.5334 16.8666ZM16.1334 16.2L16.2667 16.4666H15.8667L16.1334 16.2Z" fill="#FF593E"/>
<path fill-rule="evenodd" clip-rule="evenodd" d="M15.7334 16.7999L16.0001 16.5332L16.0667 16.9999L15.7334 16.7999ZM16.6001 18.3332V17.9999L16.9334 18.1999L16.6001 18.3332Z" fill="#FF593E"/>
<path fill-rule="evenodd" clip-rule="evenodd" d="M23.8667 14.2L24.4667 14.4L24 14.9333L23.8667 14.2ZM15.8 16.5333L15.9333 16.7333L16.0667 16.4666L15.8 16.5333ZM14.3333 17.6666L13.9333 17.9333L14.4667 18.1333L14.3333 17.6666ZM15.6 18.1333L15.3333 17.9333L15.6667 17.8L15.6 18.1333ZM16.7333 17.2L17 17.3999L17.0667 17.0666L16.7333 17.2ZM15.8 18.8666L15.6 18.6666L15.9333 18.5333L15.8 18.8666ZM15.9334 17.1333L15.8 17.3333H16.1334L15.9334 17.1333ZM20 14.7999L19.7333 14.7333L19.8 15.0666L20 14.7999ZM16.2667 17.9333L16.5333 18L16.3333 18.2666L16.2667 17.9333Z" fill="#FF593E"/>
<path fill-rule="evenodd" clip-rule="evenodd" d="M21.6665 20.1332L21.9998 20.3999L22.1332 19.9999L21.6665 20.1332ZM23.0665 20.4665L23.2665 20.1999L23.4665 20.5999L23.0665 20.4665ZM23.8665 20.9332L24.1332 20.7999L23.8665 20.5999V20.9332ZM24.9998 21.2665L24.7332 21.5999L24.5332 21.1999L24.9998 21.2665ZM29.9998 22.3332L29.6665 22.7999L29.3998 22.1999L29.9998 22.3332ZM30.9332 22.7999L30.3332 21.9999L29.7332 22.7999H30.9332ZM29.4665 22.7999L28.6665 22.7332L29.2665 21.9999L29.4665 22.7999ZM23.5332 21.1999L23.1998 20.7999L23.7998 20.5999L23.5332 21.1999Z" fill="#AF2500"/>
<path fill-rule="evenodd" clip-rule="evenodd" d="M25.0667 18.7332L24.9334 18.3999L24.8 18.7332H25.0667ZM22.6667 18.7999L22.5334 18.5332L22.4 18.7999H22.6667ZM29 19.3332L29.2667 19.1999L29 19.0666V19.3332ZM21.8 19.5332L22 19.3999L21.8 19.1999V19.5332ZM23.4 21.3999L23.8 20.9999L24 21.6666L23.4 21.3999ZM28.6 22.0666L28.8 22.7332L27.9334 22.6666L28.6 22.0666ZM24.8 21.9332L24.6667 21.1999L24.0667 21.6666L24.8 21.9332ZM25.9334 21.5999L26.2 22.2666L25.4 22.1332L25.9334 21.5999ZM24.2 20.9332L24.3334 21.2666L23.9334 21.1999L24.2 20.9332ZM23.2667 19.4666L23.0667 19.2666L23.3334 19.1999L23.2667 19.4666ZM23.8667 19.7332L23.5334 19.6666L23.6 20.0666L23.8667 19.7332ZM24.6667 19.4666V19.7332L24.4 19.5332L24.6667 19.4666ZM27.7334 18.7999L27.8667 19.0666L27.6 19.1332L27.7334 18.7999ZM25.4667 19.3999L25.1334 19.3332L25.3334 19.0666L25.4667 19.3999ZM26.8667 22.4666L27.4667 22.5999L27.3334 21.9332L26.8667 22.4666ZM23.5334 20.5999L23.8667 20.0666L24.2 20.6666L23.5334 20.5999ZM27.4667 19.9332L27.4 19.7332L27.2 19.9332H27.4667ZM29.0667 20.6666L28.7334 20.9999L28.6 20.5332L29.0667 20.6666ZM27.0667 19.3999L27.2 19.5332L27.2667 19.3332L27.0667 19.3999ZM26.6667 18.8666L26.5334 18.7999L26.6667 18.5999V18.8666ZM29.2 22.0666L29.3334 21.3999L28.6 21.5999L29.2 22.0666ZM26.8667 22.3999L26.2 22.3332L26.3334 21.7999L26.7334 21.6666L26.8667 22.3999Z" fill="#AF2500"/>
<path fill-rule="evenodd" clip-rule="evenodd" d="M30.2 19.9333L30.6 19.7999L30.4667 20.2666L30.2 19.9333ZM29.6 20.8666L29.1334 20.5999L29.7334 20.2666L29.6 20.8666ZM27.2667 21.5999L26.7334 21.7999L26.6 21.4666L26.8667 21.1333L27.2667 21.5999ZM27.8 22.5999L27.4 22.3999L27.9334 21.7999L28.2 22.5333L27.8 22.5999ZM27.9334 21.1999L28.4 21.9333L28.8 21.6666L29 21.1999H27.9334ZM29.3334 21.7333L29.7334 22.4666L30.3334 21.7333H29.3334ZM24.8 21.9333L25.2667 21.3999L25.5334 22.1333L24.8 21.9333ZM26.1334 20.6666L25.4667 20.8666L25.9334 21.4666L26.1334 20.6666Z" fill="#AF2500"/>
<path fill-rule="evenodd" clip-rule="evenodd" d="M32.7999 20.1332L33.2665 19.9999L33.0665 20.5332L32.7999 20.1332ZM27.7332 22.0665L26.9332 21.7999L27.7332 21.1332V22.0665ZM22.5332 20.9332L23.1999 21.2665L23.1332 20.6665L22.5332 20.9332ZM26.7999 20.5332L26.2665 20.7332L26.3999 20.0665L26.7999 20.5332ZM27.8665 20.1332L28.0665 20.3332L28.1999 20.0665L27.8665 20.1332ZM26.9999 20.1332L27.0665 20.3999H26.7332L26.9999 20.1332ZM25.7332 21.9999V21.6665L25.3999 21.7332L25.7332 21.9999ZM24.5999 21.0665L24.4665 20.5332L25.0665 20.6665L24.5999 21.0665Z" fill="#AF2500"/>
<path fill-rule="evenodd" clip-rule="evenodd" d="M26.1333 20.2L26 20.5333L26.3333 20.4666L26.1333 20.2ZM28.1333 21.1333L27.6666 20.8666L28.1999 20.4666L28.1333 21.1333ZM27.3999 21.2L26.9333 20.8666L27.4666 20.5333L27.3999 21.2ZM29.0666 21.5333L29.5333 21.8666L29.5999 21.2L29.0666 21.5333ZM25.2666 21.0666L25.2 20.7999L25.4666 20.8666L25.2666 21.0666ZM26.7333 21.5333L26.1333 21.5999L26.2 20.7333L26.8666 21.2666L26.7333 21.5333Z" fill="#AF2500"/>
<path fill-rule="evenodd" clip-rule="evenodd" d="M35.1333 19.1999L35 18.8666L35.3333 18.9332L35.1333 19.1999ZM25.7333 19.3999L26 19.3332L25.8 19.0666L25.7333 19.3999ZM26.4 19.4666L26.5333 19.2666L26.3333 19.1999L26.4 19.4666ZM25.8 19.9332L25.6666 20.1332L25.5333 19.9332H25.8ZM26.2666 21.5332L26.0666 21.6666V21.4666L26.2666 21.5332ZM24.9333 21.4666L24.8 21.2666L25.1333 21.1999L24.9333 21.4666ZM22.7333 20.0666L22.6666 20.3999L23 20.3332L22.7333 20.0666ZM24.4666 19.9999V20.3999L24.0666 20.1999L24.4666 19.9999ZM28.6666 22.0666L28.2666 21.5332L27.9333 22.1999L28.6666 22.0666ZM25.5333 20.6666V20.9999L25.2 20.8666L25.5333 20.6666ZM22.4666 19.5332L22.6 19.7999L22.7333 19.4666L22.4666 19.5332ZM30.2 19.4666L30.0666 19.1999H30.3333L30.2 19.4666ZM26.2 19.9332L26.1333 19.6666L26.4 19.7332L26.2 19.9332ZM22.4666 27.4666L21.5333 27.6666L22.1333 28.5332L22.4666 27.4666ZM29.6 20.0666H29.2666L29.4 19.7332L29.6 20.0666ZM33.0666 21.3999L33.7333 21.3332L33.3333 20.7332L33.0666 21.3999ZM32.7333 19.1332L32.8 19.3999L33 19.1999L32.7333 19.1332ZM20 28.4666L20.3333 29.1332L19.4666 29.0666L20 28.4666ZM31.7333 22.3332L31.8666 21.6666L31.1333 21.8666L31.7333 22.3332ZM30.6 21.9332L30.5333 22.2666L30.2 21.9999L30.6 21.9332ZM30.7333 21.4666L30.8666 21.0666L30.4 21.1999L30.7333 21.4666ZM22.6 23.6666L22.8 24.7332L21.8 24.1999L22.6 23.6666ZM22.5333 23.5999L22.2666 22.7332L21.8 23.4666L22.5333 23.5999ZM20.1333 22.9999L20.3333 23.3332H19.8666L20.1333 22.9999ZM21.2 22.9999L21 22.6666L20.7333 22.9999H21.2ZM18.7333 28.9332L18.8 29.5332L18.1333 29.2666L18.7333 28.9332ZM19.0666 29.1999L19.3333 29.3999L19.4 28.9999L19.0666 29.1999ZM19.4 28.9332L19 28.6666L19.5333 28.3332L19.4 28.9332ZM32.4 20.7999L32.6 20.3999H32.0666L32.4 20.7999ZM34.1333 19.1332L34.0666 19.4666L33.8 19.1999L34.1333 19.1332ZM19.6666 25.7332L19.5333 25.3999L19.2666 25.6666L19.6666 25.7332ZM19.3333 23.9332L19.0666 24.0666L19.1333 23.6666L19.3333 23.9332Z" fill="#AF2500"/>
<path fill-rule="evenodd" clip-rule="evenodd" d="M31.1999 20.2666L31.4666 20.5333L31.5999 20.1333L31.1999 20.2666ZM31.8666 20.9333L31.1333 20.6V21.5333L31.8666 20.9333ZM30.4666 20.8L30.2666 21.6666L29.4666 21.0666L30.4666 20.8ZM20.3999 22.3333L20.2666 22.0666L19.9999 22.3333H20.3999ZM21.7333 23.2L22.0666 23.8666L21.2666 23.8L21.7333 23.2ZM20.8666 23.7333L21.1999 24.4L20.3999 24.2666L20.8666 23.7333ZM32.1333 22L32.7333 22.2666L32.1333 22.7333V22ZM36.1333 21.5333L35.5333 21.2L35.3999 21.9333L36.1333 21.5333ZM30.9333 21.4666L31.1999 22.0666H30.6666L30.9333 21.4666ZM19.7333 24L19.5333 24.1333L19.7333 24.3333V24ZM20.1999 25.3333L20.3333 25.4666L20.1333 25.5333L20.1999 25.3333ZM17.5333 26.4L17.6666 26.2H17.3999L17.5333 26.4ZM19.0666 22.6L18.9333 22.8L18.7999 22.6H19.0666ZM19.4666 21.6666L19.5999 21.4666L19.3333 21.4L19.4666 21.6666ZM18.6666 25.7333L18.8666 25.9333L18.5999 26.0666L18.6666 25.7333ZM19.7333 25L19.4666 24.8L19.3333 25.2L19.7333 25ZM17.5333 26.7333L17.3999 26.9333L17.2666 26.7333H17.5333ZM19.5999 29.8L19.8666 30.4L19.1333 30.3333L19.5999 29.8ZM21.4666 25.9333L21.1333 25.7333L21.0666 26.2L21.4666 25.9333ZM21.7999 25.7333L22.3333 26.0666L21.7333 26.4L21.7999 25.7333ZM22.5333 27L21.9333 26.8L22.0666 27.5333L22.5333 27ZM33.6666 22.0666L33.4666 22.3333L33.3333 22L33.6666 22.0666ZM33.8666 22.4666L34.2666 22.3333L33.7333 22.1333L33.8666 22.4666ZM30.9333 21L30.4666 20.8666L30.8666 20.4666L30.9333 21Z" fill="#AF2500"/>
<path fill-rule="evenodd" clip-rule="evenodd" d="M24.5999 19.9999L25.1332 20.1999L25.0665 19.5332L24.5999 19.9999ZM31.1332 19.9332L31.5332 20.0665L31.4665 19.5999L31.1332 19.9332ZM33.8665 22.1999L33.4665 21.6665L34.1999 21.5999L33.8665 22.1999Z" fill="#AF2500"/>
<path fill-rule="evenodd" clip-rule="evenodd" d="M33.9332 20.6666L33.7999 20.4666L33.6666 20.6666H33.9332ZM33.7332 21.8666L34.1332 21.3332L34.3999 21.9999L33.7332 21.8666ZM31.7999 22.2666L32.1999 22.3999L31.8666 22.6666L31.7999 22.2666ZM32.7332 22.6666L33.5332 22.5332L33.2666 21.9999L32.7332 22.6666ZM31.7999 22.7999H30.9999L31.1332 21.9999L31.7999 22.7999ZM20.6666 22.7999L20.5332 22.5332L20.2666 22.7999H20.6666ZM21.7332 25.8666L21.5332 25.9999V25.6666L21.7332 25.8666ZM20.9332 21.7332L21.1332 21.5332L20.7999 21.4666L20.9332 21.7332ZM20.9332 22.3332L20.7332 22.1999L20.9999 22.0666L20.9332 22.3332ZM22.0666 24.5999L21.3999 24.4666L21.6666 25.2666L22.0666 24.5999ZM20.2666 26.8666L20.5999 26.7999L20.4666 27.1332L20.2666 26.8666ZM22.5999 26.7999L22.6665 26.1332L21.9332 26.3999L22.5999 26.7999ZM20.4666 24.5332L20.6666 24.9999L20.0666 24.9332L20.4666 24.5332ZM21.3332 27.4666L21.7999 27.2666L21.3999 26.7999L21.3332 27.4666ZM20.3332 26.2666L19.8665 26.5999L19.7999 25.9332L20.3332 26.2666ZM20.9999 26.9332L21.3999 26.5999L20.8666 26.3332L20.9999 26.9332ZM20.8666 28.5999L20.3999 28.9332L20.3332 28.2666L20.8666 28.5999ZM22.7999 24.9332L21.8666 25.3332L22.7332 26.0666L22.7999 24.9332ZM21.8666 21.8666L22.1999 22.6666L21.1999 22.5999L21.8666 21.8666ZM20.0666 24.5332L20.3999 24.1999L19.9332 23.9999L20.0666 24.5332ZM20.8666 23.3999L21.3332 23.2666L21.2666 23.8666L20.8666 23.3999ZM20.0666 22.5999L19.8666 22.3332L19.7332 22.5999H20.0666ZM20.5999 21.4666L20.3999 21.6666L20.3332 21.3999L20.5999 21.4666ZM17.7332 28.9332L17.9332 28.5332H17.4666L17.7332 28.9332ZM19.3999 29.9332L19.2666 30.2666L18.9999 29.9332H19.3999ZM20.4666 29.7999L20.7999 29.1999H19.9999L20.4666 29.7999ZM18.3332 28.7999L18.1999 29.1332L17.9999 28.7999H18.3332ZM19.3332 28.9999H18.9999L19.1999 29.2666L19.3332 28.9999ZM19.1999 27.8666L19.4666 27.9999L19.2666 28.1999L19.1999 27.8666ZM21.4666 25.3332L20.9999 24.9999L20.8666 25.5999L21.4666 25.3332ZM19.9999 27.2666L20.1999 27.3999L19.9999 27.5332V27.2666ZM34.7332 20.4666L34.8666 20.6666H34.5999L34.7332 20.4666ZM35.0666 21.1999L34.8666 20.9332L34.5999 21.2666L35.0666 21.1999ZM20.1999 27.9999L20.4666 28.0666L20.1999 28.2666V27.9999ZM18.9999 29.7999L19.1332 29.4666H18.7999L18.9999 29.7999ZM19.5332 29.9999L19.4666 29.5332L19.9999 29.7332L19.5332 29.9999Z" fill="#AF2500"/>
<path fill-rule="evenodd" clip-rule="evenodd" d="M20.3332 19.8666L20.5999 19.9332L20.3999 20.1332L20.3332 19.8666ZM21.1332 20.3999L21.1999 20.1332L21.3999 20.3332L21.1332 20.3999ZM20.2665 20.9332L20.1999 21.2666L20.5332 21.1999L20.2665 20.9332ZM19.9332 28.5999L20.0665 28.8666H19.7999L19.9332 28.5999ZM18.7999 29.1332L18.9332 28.9332H18.5999L18.7999 29.1332ZM20.4665 30.2666L20.3332 29.6666L21.0665 29.8666L20.4665 30.2666ZM18.7999 29.9332L18.9999 29.6666L19.0665 29.9332H18.7999ZM20.7999 20.8666L20.7332 21.1332L20.9999 21.0666L20.7999 20.8666ZM20.7999 20.3999L20.6665 20.6666H20.9999L20.7999 20.3999ZM21.5332 22.9999L21.6665 22.7999L21.8665 23.0666L21.5332 22.9999ZM21.7332 21.6666L21.3332 21.5332L21.3999 22.0666L21.7332 21.6666ZM21.4665 20.9332L21.6665 21.5999L20.8665 21.3999L21.4665 20.9332Z" fill="#AF2500"/>
<path fill-rule="evenodd" clip-rule="evenodd" d="M21.4666 20.4666V20.9332L21.0666 20.6666L21.4666 20.4666ZM20.4666 27.4666L20.9999 27.5332L20.5999 28.0666L20.4666 27.4666Z" fill="#AF2500"/>
<path fill-rule="evenodd" clip-rule="evenodd" d="M33.3334 19.5333L33.6 19.5999V19.3333L33.3334 19.5333ZM32.8667 21.1999L32.6 21.0666L32.8 20.7999L32.8667 21.1999ZM32.2667 21.4666L31.7334 21.2666L32.2 20.8666L32.2667 21.4666ZM20.6667 27.3999L21.1334 27.2666L20.7334 26.8666L20.6667 27.3999ZM21.3334 27.7333L20.8 27.9999L21.3334 28.2666V27.7333ZM20.4667 28.0666L20.7334 27.9333V28.1999L20.4667 28.0666ZM21.0667 28.7333L21.7334 28.3999L21.8 29.0666L21.0667 28.7333ZM19.2667 28.3999L18.7334 28.5333L18.8667 27.9999L19.2667 28.3999ZM32.4 21.5999V22.0666L32.8 21.7999L32.4 21.5999ZM33.3334 21.3999L33.1334 21.9999L32.6 21.5333L33.3334 21.3999ZM35.3334 21.9999L34.7334 21.5333V22.1999L35.3334 21.9999ZM19.8667 27.9333L19.6 27.9999L19.6667 27.7333L19.8667 27.9333ZM20.4667 30.2666L20.0667 29.7999L19.8 30.3999L20.4667 30.2666ZM20.9334 28.9333L21.7334 29.1999L21 29.7999L20.9334 28.9333ZM18.1334 27.8666L17.8 27.7999L17.9334 28.1333L18.1334 27.8666ZM32.0667 19.4666L32.2667 19.6666L31.9334 19.7333L32.0667 19.4666ZM36.2667 21.4666V20.7333L35.5334 21.1333L36.2667 21.4666ZM35.8667 20.8666L35.2667 20.6666L35.8667 20.2666V20.8666Z" fill="#AF2500"/>
<path fill-rule="evenodd" clip-rule="evenodd" d="M38.6666 18.1332L38.5332 17.9332L38.8666 17.8666L38.6666 18.1332ZM36.6666 18.6666L36.4666 18.4666L36.7332 18.3332L36.6666 18.6666ZM35.3332 19.9999L34.9332 20.1999L35.3332 20.5332V19.9999ZM35.9999 20.9332L36.5332 21.1332L36.4666 20.4666L35.9999 20.9332ZM36.0666 19.9999L36.3999 19.8666L36.1332 19.5999L36.0666 19.9999ZM36.9332 19.6666L36.5999 19.8666L36.9999 20.0666L36.9332 19.6666ZM38.5332 18.7332L38.3332 19.1999L37.9999 18.7332H38.5332ZM36.7332 20.9999L37.3332 20.3999L36.3999 20.0666L36.7332 20.9999ZM37.9999 19.6666L37.3999 20.3999L37.1999 19.5332L37.9999 19.6666ZM37.7999 19.2666L38.0666 19.4666L38.1332 19.0666L37.7999 19.2666ZM36.9332 19.5332L36.4666 19.4666L36.7332 18.9999L36.9332 19.5332ZM37.7999 18.8666L37.5999 18.3999L37.3999 18.7999L37.7999 18.8666ZM38.4666 18.1999L38.7332 18.3999L38.3999 18.5332L38.4666 18.1999ZM34.5999 21.0666L34.5332 20.6666L34.1332 20.9999L34.5999 21.0666ZM34.1999 21.2666L33.9332 21.5999L33.7332 21.1332L34.1999 21.2666ZM34.5999 21.8666L34.4666 21.4666L34.1332 21.7332L34.5999 21.8666ZM35.1332 21.0666L35.1999 21.4666L34.7332 21.3999L35.1332 21.0666ZM35.3999 19.5332L35.6666 19.6666V19.3332L35.3999 19.5332ZM34.3999 19.9999L34.1999 19.9332L34.3999 19.6666V19.9999ZM17.7332 27.7999L17.3999 27.7332L17.4666 28.0666L17.7332 27.7999ZM17.9332 28.5332L18.1999 28.3999V28.6666L17.9332 28.5332ZM19.5332 28.3999L19.7999 28.5332L19.8666 28.1999L19.5332 28.3999ZM18.3332 26.8666L18.5332 27.1332L18.1332 27.1999L18.3332 26.8666ZM20.3332 28.0666L20.4666 27.7332L20.0666 27.6666L20.3332 28.0666ZM19.6666 27.9332L19.9332 28.0666L19.7332 28.2666L19.6666 27.9332ZM20.6666 26.3332L20.7999 25.9332L20.3332 25.9999L20.6666 26.3332ZM19.3332 26.5332L19.6666 26.5999L19.3999 26.9332L19.3332 26.5332ZM18.7332 27.9332L18.3999 27.8666L18.5332 28.1999L18.7332 27.9332ZM18.7332 26.0666L19.0666 26.1332L18.7999 26.3999L18.7332 26.0666ZM19.5332 27.5999L19.4666 27.3999L19.1999 27.5332L19.5332 27.5999ZM22.4666 20.8666L21.8666 20.5999L22.3999 20.3999L22.4666 20.8666ZM33.9999 20.4666L34.1999 20.5332V20.2666L33.9999 20.4666ZM18.7999 27.0666L18.5999 27.1332V26.7999L18.7999 27.0666Z" fill="#AF2500"/>
<path d="M34.9999 33.4C33.7999 33.4 32.7999 31.7333 32.7999 29.8666C32.7999 28 33.7999 26.3333 34.9999 26.3333C35.1999 26.3333 35.4666 26.4 35.6666 26.4666V25.7333C35.4666 25.6666 35.2666 25.6 35.0666 25.6C33.4666 25.6 32.2 27.5333 32.2 29.8666C32.2 32.2 33.4666 34.1333 35.0666 34.1333H35.3333L35.3999 33.4666C35.1999 33.3333 35.0666 33.4 34.9999 33.4V33.4Z" fill="white"/>
<path d="M37.8666 29.8C37.8666 27.8 36.9333 26.0666 35.6 25.6666V26.4C36.4666 26.8666 37.1333 28.2 37.1333 29.8C37.1333 31.5333 36.3333 33 35.2666 33.2666L35.2 33.9333C36.7333 33.8 37.8666 32 37.8666 29.8V29.8Z" fill="#CCCCCC"/>
</g>
<defs>
<linearGradient id="paint0_linear_53_3690" x1="21.2623" y1="48.9275" x2="26.8705" y2="44.2637" gradientUnits="userSpaceOnUse">
<stop stop-color="#BC5A32" stop-opacity="0.01"/>
<stop offset="0.99" stop-color="#BC5A32"/>
</linearGradient>
<linearGradient id="paint1_linear_53_3690" x1="31.178" y1="24.8874" x2="30.1026" y2="18.9913" gradientUnits="userSpaceOnUse">
<stop stop-color="#BC5A32" stop-opacity="0.01"/>
<stop offset="0.99" stop-color="#BC5A32"/>
</linearGradient>
<linearGradient id="paint2_linear_53_3690" x1="17.3662" y1="34.7819" x2="17.6092" y2="31.2312" gradientUnits="userSpaceOnUse">
<stop stop-color="#CC7A5E" stop-opacity="0.01"/>
<stop offset="0.924" stop-color="#AA5F4B"/>
</linearGradient>
</defs>
</svg>
